STARTFONT 2.1
COMMENT
COMMENT Converted from OpenType font "Q:\font stuff\winfont\Legacy Serif Md ITC TT Medium.ttf" by "otf2bdf 3.0".
COMMENT
FONT -FreeType-Legacy Serif Md ITC TT-Medium-R-Normal--72-720-72-72-P-336-ISO10646-1
SIZE 72 72 72
FONTBOUNDINGBOX 83 84 -10 -20
STARTPROPERTIES 19
FOUNDRY "FreeType"
FAMILY_NAME "Legacy Serif Md ITC TT"
WEIGHT_NAME "Medium"
SLANT "R"
SETWIDTH_NAME "Normal"
ADD_STYLE_NAME ""
PIXEL_SIZE 72
POINT_SIZE 720
RESOLUTION_X 72
RESOLUTION_Y 72
SPACING "P"
AVERAGE_WIDTH 336
CHARSET_REGISTRY "ISO10646"
CHARSET_ENCODING "1"
FONT_ASCENT 63
FONT_DESCENT 19
COPYRIGHT " (c) Copyright 1997 International Typeface Corporation. All rights reserved."
_OTF_FONTFILE "Q:\font stuff\winfont\Legacy Serif Md ITC TT Medium.ttf"
_OTF_PSNAME "LegacySerifMdITCTTMedium"
ENDPROPERTIES
CHARS 252
STARTCHAR 0020
ENCODING 32
SWIDTH 236 0
DWIDTH 17 0
BBX 0 0 0 0
BITMAP
ENDCHAR
STARTCHAR 0021
ENCODING 33
SWIDTH 347 0
DWIDTH 25 0
BBX 10 48 8 -1
BITMAP
1F80
3FC0
7FC0
7FC0
7FC0
7FC0
7FC0
7F80
7F80
7F80
7F80
7F80
3F00
3F00
3F00
3F00
3F00
3E00
3E00
3E00
3E00
3E00
3E00
3C00
3C00
3C00
1C00
1C00
1C00
1800
1800
1800
1800
1800
1800
0000
0000
0000
0000
1C00
7E00
7F00
FF80
FF80
FF80
7F00
7F00
1C00
ENDCHAR
STARTCHAR 0022
ENCODING 34
SWIDTH 347 0
DWIDTH 25 0
BBX 16 20 5 27
BITMAP
7C3E
FE7F
FE7F
FE7F
FE7F
FC7F
FC7E
FC7E
FC3E
7C3E
7C3E
783E
781C
781C
781C
781C
381C
381C
300C
300C
ENDCHAR
STARTCHAR 0023
ENCODING 35
SWIDTH 500 0
DWIDTH 36 0
BBX 39 47 -2 -1
BITMAP
00007801C0
00007801C0
0000780380
0000780380
0000F00380
0000F00780
0000F00700
0000F00700
0001E00700
0001E00E00
0001E00E00
0003E00E00
0003C00E00
03FFFFFFFE
07FFFFFFFE
07FFFFFFFC
07FFFFFFFC
0FFFFFFFFC
0007807800
000F807800
000F00F800
000F00F000
000F00F000
001E00F000
001E01E000
001E01E000
003E01E000
3FFFFFFFE0
3FFFFFFFE0
7FFFFFFFE0
7FFFFFFFC0
FFFFFFFFC0
0070038000
0070038000
0060078000
00E0078000
00E0070000
00E00F0000
01C00F0000
01C00F0000
01C01E0000
01C01E0000
03801E0000
03801E0000
03801C0000
03803C0000
0600300000
ENDCHAR
STARTCHAR 0024
ENCODING 36
SWIDTH 513 0
DWIDTH 37 0
BBX 31 60 3 -8
BITMAP
00038000
00038000
00038000
00038000
00038000
00038000
00038000
003FFF20
00FFFFF0
03FFFFF0
07FB9FF0
0FC383F0
1F8381F0
3F8380F0
3F038070
7F038070
7F038070
7F038030
7F038000
7F838000
7F838000
7FC38000
3FE38000
3FFB8000
1FFF8000
1FFF8000
0FFFF000
03FFFC00
01FFFF00
007FFFC0
001FFFE0
0003FFF0
0003FFF8
0003BFFC
00038FFC
000383FE
000381FE
000381FE
C00380FE
E00380FE
E00380FE
E00380FE
F00380FE
F00380FC
780381FC
7C0383F8
7F0387F8
7FE3BFF0
7FFFFFE0
7FFFFF80
23FFFE00
00038000
00038000
00038000
00038000
00038000
00038000
00038000
00038000
00038000
ENDCHAR
STARTCHAR 0025
ENCODING 37
SWIDTH 680 0
DWIDTH 49 0
BBX 46 47 2 -1
BITMAP
01FC00003800
07FF00007000
0E1F80007000
1C07C000E000
3C03E000E000
7803F001C000
7801F001C000
F801F0038000
F801F0030000
F801F8070000
F800F80E0000
F800F80E0000
F800F81C0000
F800F81C0000
F800F0380000
F800F0300000
FC01F0700000
7C01E0600000
7E01C0E00000
3F03C0C00000
1F8781C00000
0FFE01800000
03F803800000
00000300FE00
00000603FF80
00000E070FC0
00000C0E03E0
00001C1E01F0
0000183C01F0
0000383C00F8
0000307C00F8
0000707C00F8
0000607C00FC
0000E07C007C
0001C07C007C
0001807C007C
0003807C007C
0003007C0078
0007007C0078
000E007E0078
000E003E00F8
001C003E00F0
001C003F00E0
0038001F81E0
0078000FC380
00700007FF00
00000001FC00
ENDCHAR
STARTCHAR 0026
ENCODING 38
SWIDTH 763 0
DWIDTH 55 0
BBX 51 46 5 -1
BITMAP
0001FC00000000
0007FF80000000
001FFFC0000000
003C3FE0000000
00700FF0000000
00E007F0000000
01E003F0000000
01E003F8000000
03E003F8000000
03E001F8000000
03E001F0000000
03E003F0000000
03F003E0000000
03F803C0000000
03FC0780C01F00
01FF0F00FFFF00
01FFFC00FFFC00
00FFF8000FF000
007FFE0007E000
007FFF0007C000
01FFFFC0078000
03E3FFE0070000
07C0FFF00F0000
0F803FF01E0000
1F000FF81C0000
3F0007FC3C0000
7E0003FC780000
7E0001FE700000
FE0001FEE00000
FE0000FFE00000
FE0000FFC00000
FE00007F800000
FE00003FC00000
FE00003FC00000
FE00001FE000E0
FF00003FF000E0
FF80007FF000C0
FF8001FFF801C0
7FE003F7FC03C0
7FF81FE3FE0780
3FFFFFC3FFFF80
1FFFFF81FFFF00
1FFFFE00FFFE00
07FFFC007FFE00
03FFF0003FF800
007F80000FE000
ENDCHAR
STARTCHAR 0027
ENCODING 39
SWIDTH 347 0
DWIDTH 25 0
BBX 7 20 9 27
BITMAP
3C
7E
FE
FE
FE
7E
7E
7E
7E
7C
7C
3C
3C
3C
3C
38
38
38
38
18
ENDCHAR
STARTCHAR 0028
ENCODING 40
SWIDTH 333 0
DWIDTH 24 0
BBX 19 68 4 -17
BITMAP
0000C0
0001C0
0003C0
000780
000F00
001F00
003E00
007C00
00FC00
00F800
01F800
03F000
03F000
07E000
07E000
0FC000
0FC000
1FC000
1F8000
1F8000
3F8000
3F8000
3F0000
7F0000
7F0000
7F0000
7F0000
7E0000
FE0000
FE0000
FE0000
FE0000
FE0000
FE0000
FE0000
FE0000
FE0000
FE0000
FE0000
FE0000
7E0000
7F0000
7F0000
7F0000
7F0000
3F0000
3F8000
3F8000
1F8000
1F8000
1FC000
0FC000
0FE000
07E000
07E000
03F000
03F000
01F800
00F800
00FC00
007C00
003E00
001F00
000F00
000780
0003C0
0001E0
0000C0
ENDCHAR
STARTCHAR 0029
ENCODING 41
SWIDTH 347 0
DWIDTH 25 0
BBX 19 68 2 -17
BITMAP
600000
F00000
780000
3C0000
3E0000
1F0000
0F8000
0FC000
07E000
03E000
03F000
01F800
01F800
00FC00
00FC00
00FE00
007E00
007F00
003F00
003F00
003F80
003F80
001F80
001FC0
001FC0
001FC0
001FC0
000FC0
000FE0
000FE0
000FE0
000FE0
000FE0
000FE0
000FE0
000FE0
000FE0
000FE0
000FE0
000FE0
000FE0
001FC0
001FC0
001FC0
001FC0
001F80
003F80
003F80
003F00
007F00
007F00
007E00
00FE00
00FC00
00FC00
01F800
01F000
03F000
03E000
07C000
0FC000
0F8000
1F0000
3E0000
3C0000
780000
F00000
400000
ENDCHAR
STARTCHAR 002A
ENCODING 42
SWIDTH 513 0
DWIDTH 37 0
BBX 28 25 5 21
BITMAP
03803800
07C07C00
07C07E00
07E0FC00
07E0F800
03F0F800
01F1F000
00F1E000
0079C000
003B8000
FC1B03E0
FFEE7FF0
FFFFFFF0
FFEE7FF0
FC1B01E0
003B8000
003BC000
0071E000
00F1F000
01E0F800
03E0F800
07E0FC00
07C07E00
07C07C00
03803800
ENDCHAR
STARTCHAR 002B
ENCODING 43
SWIDTH 513 0
DWIDTH 37 0
BBX 30 30 3 8
BITMAP
00078000
00078000
00078000
00078000
00078000
00078000
00078000
00078000
00078000
00078000
00078000
00078000
00078000
FFFFFFFC
FFFFFFFC
FFFFFFFC
FFFFFFFC
00078000
00078000
00078000
00078000
00078000
00078000
00078000
00078000
00078000
00078000
00078000
00078000
00078000
ENDCHAR
STARTCHAR 002C
ENCODING 44
SWIDTH 236 0
DWIDTH 17 0
BBX 14 21 1 -13
BITMAP
03C0
0FE0
0FF0
1FF8
1FF8
0FFC
07FC
01FC
00FC
007C
007C
007C
007C
0078
00F8
01F0
01E0
07C0
1F80
FE00
7800
ENDCHAR
STARTCHAR 002D
ENCODING 45
SWIDTH 291 0
DWIDTH 21 0
BBX 16 6 3 13
BITMAP
FFFF
FFFF
FFFF
FFFF
FFFF
FFFF
ENDCHAR
STARTCHAR 002E
ENCODING 46
SWIDTH 236 0
DWIDTH 17 0
BBX 9 10 4 -1
BITMAP
1C00
3E00
7F00
FF80
FF80
FF80
FF80
7F00
3E00
1C00
ENDCHAR
STARTCHAR 002F
ENCODING 47
SWIDTH 416 0
DWIDTH 30 0
BBX 28 68 0 -17
BITMAP
000001F0
000001E0
000001E0
000001C0
000003C0
000003C0
00000380
00000780
00000780
00000700
00000F00
00000E00
00001E00
00001E00
00001C00
00003C00
00003C00
00003800
00007800
00007800
00007000
0000F000
0000E000
0001E000
0001E000
0001C000
0003C000
0003C000
00038000
00078000
00078000
00070000
000F0000
000F0000
001E0000
001E0000
001C0000
003C0000
003C0000
00380000
00780000
00780000
00700000
00F00000
00F00000
00E00000
01E00000
01E00000
01C00000
03C00000
03C00000
03800000
07800000
07800000
0F000000
0F000000
0E000000
1E000000
1E000000
1C000000
3C000000
3C000000
38000000
78000000
78000000
78000000
F0000000
F0000000
ENDCHAR
STARTCHAR 0030
ENCODING 48
SWIDTH 513 0
DWIDTH 37 0
BBX 31 47 3 -1
BITMAP
000FF000
007FFC00
00FFFF00
03F83F80
03F00FC0
07E007E0
0FC007E0
1F8003F0
1F8003F0
3F8003F8
3F0001F8
3F0001FC
7F0001FC
7F0001FC
7F0001FC
7E0000FE
7E0000FE
FE0000FE
FE0000FE
FE0000FE
FE0000FE
FE0000FE
FE0000FE
FE0000FE
FE0000FE
FE0000FE
FE0000FE
FE0000FE
FE0000FE
FE0000FE
7E0000FE
7F0000FC
7F0000FC
7F0001FC
7F0001FC
3F0001F8
3F0001F8
1F8003F8
1F8003F0
1FC003F0
0FC007E0
07E007E0
07F00FC0
03F83F80
01FFFF00
007FFC00
000FE000
ENDCHAR
STARTCHAR 0031
ENCODING 49
SWIDTH 513 0
DWIDTH 37 0
BBX 25 48 8 -1
BITMAP
00060000
000F0000
003F0000
007F0000
01FF0000
07FF0000
1FFF0000
7FFF0000
7FFF0000
60FF0000
00FF0000
00FF0000
00FF0000
00FF0000
00FF0000
00FF0000
00FF0000
00FF0000
007F0000
007F0000
007F0000
007F0000
007F0000
007F0000
007F0000
007F0000
007F0000
007F0000
007F0000
007F0000
007F0000
00FF0000
00FF0000
00FF0000
00FF0000
00FF0000
00FF0000
00FF0000
00FF0000
00FF0000
00FF0000
00FF0000
01FF0000
01FF0000
07FF8000
FFFFE000
FFFFFF00
FC003F80
ENDCHAR
STARTCHAR 0032
ENCODING 50
SWIDTH 513 0
DWIDTH 37 0
BBX 31 47 3 -1
BITMAP
000FF000
007FFE00
00FFFF00
03FFFF80
07FFFFC0
0FC07FE0
1F001FE0
1E000FF0
3C000FF0
380007F0
380007F0
100007F8
000007F8
000007F0
000007F0
000007F0
000007F0
000007F0
00000FE0
00000FE0
00001FC0
00001FC0
00003F80
00003F00
00007F00
0000FE00
0000FC00
0001F800
0003F000
0007E000
000FC000
000F8000
001F0000
003E0006
007C0006
00F8000E
01F0000E
01E0000C
03C0001C
0780003C
0F0000FC
1FFFFFF8
3FFFFFF8
7FFFFFF8
FFFFFFF8
FFFFFFF8
FFFFFFF0
ENDCHAR
STARTCHAR 0033
ENCODING 51
SWIDTH 513 0
DWIDTH 37 0
BBX 30 47 3 -1
BITMAP
0007F800
003FFE00
00FFFF00
01FFFF80
03FFFFC0
0FC0FFE0
0F003FE0
1C001FE0
1C001FE0
08000FE0
00000FE0
00000FC0
00000FC0
00000F80
00001F00
00001E00
00003C00
00007800
0000E000
0003F800
000FFF00
003FFFC0
00FFFFE0
01FFFFF0
00C07FF8
00001FF8
00000FF8
00000FFC
000007FC
000007FC
000003FC
000003FC
000003FC
000003FC
000003FC
000003F8
000003F8
380003F0
7C0007F0
FE0007E0
FE000FC0
FF001F80
7F803F00
7FC0FE00
3FFFF800
0FFFE000
03FF0000
ENDCHAR
STARTCHAR 0034
ENCODING 52
SWIDTH 513 0
DWIDTH 37 0
BBX 34 47 2 -1
BITMAP
000000E000
000001E000
000003E000
000003E000
000007E000
00000FE000
00001FE000
00001FE000
00003FE000
00007FE000
0000FFE000
0001EFE000
0001CFE000
0003CFE000
00078FE000
000F0FE000
001E0FE000
001C0FE000
003C0FE000
00780FE000
00F00FE000
01E00FE000
01C00FE000
03C00FE000
07800FE000
0F000FE000
1E000FE000
1C000FE000
38000FE000
7FFFFFFFC0
FFFFFFFFC0
FFFFFFFFC0
FFFFFFFFC0
FFFFFFFFC0
00000FE000
00000FE000
00000FE000
00000FE000
00000FE000
00000FE000
00000FE000
00000FE000
00000FE000
00000FE000
00000FE000
00000FE000
00000FE000
ENDCHAR
STARTCHAR 0035
ENCODING 53
SWIDTH 513 0
DWIDTH 37 0
BBX 30 48 3 -1
BITMAP
0000000C
003FFFF8
003FFFF8
007FFFF8
007FFFF0
007FFFF0
007FFFF0
00FFFFE0
00E00000
00E00000
01C00000
01C00000
01C00000
01800000
03800000
03E00000
03FC0000
07FF0000
07FFE000
07FFF000
07FFFC00
07FFFE00
00FFFF80
003FFFC0
0007FFC0
0001FFE0
00007FF0
00003FF0
00001FF0
00000FF8
00000FF8
000007F8
000007F8
000003F8
000003F8
000003F8
000003F0
380003F0
7C0007E0
FC0007E0
FE0007C0
FE000FC0
FF001F80
7F803F00
3FE07C00
1FFFF800
0FFFE000
01FF0000
ENDCHAR
STARTCHAR 0036
ENCODING 54
SWIDTH 513 0
DWIDTH 37 0
BBX 31 48 4 -1
BITMAP
000001F8
00001FFC
00007FFC
0001FC1C
0007F000
000FC000
003F8000
007F0000
00FE0000
01FC0000
03F80000
07F80000
07F00000
0FE00000
1FE00000
1FC00000
3FC00000
3FC00000
7F800000
7F80FC00
7F87FF80
7F0FFFC0
FF1FFFE0
FF383FF0
FF300FF8
FF2007F8
FF0007FC
FF0003FC
FF0003FC
FF0001FC
FF0001FC
FF0001FE
FF0001FE
FF0000FE
FF0000FE
FF0000FC
FF0001FC
7F8001FC
7F8001FC
7F8001F8
3FC003F8
3FC003F0
1FE007E0
0FF00FE0
07FC1F80
03FFFF00
00FFFC00
001FE000
ENDCHAR
STARTCHAR 0037
ENCODING 55
SWIDTH 513 0
DWIDTH 37 0
BBX 32 47 4 -1
BITMAP
7FFFFFFF
7FFFFFFF
7FFFFFFF
7FFFFFFE
7FFFFFFE
7FFFFFFC
FFFFFFFC
F8000078
F0000078
E00000F0
E00001F0
E00001E0
C00003C0
C00003C0
00000780
00000F80
00000F00
00001F00
00001E00
00003E00
00003C00
00007800
0000F800
0000F000
0001F000
0001E000
0003E000
0003C000
0007C000
000F8000
000F0000
001F0000
001E0000
003E0000
007C0000
007C0000
00F80000
00F80000
01F00000
03F00000
03E00000
07E00000
07C00000
0FC00000
1F800000
0F800000
07000000
ENDCHAR
STARTCHAR 0038
ENCODING 56
SWIDTH 513 0
DWIDTH 37 0
BBX 31 47 3 -1
BITMAP
000FF800
007FFF00
01FFFF80
03F83FE0
07E01FE0
0FC00FF0
1FC007F8
1F8007F8
1F8003F8
3F8003F8
3F8003F8
3F8003F8
3F8003F8
3FC003F8
3FC003F0
1FE007F0
1FF007E0
1FFC0FC0
0FFF1F00
07FFFE00
03FFF800
01FFF800
007FFE00
003FFF00
00FFFFC0
01E1FFE0
07C07FF0
0F803FF8
1F000FFC
3F0007FC
7F0003FE
7E0001FE
7E0001FE
FE0000FE
FE0000FE
FE0000FE
FE0000FE
FF0000FE
FF0000FC
7F0001FC
7F8001F8
3FC003F0
3FE007E0
1FF81FC0
07FFFF80
03FFFE00
007FE000
ENDCHAR
STARTCHAR 0039
ENCODING 57
SWIDTH 513 0
DWIDTH 37 0
BBX 30 47 3 -1
BITMAP
000FF000
007FFC00
01FFFF00
03F07F80
07C01FC0
0F800FE0
1F8007F0
3F0007F0
3F0003F8
7F0003F8
7E0003F8
7E0001FC
7E0001FC
FE0001FC
FE0001FC
FF0001FC
FF0001FC
FF0001FC
7F0001FC
7F8001FC
7FC001FC
7FE011FC
3FF031FC
1FFFF1FC
1FFFF1FC
0FFFE1FC
03FF83F8
00FE03F8
000003F8
000003F0
000007F0
000007F0
00000FE0
00000FE0
00001FC0
00001F80
00003F00
00007F00
0000FE00
0001FC00
0003F800
0007E000
001FC000
707F0000
7FFC0000
7FF00000
7F000000
ENDCHAR
STARTCHAR 003A
ENCODING 58
SWIDTH 236 0
DWIDTH 17 0
BBX 9 32 4 -1
BITMAP
1C00
7F00
7F00
FF80
FF80
FF80
7F00
7F00
1C00
0000
0000
0000
0000
0000
0000
0000
0000
0000
0000
0000
0000
0000
0000
1C00
7F00
7F00
FF80
FF80
FF80
7F00
7F00
1C00
ENDCHAR
STARTCHAR 003B
ENCODING 59
SWIDTH 236 0
DWIDTH 17 0
BBX 14 44 1 -13
BITMAP
03C0
07E0
0FF0
1FF0
1FF0
1FF0
0FF0
07E0
03C0
0000
0000
0000
0000
0000
0000
0000
0000
0000
0000
0000
0000
0000
0000
0380
0FE0
0FF0
1FF8
1FF8
0FFC
07FC
01FC
00FC
007C
007C
007C
007C
0078
00F8
00F0
01E0
07C0
1F80
FE00
7800
ENDCHAR
STARTCHAR 003C
ENCODING 60
SWIDTH 513 0
DWIDTH 37 0
BBX 26 32 6 7
BITMAP
000001C0
000003C0
00000FC0
00003F00
00007C00
0001F800
0003E000
000FC000
001F0000
007E0000
01F80000
03F00000
0FC00000
1F800000
7FC00000
FFF00000
7FF80000
3FFE0000
0FFF0000
07FFC000
01FFE000
00FFF800
003FFC00
001FFF00
0007FF80
0003FF80
0000FF80
00007F80
00001F80
00000F80
00000380
00000180
ENDCHAR
STARTCHAR 003D
ENCODING 61
SWIDTH 513 0
DWIDTH 37 0
BBX 31 13 3 16
BITMAP
FFFFFFFE
FFFFFFFE
FFFFFFFE
FFFFFFFE
00000000
00000000
00000000
00000000
00000000
FFFFFFFE
FFFFFFFE
FFFFFFFE
FFFFFFFE
ENDCHAR
STARTCHAR 003E
ENCODING 62
SWIDTH 513 0
DWIDTH 37 0
BBX 25 34 6 6
BITMAP
80000000
C0000000
E0000000
F8000000
FC000000
FF000000
FF800000
FFE00000
FFF00000
7FFC0000
1FFE0000
0FFF8000
03FFC000
01FFF000
007FF800
003FFC00
000FFF00
0007FF80
0003FF80
0000FE00
0000F800
0003F000
0007C000
001F8000
007E0000
00F80000
03F00000
07C00000
1F800000
7E000000
F8000000
F0000000
C0000000
80000000
ENDCHAR
STARTCHAR 003F
ENCODING 63
SWIDTH 402 0
DWIDTH 29 0
BBX 23 47 4 -1
BITMAP
1FC000
7FF800
FFFE00
FFFF00
FFFF80
FFFFC0
7E07E0
7801E0
0000F0
000078
000038
00003C
00003C
00003E
00003E
00007E
0000FE
0001FE
0007FE
001FFC
007FFC
01FFF8
07FFF0
0FFFC0
0FFF80
0FFC00
0FF000
0FC000
0F0000
0E0000
0E0000
0E0000
060000
060000
000000
000000
000000
000000
070000
0FC000
1FE000
3FE000
3FE000
3FE000
1FE000
0FC000
070000
ENDCHAR
STARTCHAR 0040
ENCODING 64
SWIDTH 763 0
DWIDTH 55 0
BBX 49 47 3 -1
BITMAP
000003FF800000
00003FFFF80000
0001FFFFFE0000
0007FE01FF8000
000FE0003FC000
003FC0000FE000
007F000007F000
00FE000003F800
01FC000001FC00
03F80000C0FE00
07F00001E0FE00
0FE00007E07F00
0FE0001FE07F00
1FC0007FE07F00
1F8001FFE03F80
3F8003FFE03F80
3F8007C7C03F80
7F000F07C03F80
7F001E07C03F80
7F003C07C03F80
7E007807C03F80
FE00780F803F80
FE00F00F803F80
FE00F01F803F00
FE01F01F807F00
FE01E03F807F00
FE03E03F807E00
FE03E07F00FE00
FE03E06F00FC00
FE03E0FF01F800
FE03F3DF03F000
7F03FF9F07E000
7F03FF9F0FC000
7F01FF1FFF0000
3F80FE0FFC0000
3F807807E00000
1FC00000000000
1FE00000000000
0FE00000000000
07F00000000000
03FC0000000000
01FE0000000000
00FF8000180000
003FF001F80000
001FFFFFF00000
0003FFFFC00000
00003FFC000000
ENDCHAR
STARTCHAR 0041
ENCODING 65
SWIDTH 666 0
DWIDTH 48 0
BBX 48 47 0 -1
BITMAP
000001F00000
000003F00000
000003F00000
000007F80000
000007F80000
00000FF80000
00000FFC0000
00000FFC0000
00001FFC0000
00001CFE0000
00003CFE0000
000038FE0000
0000387F0000
0000787F0000
0000707F8000
0000F03F8000
0000E03F8000
0001E01FC000
0001C01FC000
0003C01FE000
0003C00FE000
0003800FE000
0007800FF000
00070007F000
000F0007F000
000E0003F800
001E0003F800
001FFFFFFC00
003FFFFFFC00
003FFFFFFC00
00380001FE00
00780001FE00
00780000FF00
00F00000FF00
00F00000FF00
01F000007F80
01E000007F80
03E000007FC0
03E000003FC0
07C000003FE0
07C000003FE0
0FC000003FF0
0FC000001FF0
1FC000003FF8
7FF000007FFE
FFFF0003FFFF
FFFF0003FFFF
ENDCHAR
STARTCHAR 0042
ENCODING 66
SWIDTH 638 0
DWIDTH 46 0
BBX 39 47 3 -1
BITMAP
FFFFFFE000
FFFFFFFC00
0FFFFFFF00
07F801FF80
07F8007FC0
03F8003FE0
03F8001FE0
03F8001FF0
03F8000FF0
03F8000FF0
03F8000FF0
03F8000FF0
03F8000FF0
03F8000FF0
03F8000FE0
03F8001FE0
03F8001FC0
03F8003F80
03F8007F00
03F801FC00
03FFFFE000
03FFFFF800
03FFFFFF00
03F803FFC0
03F8007FE0
03F8001FF0
03F8000FF8
03F8000FFC
03F80007FC
03F80007FC
03F80003FE
03F80003FE
03F80003FE
03F80003FE
03F80003FE
03F80003FE
03F80003FE
03F80003FC
03F80007FC
03F80007F8
03F8000FF8
07F8000FF0
07FC001FE0
07FC007FC0
1FFE01FF00
FFFFFFFC00
FFE0FFC000
ENDCHAR
STARTCHAR 0043
ENCODING 67
SWIDTH 680 0
DWIDTH 49 0
BBX 42 47 4 -1
BITMAP
00000FFFFDC0
0000FFFFFFC0
0007FFFFFFC0
001FF801FF80
007FC0003F80
00FF00000F80
01FE00000780
03FC00000780
07F800000780
0FF000000380
1FE000000380
1FE000000380
3FC000000380
3FC000000000
7FC000000000
7F8000000000
FF8000000000
FF8000000000
FF8000000000
FF8000000000
FF8000000000
FF8000000000
FF8000000000
FF8000000000
FF8000000000
FF8000000000
FF8000000000
FF8000000000
FF8000000000
FF8000000000
FF8000000000
FFC000000000
7FC000000000
7FC000000000
3FE000000000
3FE000000000
1FF0000001C0
1FF8000001C0
0FFC00000380
07FC00000780
03FF00000F80
01FF80001F00
00FFE0007F00
003FFC03FF00
000FFFFFFF00
0001FFFFFC00
00001FFF8000
ENDCHAR
STARTCHAR 0044
ENCODING 68
SWIDTH 791 0
DWIDTH 57 0
BBX 50 47 3 -1
BITMAP
FFFFFFFE000000
FFFFFFFFE00000
0FFFFFFFFC0000
07FF001FFF0000
07FC0003FF8000
03FC0000FFC000
03F800003FF000
03F800001FF800
03F800000FF800
03F8000007FC00
03F8000003FE00
03F8000003FE00
03F8000001FF00
03F8000001FF00
03F8000000FF80
03F8000000FF80
03F8000000FF80
03F8000000FF80
03F80000007FC0
03F80000007FC0
03F80000007FC0
03F80000007FC0
03F80000007FC0
03F80000007FC0
03F80000007FC0
03F80000007FC0
03F80000007FC0
03F80000007FC0
03F8000000FF80
03F8000000FF80
03F8000000FF80
03F8000000FF00
03F8000001FF00
03F8000001FF00
03F8000003FE00
03F8000003FE00
03F8000007FC00
03F800000FF800
03F800001FF000
03F800003FE000
03F800007FC000
07FC0000FF8000
07FE0007FF0000
0FFF803FFC0000
3FFFFFFFF00000
FFFFFFFFC00000
FC00FFF8000000
ENDCHAR
STARTCHAR 0045
ENCODING 69
SWIDTH 597 0
DWIDTH 43 0
BBX 38 47 3 -1
BITMAP
FFFFFFFFF0
FFFFFFFFF0
0FFFFFFFF0
07FC000FF0
07F80001F0
07F80001F0
07F80000F0
07F80000F0
07F80000F0
07F80000F0
07F8000070
03F8000060
03F8000000
03F8000000
03F8000000
03F8000300
03F8000700
03F8000700
03F8000700
03F8000F00
03F800FF00
03FFFFFF00
03FFFFFF00
03FFFFFF00
03F8001F00
03F8000F00
03F8000700
03F8000700
03F8000700
03F8000300
03F8000000
03F8000000
03F8000000
03F8000008
03F800001C
03F800001C
03F800003C
03F8000038
03FC000078
03FC000078
03FC0000F8
07FC0003F0
07FF807FF0
07FFFFFFF0
1FFFFFFFF0
FFFFFFFFE0
FF00007FE0
ENDCHAR
STARTCHAR 0046
ENCODING 70
SWIDTH 555 0
DWIDTH 40 0
BBX 37 47 2 -1
BITMAP
7FFFFFFFF8
FFFFFFFFF8
0FFFFFFFF8
07FC001FF8
03F80001F0
03F80000F0
03F80000F0
03F8000070
03F8000070
03F8000070
03F8000070
03F8000070
03F8000000
03F8000000
03F8000000
03F8000300
03F8000300
03F8000700
03F8000700
03F8000F00
03F8001F00
03FFFFFF00
03FFFFFF00
03FFFFFF00
03FC003F00
03FC000700
03FC000300
03FC000300
03FC000300
03FC000300
03FC000000
03FC000000
03FC000000
03FC000000
03FC000000
03FC000000
03FC000000
03FC000000
03FE000000
03FE000000
03FE000000
07FE000000
07FE000000
0FFF000000
3FFF800000
FFFFFC0000
FFFFFC0000
ENDCHAR
STARTCHAR 0047
ENCODING 71
SWIDTH 736 0
DWIDTH 53 0
BBX 48 47 4 -1
BITMAP
000003FFFFC0
00003FFFFFC0
0001FFFFFFC0
000FFC00FFC0
003FE0000FC0
007F800007C0
01FE000003C0
03FC000001C0
07F8000001C0
07F0000000C0
0FF0000000C0
1FE0000000C0
1FE000000000
3FC000000000
3FC000000000
7F8000000000
7F8000000000
FF8000000000
FF8000000000
FF8000000000
FF8000000000
FF8000000000
FF8000000000
FF80000FFFFF
FF80000FFFFE
FF8000007FFC
FF8000000FF0
FF8000000FF0
FF8000000FF0
FF8000000FF0
FF8000000FF0
FFC000000FF0
7FC000000FF0
7FC0000007F0
3FE0000007F0
3FE000000FF0
1FF000000FF0
1FF800000FF0
0FFC00000FF0
07FE00000FF0
03FF00000FF0
01FF80000FF0
00FFE0001FF0
003FFE007FF0
000FFFFFFFF0
0001FFFFFF80
00001FFFC000
ENDCHAR
STARTCHAR 0048
ENCODING 72
SWIDTH 791 0
DWIDTH 57 0
BBX 53 47 2 -1
BITMAP
7FFFF800FFFFF8
7FFFF800FFFFF8
07FFE0001FFFE0
03FF000003FF00
01FE000003FE00
01FE000003FE00
01FE000001FE00
01FE000001FE00
01FE000001FE00
01FC000001FE00
01FC000001FC00
01FC000001FC00
01FC000001FC00
01FC000001FC00
01FC000001FC00
01FC000001FC00
01FC000001FC00
01FC000001FC00
01FC000001FC00
01FC000001FC00
01FC000001FC00
01FFFFFFFFFC00
01FFFFFFFFFC00
01FFFFFFFFFC00
01FC000001FC00
01FC000001FC00
01FC000001FC00
01FC000001FC00
01FC000001FC00
01FC000001FC00
01FC000001FC00
01FC000001FC00
01FC000001FC00
01FC000001FC00
01FC000001FC00
01FC000001FC00
01FC000001FC00
01FC000001FC00
01FE000001FE00
01FE000003FE00
01FE000003FE00
01FE000003FE00
03FE000003FE00
03FF000007FF00
0FFF80001FFF80
FFFFF800FFFFF8
FFFFF800FFFFF8
ENDCHAR
STARTCHAR 0049
ENCODING 73
SWIDTH 347 0
DWIDTH 25 0
BBX 21 47 2 -1
BITMAP
7FFFF8
FFFFF8
07FF80
03FF00
01FE00
01FE00
01FE00
01FE00
01FC00
01FC00
01FC00
01FC00
01FC00
01FC00
01FC00
01FC00
01FC00
01FC00
01FC00
01FC00
01FC00
01FC00
01FC00
01FC00
01FC00
01FC00
01FC00
01FC00
01FC00
01FC00
01FC00
01FC00
01FC00
01FC00
01FC00
01FC00
01FE00
01FE00
01FE00
01FE00
01FE00
01FE00
03FE00
03FF00
0FFF80
FFFFF8
7FFFF8
ENDCHAR
STARTCHAR 004A
ENCODING 74
SWIDTH 333 0
DWIDTH 24 0
BBX 30 60 -6 -14
BITMAP
007FFFFC
007FFFFC
000FFFC0
0001FF00
0001FF00
0000FF00
0000FE00
0000FE00
0000FE00
0000FE00
0000FE00
0000FE00
0000FE00
0000FE00
0000FE00
0000FE00
0000FE00
0000FE00
0000FE00
0000FE00
0000FE00
0000FE00
0000FE00
0000FE00
0000FE00
0000FE00
0000FE00
0000FE00
0000FE00
0000FE00
0000FE00
0000FE00
0000FE00
0000FE00
0000FE00
0000FE00
0000FE00
0000FE00
0000FE00
0000FE00
0000FE00
0000FE00
0000FE00
0000FC00
0000FC00
0000FC00
0000FC00
0000F800
0001F800
0001F800
0001F000
0001E000
0003E000
3C03C000
7F0F8000
FFFF0000
FFFE0000
FFF80000
7FE00000
3F800000
ENDCHAR
STARTCHAR 004B
ENCODING 75
SWIDTH 680 0
DWIDTH 49 0
BBX 47 47 3 -1
BITMAP
FFFFE03E7FF8
FFFFE03FFFF8
1FFF8007FFE0
07FC0001FF80
07FC0001FF00
07FC0001FE00
03F80003FC00
03F80007F000
03F8000FE000
03F8001FC000
03F8003F8000
03F8007F0000
03F800FC0000
03F801F80000
03F803F00000
03F807E00000
03F80F800000
03F81F000000
03F87E000000
03F8FE000000
03F9FE000000
03FBFF000000
03FFFF800000
03FFFFC00000
03FE7FE00000
03FC3FF00000
03F81FF00000
03F81FF80000
03F80FFC0000
03F807FE0000
03F803FF0000
03F801FF8000
03F800FF8000
03F800FFC000
03F8007FE000
03F8003FF000
03F8001FF800
03F8000FFC00
03F80007FE00
03F80007FF00
03F80003FF00
03F80001FF80
07F80000FFC0
07FC0000FFE0
3FFF0001FFF8
FFFFE01FFFFE
FFFFE01FFFFE
ENDCHAR
STARTCHAR 004C
ENCODING 76
SWIDTH 555 0
DWIDTH 40 0
BBX 38 47 2 -1
BITMAP
7FFFF80000
7FFFF80000
07FFC00000
03FF000000
01FE000000
01FE000000
01FE000000
01FE000000
01FC000000
01FC000000
01FC000000
01FC000000
01FC000000
01FC000000
01FC000000
01FC000000
01FC000000
01FC000000
01FC000000
01FC000000
01FC000000
01FC000000
01FC000000
01FC000000
01FC000000
01FC000000
01FC000000
01FC000000
01FC000000
01FC000000
01FC000000
01FC000000
01FC000000
01FC00000C
01FC00001C
01FC00001C
01FC00001C
01FC00003C
01FC00003C
01FC000078
01FC000078
01FE0001F8
03FE000FF8
07FFFFFFF0
1FFFFFFFF0
FFFFFFFFF0
FFC00000F0
ENDCHAR
STARTCHAR 004D
ENCODING 77
SWIDTH 930 0
DWIDTH 67 0
BBX 64 47 1 -1
BITMAP
3FFF000000003FFE
3FFF000000007FFE
03FF800000007FF8
00FF800000007FC0
00FFC0000000FF80
007FC0000000FF80
007FC0000001FF80
007FE0000001FF80
007FE0000001FF80
007FF0000003FF80
007FF0000003FF80
0077F8000007BF80
0077F8000007BF80
0073FC00000F3F80
0073FC00000F3F80
0073FE00001E3F80
00F1FE00001E3F80
00F1FF00003C3F80
00F0FF00003C3F80
00F0FF8000783F80
00F07F8000783F80
00F07FC000F03F80
00F03FC000F03F80
00F03FE001E03F80
00F01FE003E03F80
00F01FF003C03F80
00F00FF007C03F80
00F00FF807803F80
00F007F80F003F80
00F007FC0F003F80
01F003FC1E003F80
01F003FE1E003F80
01F001FE3C003F80
01F001FF3C003F80
01F000FF78003F80
01F000FFF8003F80
01F0007FF0003F80
01F0007FF0003F80
01F0003FE0003F80
03F0003FE0003F80
03F0001FE0003F80
03F8001FC0007FC0
03F8000FC0007FC0
07FC000F80007FE0
1FFF000F8001FFF8
FFFFF004001FFFFF
FFFFF000001FFFFF
ENDCHAR
STARTCHAR 004E
ENCODING 78
SWIDTH 777 0
DWIDTH 56 0
BBX 55 47 1 -1
BITMAP
7FFC00001FFFFE
FFFC00001FFFFE
3FFE000001FFE0
07FF0000007FC0
01FF8000003F80
01FF8000003F00
01FFC000001F00
00FFE000001F00
00FFF000001F00
00FFF800001F00
00FFFC00001F00
00F7FE00001F00
00F3FF00001E00
00F1FF80001E00
00F0FFC0001E00
00F0FFE0001E00
00F07FF0001E00
00F03FF0001E00
00F01FF8001E00
00F00FFC001E00
00F007FE001E00
00F003FF001E00
00F001FF801E00
00F000FFC01E00
00F0007FE01E00
00F0003FF01E00
00F0001FF81E00
00F0000FFC1E00
00F00007FE1E00
01F00007FF1E00
01F00003FF1E00
01F00001FF9E00
01F00000FFDE00
01F000007FFE00
01F000003FFE00
01F000001FFE00
01F000000FFE00
01F0000007FE00
01F0000003FE00
03F0000003FE00
03F0000001FE00
03F0000000FE00
07F80000007E00
0FF80000003E00
3FFE0000001E00
FFFFF000001E00
E003F000000C00
ENDCHAR
STARTCHAR 004F
ENCODING 79
SWIDTH 791 0
DWIDTH 57 0
BBX 50 47 4 -1
BITMAP
00000FFE000000
0000FFFFE00000
0007FFFFF80000
001FE01FFE0000
003F8003FF0000
00FE0000FFC000
01FC00007FE000
03F800003FF000
07F000001FF800
0FF000000FF800
1FE0000007FC00
1FC0000007FE00
3FC0000003FE00
3FC0000003FF00
7F80000001FF00
7F80000001FF00
FF80000001FF80
FF80000000FF80
FF80000000FF80
FF80000000FF80
FF80000000FF80
FF80000000FF80
FF80000000FFC0
FF80000000FFC0
FF80000000FFC0
FF800000007F80
FF80000000FF80
FF80000000FF80
FF80000000FF80
FF80000000FF80
FFC0000000FF00
7FC0000000FF00
7FC0000000FF00
7FE0000001FE00
3FE0000001FE00
3FF0000001FC00
1FF0000003FC00
0FF8000003F800
0FFC000007F000
07FE00000FE000
03FF00001FC000
01FF80003F8000
007FE000FF0000
003FFC03FC0000
000FFFFFF00000
0003FFFFC00000
00003FFC000000
ENDCHAR
STARTCHAR 0050
ENCODING 80
SWIDTH 569 0
DWIDTH 41 0
BBX 38 47 2 -1
BITMAP
FFFFFFC000
FFFFFFFC00
0FFC03FF00
07F8007F80
03F8003FC0
03F8001FE0
03F8000FF0
03F80007F8
03F80007F8
03F80007F8
03F80003FC
03F80003FC
03F80003FC
03F80003FC
03F80003FC
03F80003FC
03F80003FC
03F80007F8
03F80007F8
03F8000FF8
03F8000FF0
03F8001FE0
03F8003FC0
03F800FF80
03F807FF00
03FBFFFC00
03FFFFF000
03FFFF0000
03F8000000
03F8000000
03F8000000
03F8000000
03F8000000
03F8000000
03F8000000
03F8000000
03F8000000
03F8000000
03F8000000
07F8000000
07F8000000
07FC000000
07FC000000
0FFC000000
3FFE000000
FFFFF80000
FFFFF80000
ENDCHAR
STARTCHAR 0051
ENCODING 81
SWIDTH 791 0
DWIDTH 57 0
BBX 55 60 4 -14
BITMAP
00001FFE000000
0000FFFFC00000
0007FFFFF80000
001FE01FFE0000
003F8003FF0000
00FE0000FFC000
01FC00007FE000
03F800003FF000
07F000001FF800
0FE000000FF800
1FE0000007FC00
1FC0000007FE00
3FC0000003FE00
3FC0000003FF00
7F80000001FF00
7F80000001FF00
FF80000001FF80
FF80000000FF80
FF80000000FF80
FF80000000FF80
FF80000000FF80
FF80000000FF80
FF80000000FFC0
FF80000000FFC0
FF800000007F80
FF800000007F80
FF80000000FF80
FF80000000FF80
FF80000000FF80
FF80000000FF80
FFC0000000FF00
7FC0000000FF00
7FC0000000FF00
7FE0000001FE00
3FE0000001FE00
3FF0000003FC00
1FF8000003FC00
0FF8000007F800
07FC000007F000
07FE00000FE000
03FF00001FC000
00FFC0007F8000
007FF001FE0000
003FFFBFFC0000
000FFFFFF00000
0001FFFF800000
00000FFF000000
000000FF800000
0000007FC00000
0000003FE00000
0000001FF80000
0000000FFC0000
00000007FE0000
00000003FF8000
00000001FFC000
000000007FF000
000000003FFE00
000000000FFFFE
0000000003FFFC
00000000003FC0
ENDCHAR
STARTCHAR 0052
ENCODING 82
SWIDTH 666 0
DWIDTH 48 0
BBX 47 47 3 -1
BITMAP
FFFFFFE00000
FFFFFFFC0000
0FFFFFFF0000
07F807FF8000
07F800FFC000
07F8007FE000
07F8003FE000
07F8003FF000
07F8001FF000
07F8001FF000
07F8001FF000
07F8001FF800
07F8001FF800
07F8001FF000
07F8001FF000
07F8001FF000
07F8001FF000
07F8001FF000
03F8001FE000
03F8003FC000
03F8007FC000
03F800FF8000
03F807FE0000
03FFFFFC0000
03FFFFF00000
03FFFFF00000
03F80FF80000
03F80FF80000
03F807FC0000
03F807FC0000
03F803FE0000
03F803FF0000
03F801FF0000
03F800FF8000
03F800FF8000
03F8007FC000
03F8007FE000
03F8003FF000
03F8001FF800
07F8000FFC00
07F80007FE00
07F80003FF00
07F80001FF80
0FFC0000FFE0
7FFE00007FFE
FFFFF0001FFE
FFFFF00003FC
ENDCHAR
STARTCHAR 0053
ENCODING 83
SWIDTH 555 0
DWIDTH 40 0
BBX 33 47 3 -1
BITMAP
0007FFFE00
003FFFFE00
00FFFFFE00
03FC07FE00
07F000FE00
0FE0007E00
0FC0003E00
1FC0001E00
1F80001E00
3F80000E00
3F80000E00
3F80000600
3F80000000
3FC0000000
3FC0000000
3FE0000000
1FF0000000
1FFC000000
0FFF000000
0FFFC00000
07FFF80000
03FFFE0000
00FFFF8000
003FFFC000
000FFFF000
0003FFF800
0000FFFC00
00003FFE00
00000FFF00
000003FF00
000000FF80
0000007F80
0000007F80
E000003F80
E000003F80
E000003F80
F000003F80
F000003F80
F800003F00
F800007F00
FC00007E00
7E0000FE00
7F8003FC00
7FF00FF800
7FFFFFE000
7FFFFF8000
603FFC0000
ENDCHAR
STARTCHAR 0054
ENCODING 84
SWIDTH 652 0
DWIDTH 47 0
BBX 47 47 0 -1
BITMAP
3F00000001FE
3FFFFFFFFFFE
3FFFFFFFFFFC
3FFFFFFFFFFC
7FFF1FE00FFC
7E001FE0007C
78001FE0007C
70001FE00078
70001FE00038
70001FC00038
E0001FC00030
E0001FC00030
00001FC00000
00001FC00000
00001FC00000
00001FC00000
00001FC00000
00001FC00000
00001FC00000
00001FC00000
00001FC00000
00001FC00000
00001FC00000
00001FC00000
00001FC00000
00001FC00000
00001FC00000
00001FC00000
00001FE00000
00001FE00000
00001FE00000
00001FE00000
00001FE00000
00001FE00000
00001FE00000
00001FE00000
00001FE00000
00001FE00000
00001FE00000
00001FE00000
00001FE00000
00001FF00000
00003FF00000
00007FF00000
0007FFFC0000
001FFFFFC000
000F8007C000
ENDCHAR
STARTCHAR 0055
ENCODING 85
SWIDTH 722 0
DWIDTH 52 0
BBX 51 47 1 -1
BITMAP
FFFFF8007FFFE0
FFFFF8007FFFE0
1FFFE00007FF00
07FE000001FE00
07FC000001FC00
07FC000000FC00
03FC000000FC00
03FC000000FC00
03FC000000F800
03F8000000F800
03F8000000F800
03F8000000F800
03F8000000F800
03F8000000F800
03F8000000F800
03F8000000F800
03F8000000F800
03F8000000F800
03F8000000F800
03F8000000F800
03F8000000F800
03F8000000F800
03F8000000F800
03F8000000F800
03F8000000F800
03F8000000F800
03F8000000F800
03F8000000F800
03F8000000F800
03F8000000F800
03F8000000F800
03FC000000F800
03FC000000F800
03FC000000F000
01FC000001F000
01FC000001F000
01FE000001F000
01FE000003E000
00FF000007E000
00FF80000FC000
007FE0003F8000
007FFC01FF0000
003FFFFFFE0000
000FFFFFFC0000
0007FFFFF00000
0001FFFFC00000
00001FFE000000
ENDCHAR
STARTCHAR 0056
ENCODING 86
SWIDTH 652 0
DWIDTH 47 0
BBX 47 47 0 -1
BITMAP
FFFFC001FFFE
FFFFC001FFFE
3FFE00001FFC
1FFC000003F8
0FFC000003F0
07FC000003E0
07FC000003E0
03FC000007C0
03FC000007C0
03FE00000780
01FE00000F80
01FE00000F80
00FF00000F00
00FF00001F00
00FF00001E00
007F80003E00
007F80003C00
003F80007C00
003FC0007800
003FC0007800
001FC000F000
001FE000F000
000FE001E000
000FE001E000
000FF003C000
0007F003C000
0007F8078000
0003F8078000
0003F8070000
0003FC0F0000
0001FC0E0000
0001FC1E0000
0001FE1E0000
0000FE3C0000
0000FE3C0000
00007F780000
00007F780000
00007FF00000
00003FF00000
00003FE00000
00003FE00000
00001FE00000
00001FC00000
00001FC00000
00000FC00000
00000F800000
00000E000000
ENDCHAR
STARTCHAR 0057
ENCODING 87
SWIDTH 944 0
DWIDTH 68 0
BBX 68 47 1 -1
BITMAP
FFFF87FFFFFF87FFF0
FFFF87FFFFFF87FFF0
7FF803FF80FF00FFE0
1FF801FF007E003F80
1FF800FF007C001F80
0FF800FF8078001F00
0FF8007F80F8001E00
07F8007F80F0003E00
07FC003FC0F0003C00
03FC003FC1E0003C00
03FC001FC1E0007800
01FE001FE3C0007800
01FE001FE38000F000
00FE000FE38000F000
00FF000FF70001E000
00FF0007F70001E000
007F8007FE0001C000
007F8007FE0003C000
003F8003FC00038000
003FC003FC00078000
003FC001FC00070000
001FE001FE000F0000
001FE001FE000E0000
000FE000FE001E0000
000FF001FF001C0000
000FF001FF003C0000
0007F803FF80380000
0007F803FF80380000
0003F807BF80700000
0003FC073FC0700000
0003FC061FC0E00000
0001FE0E1FE0E00000
0001FE0C1FE1C00000
0001FE1C0FE1C00000
0000FF1C0FF3C00000
0000FF380FF3800000
00007FB807FB800000
00007FF007FF000000
00007FF003FF000000
00003FE003FE000000
00003FE003FE000000
00003FC001FE000000
00001FC001FC000000
00001FC001FC000000
00001F8001F8000000
00000F8000F8000000
00000F0000F0000000
ENDCHAR
STARTCHAR 0058
ENCODING 88
SWIDTH 680 0
DWIDTH 49 0
BBX 47 47 1 -1
BITMAP
3FFFF801FFFE
3FFFF801FFFE
0FFFE0003FFC
03FF80000FF0
03FF80000FE0
01FF80001FC0
00FFC0001F80
007FC0003F00
003FE0003E00
003FE0007C00
001FF000F800
000FF801F000
000FFC01E000
0007FC03C000
0003FE078000
0001FF0F8000
0001FF1F0000
0000FF9E0000
00007FFC0000
00007FF80000
00003FF00000
00001FF00000
00001FF00000
00000FF80000
00000FFC0000
00001FFC0000
00003FFE0000
000079FF0000
000078FF0000
0000F0FF8000
0001E07FC000
0003C03FE000
0007C03FE000
000F801FF000
001F000FF800
003E000FF800
003E0007FC00
007C0007FE00
00F80003FE00
01F80001FF00
03F00001FF80
07F00000FFC0
0FF00000FFE0
1FF80000FFF0
7FFC0001FFF8
FFFFC01FFFFE
E007C01FFFFE
ENDCHAR
STARTCHAR 0059
ENCODING 89
SWIDTH 611 0
DWIDTH 44 0
BBX 45 47 0 -1
BITMAP
FFFFC007FFF8
FFFFC007FFF8
7FFC0000FFE0
1FF800003F80
1FF800003F00
0FFC00003E00
07FC00003E00
07FE00007C00
03FE00007800
01FF0000F000
01FF0001E000
00FF8001E000
007F8003C000
007FC0038000
003FC0078000
001FE00F0000
001FF00E0000
000FF01C0000
0007F81C0000
0007F8380000
0003FC700000
0003FE700000
0001FFE00000
0000FFC00000
0000FFC00000
00007F800000
00007F800000
00007F800000
00003F800000
00003F800000
00003F800000
00003F800000
00003F800000
00003F800000
00003F800000
00003F800000
00003F800000
00007F800000
00007F800000
00007F800000
00007F800000
00007F800000
00007F800000
0000FFC00000
0007FFF00000
001FFFFF0000
001FFFFF0000
ENDCHAR
STARTCHAR 005A
ENCODING 90
SWIDTH 625 0
DWIDTH 45 0
BBX 41 47 2 -1
BITMAP
07FFFFFFFF80
0FFFFFFFFF80
0FFFFFFFFF00
0FFFFFFFFE00
0FF00007FE00
1F800007FC00
1F00000FF800
1E00001FF000
1C00001FE000
1C00003FC000
3C00007FC000
3800007F8000
380000FF0000
000001FE0000
000003FE0000
000003FC0000
000007F80000
00000FF00000
00000FE00000
00001FE00000
00003FC00000
00007F800000
00007F000000
0000FF000000
0001FE000000
0001FC000000
0003FC000000
0007F8000000
000FF0000000
000FE0000000
001FE0000000
003FC0000000
007F80000000
007F00000180
00FF00000380
01FE00000380
03FC00000780
03FC00000780
07F800000F80
0FF000001F80
1FF000007F00
1FE00007FF00
3FFFFFFFFF00
7FFFFFFFFE00
FFFFFFFFFE00
FFFFFFFFFE00
F00000000C00
ENDCHAR
STARTCHAR 005B
ENCODING 91
SWIDTH 333 0
DWIDTH 24 0
BBX 16 68 7 -17
BITMAP
FFFF
FFFE
FE00
FE00
FE00
FE00
FE00
FE00
FE00
FE00
FE00
FE00
FE00
FE00
FE00
FE00
FE00
FE00
FE00
FE00
FE00
FE00
FE00
FE00
FE00
FE00
FE00
FE00
FE00
FE00
FE00
FE00
FE00
FE00
FE00
FE00
FE00
FE00
FE00
FE00
FE00
FE00
FE00
FE00
FE00
FE00
FE00
FE00
FE00
FE00
FE00
FE00
FE00
FE00
FE00
FE00
FE00
FE00
FE00
FE00
FE00
FE00
FE00
FE00
FF00
FFFE
FFFF
F006
ENDCHAR
STARTCHAR 005C
ENCODING 92
SWIDTH 402 0
DWIDTH 29 0
BBX 28 68 1 -17
BITMAP
F0000000
78000000
78000000
78000000
3C000000
3C000000
3C000000
1E000000
1E000000
0E000000
0F000000
0F000000
07000000
07800000
07800000
03800000
03C00000
03C00000
01C00000
01E00000
00E00000
00F00000
00F00000
00700000
00780000
00780000
00380000
003C0000
003C0000
001E0000
001E0000
000E0000
000F0000
000F0000
00070000
00078000
00078000
00038000
0003C000
0003C000
0001C000
0001E000
0001E000
0000F000
0000F000
0000F000
00007800
00007800
00003800
00003C00
00003C00
00001C00
00001E00
00001E00
00000E00
00000F00
00000F00
00000780
00000780
00000780
000003C0
000003C0
000003C0
000001E0
000001E0
000001E0
000000F0
000000F0
ENDCHAR
STARTCHAR 005D
ENCODING 93
SWIDTH 347 0
DWIDTH 25 0
BBX 16 68 2 -17
BITMAP
FFFF
FFFF
007F
007F
007F
007F
007F
007F
007F
007F
007F
007F
007F
007F
007F
007F
007F
007F
007F
007F
007F
007F
007F
007F
007F
007F
007F
007F
007F
007F
007F
007F
007F
007F
007F
007F
007F
007F
007F
007F
007F
007F
007F
007F
007F
007F
007F
007F
007F
007F
007F
007F
007F
007F
007F
007F
007F
007F
007F
007F
007F
007F
007F
007F
007F
00FF
FFFF
FFFF
ENDCHAR
STARTCHAR 005E
ENCODING 94
SWIDTH 472 0
DWIDTH 34 0
BBX 38 29 -2 18
BITMAP
0000100000
0000380000
00003C0000
00007C0000
0000FE0000
0000FE0000
0001FF0000
0003FF8000
0003FF8000
0007FFC000
000FF9E000
000FF0E000
001FF0F000
003FE07000
003FC07800
007FC03C00
00FF801C00
00FF001E00
01FF000F00
03FE000700
03FC000780
07FC000380
0FF80003C0
0FF00001E0
1FF00000E0
3FE00000F0
3FC0000078
7FC0000038
FF8000003C
ENDCHAR
STARTCHAR 005F
ENCODING 95
SWIDTH 472 0
DWIDTH 34 0
BBX 34 4 0 -12
BITMAP
FFFFFFFFC0
FFFFFFFFC0
FFFFFFFFC0
FFFFFFFFC0
ENDCHAR
STARTCHAR 0060
ENCODING 96
SWIDTH 500 0
DWIDTH 36 0
BBX 15 12 8 35
BITMAP
1E00
FE00
FF00
7F80
3FC0
0FC0
07E0
01F0
00F8
0078
001C
000E
ENDCHAR
STARTCHAR 0061
ENCODING 97
SWIDTH 486 0
DWIDTH 35 0
BBX 33 32 3 -1
BITMAP
000FF00000
007FFC0000
01FFFE0000
07FFFF0000
0FFFFF8000
1F80FF8000
3F007F8000
7F007F8000
7F003F8000
7C003F8000
00003F8000
00003F8000
00003F8000
00003F8000
00003F8000
00003F8000
000FFF8000
01FFFF8000
0FF07F8000
3FC03F8000
7F003F8000
FE003F8000
FE003F8000
FE003F8000
FE003F8000
FF007F8080
FF81FFC780
FFFFFFFF00
7FFFFFFF00
7FFFBFFC00
3FFC1FF000
0FE00F8000
ENDCHAR
STARTCHAR 0062
ENCODING 98
SWIDTH 555 0
DWIDTH 40 0
BBX 37 52 0 -1
BITMAP
001C000000
03FC000000
3FFC000000
FFF8000000
FFF8000000
1FF8000000
0FF8000000
0FF8000000
07F8000000
07F0000000
07F0000000
07F0000000
07F0000000
07F0000000
07F0000000
07F0000000
07F0000000
07F0000000
07F0000000
07F0000000
07F01FF000
07F0FFFC00
07F7FFFF00
07FF03FF80
07F0007FC0
07F0003FE0
07F0001FE0
07F0000FF0
07F0000FF0
07F00007F0
07F00007F8
07F00007F8
07F00003F8
07F00003F8
07F00003F8
07F00003F8
07F00003F8
07F00003F8
07F00003F0
07F00003F0
07F00003F0
07F00007E0
07F00007E0
07F00007C0
07F0000FC0
07F8001F80
07F8001F00
07FC007E00
07FF01F800
07FFFFF000
07FFFF8000
007FFC0000
ENDCHAR
STARTCHAR 0063
ENCODING 99
SWIDTH 444 0
DWIDTH 32 0
BBX 26 32 3 -1
BITMAP
0003FC00
003FFF80
007FFFC0
01FFFFC0
03FFFFC0
07E07FC0
0F800F80
1F800700
3F000000
3F000000
7E000000
7E000000
7E000000
FE000000
FE000000
FE000000
FE000000
FE000000
FE000000
FE000000
FF000000
FF000000
FF800000
7F800000
7FC000C0
3FE001C0
3FF80FC0
1FFFFF80
0FFFFF00
07FFFC00
01FFF000
007F8000
ENDCHAR
STARTCHAR 0064
ENCODING 100
SWIDTH 569 0
DWIDTH 41 0
BBX 38 52 3 -1
BITMAP
0000000300
0000001F00
0000007F00
000001FF00
00000FFF00
00000FFF00
00000FFE00
000001FE00
000001FE00
000000FE00
000000FE00
000000FE00
000000FE00
000000FE00
000000FE00
000000FE00
000000FE00
000000FE00
000000FE00
000000FE00
0003FCFE00
003FFFFE00
00FFFFFE00
01F01FFE00
03C007FE00
078001FE00
0F8001FE00
1F0000FE00
3F0000FE00
3E0000FE00
7E0000FE00
7E0000FE00
7E0000FE00
FE0000FE00
FE0000FE00
FE0000FE00
FE0000FE00
FE0000FE00
FE0000FE00
FF0000FE00
FF0000FE00
FF0000FE00
7F8000FE00
7F8000FE00
7FC000FE00
3FE000FE00
3FF000FE00
1FFC07FF00
0FFFFFFFFC
07FFFCFFFC
01FFE0FFC0
007F007800
ENDCHAR
STARTCHAR 0065
ENCODING 101
SWIDTH 444 0
DWIDTH 32 0
BBX 27 32 3 -1
BITMAP
001FC000
007FF800
01FFFC00
03E1FE00
07C07F00
0F807F80
1F003F80
3F001F80
3F001FC0
7E001FC0
7E003FE0
7E00FFE0
FE0FFFC0
FFFFF000
FFFC0000
FF800000
FE000000
FE000000
FF000000
FF000000
FF000000
FF000000
FF800000
7FC00000
7FC00040
3FF001C0
3FFC07C0
1FFFFF80
0FFFFF00
07FFFC00
03FFF000
007F8000
ENDCHAR
STARTCHAR 0066
ENCODING 102
SWIDTH 347 0
DWIDTH 25 0
BBX 32 52 2 -1
BITMAP
00001FE0
0000FFFC
0003FFFE
0007FFFF
000FFFFF
001F81FF
003E007E
007C0018
00F80000
01F80000
01F80000
03F80000
03F00000
03F00000
03F00000
03F00000
03F00000
03F00000
07F00000
07F00000
1FFFFE00
7FFFFE00
7FFFFE00
07F00000
07F00000
07F00000
07F00000
07F00000
07F00000
07F00000
07F00000
07F00000
07F00000
07F00000
07F00000
07F00000
07F00000
07F00000
07F00000
07F00000
07F00000
07F00000
07F00000
07F00000
07F00000
07F00000
07F00000
07F00000
0FF80000
3FFC0000
FFFFE000
FFFFE000
ENDCHAR
STARTCHAR 0067
ENCODING 103
SWIDTH 513 0
DWIDTH 37 0
BBX 35 50 2 -19
BITMAP
000FF80FC0
003FFFFFC0
00FFFFFFE0
01F07FFFC0
03E01FF000
07C00FF000
0FC00FF800
0FC007F800
1FC007F800
1F8003F800
1F8003F800
3FC003F800
3FC003F800
3FC003F800
1FC003F000
1FE003F000
1FE003E000
1FF003C000
0FF8078000
07FC0F0000
03FF1C0000
01FFF00000
003F800000
001C000000
00E0000000
03C0000000
07E0000000
0FF8000000
0FFFFF0000
07FFFFF000
07FFFFFE00
03FFFFFF00
00FFFFFF80
007FFFFF80
01F8FFFF80
07E001FF80
1FC0003F80
3F00001F80
7F00001F80
7E00001F80
FE00001F00
FC00001F00
FE00001E00
FE00003C00
7F00007800
7F8001F000
7FE00FC000
3FFFFF0000
0FFFFC0000
01FFC00000
ENDCHAR
STARTCHAR 0068
ENCODING 104
SWIDTH 597 0
DWIDTH 43 0
BBX 39 52 2 -1
BITMAP
0078000000
03F8000000
3FF8000000
FFF0000000
FFF0000000
1FF0000000
0FF0000000
07F0000000
07F0000000
07F0000000
07F0000000
07F0000000
07F0000000
07F0000000
07F0000000
07F0000000
07F0000000
07F0000000
07F0000000
07F0000000
07F003F800
07F01FFE00
07F0FFFF00
07F3FFFF00
07FFFFFF80
07FF01FF80
07F8007FC0
07F0003FC0
07F0003FC0
07F0001FC0
07F0001FC0
07F0001FC0
07F0001FC0
07F0001FC0
07F0001FC0
07F0001FC0
07F0001FC0
07F0001FC0
07F0001FC0
07F0001FC0
07F0001FC0
07F0001FC0
07F0001FC0
07F0001FC0
07F0001FC0
07F0001FC0
07F0001FC0
0FF0003FC0
0FF8007FE0
3FFE03FFF8
FFFF83FFFE
FFFF83FFCE
ENDCHAR
STARTCHAR 0069
ENCODING 105
SWIDTH 291 0
DWIDTH 21 0
BBX 18 50 2 -1
BITMAP
00E000
01F800
03F800
03FC00
03FC00
03F800
01F800
00E000
000000
000000
000000
000000
000000
000000
000000
000000
000000
000000
003800
01F800
07F800
3FF800
7FF800
7FF800
1FF800
07F800
07F800
03F800
03F800
03F800
03F800
03F800
03F800
03F800
03F800
03F800
03F800
03F800
03F800
03F800
03F800
07F800
07F800
07F800
07F800
0FF800
1FF800
FFFF00
FFFFC0
F800C0
ENDCHAR
STARTCHAR 006A
ENCODING 106
SWIDTH 291 0
DWIDTH 21 0
BBX 19 68 -2 -19
BITMAP
000780
000FC0
001FE0
001FE0
001FE0
001FE0
000FC0
000780
000000
000000
000000
000000
000000
000000
000000
000000
000000
000000
0000C0
0007C0
000FC0
003FC0
00FFC0
03FFC0
03FFC0
00FFC0
003FC0
001FC0
001FC0
001FC0
001FC0
001FC0
001FC0
001FC0
001FC0
001FC0
001FC0
001FC0
001FC0
001FC0
001FC0
001FC0
001FC0
001FC0
001FC0
001FC0
001FC0
001FC0
001FC0
001FC0
001FC0
001FC0
001FC0
001FC0
001FC0
001F80
001F80
001F80
001F80
001F00
001F00
003E00
383C00
7E7800
FFF000
FFE000
FF8000
7E0000
ENDCHAR
STARTCHAR 006B
ENCODING 107
SWIDTH 555 0
DWIDTH 40 0
BBX 38 52 2 -1
BITMAP
0078000000
03F8000000
3FF8000000
7FF8000000
FFF0000000
1FF0000000
07F0000000
07F0000000
07F0000000
07F0000000
07F0000000
07F0000000
07F0000000
07F0000000
07F0000000
07F0000000
07F0000000
07F0000000
07F0000000
07F0000000
07F00FFFF0
07F00FFFF0
07F001FFC0
07F000FF00
07F001FC00
07F003F000
07F007E000
07F00FC000
07F01F0000
07F03E0000
07F0780000
07F0F00000
07F1F00000
07F7F80000
07FFFC0000
07FFFE0000
07F9FF0000
07F1FF8000
07F0FF8000
07F07FC000
07F03FE000
07F01FF000
07F00FF800
07F00FFC00
07F007FE00
07F003FF00
07F001FF80
0FF000FFC0
0FF8007FE0
3FFE007FF0
FFFF81FFFC
FFFF81FFFC
ENDCHAR
STARTCHAR 006C
ENCODING 108
SWIDTH 291 0
DWIDTH 21 0
BBX 19 52 2 -1
BITMAP
007800
03F800
1FF800
7FF800
7FF800
1FF800
07F800
07F800
07F800
07F800
07F800
07F800
03F800
03F800
03F800
03F800
03F800
03F800
03F800
03F800
03F800
03F800
03F800
03F800
03F800
03F800
03F800
03F800
03F800
03F800
03F800
03F800
03F800
03F800
03F800
03F800
03F800
03F800
03F800
03F800
03F800
03F800
03F800
03F800
07F800
07F800
07F800
07F800
0FF800
3FFE00
FFFFC0
FFFFE0
ENDCHAR
STARTCHAR 006D
ENCODING 109
SWIDTH 875 0
DWIDTH 63 0
BBX 59 32 2 -1
BITMAP
007807F0003F8000
01F01FFC01FFE000
07F07FFE07FFF000
1FF1FFFF1FFFF800
7FF7FFFF7FFFF800
FFFF81FFF81FFC00
7FFC007FC007FC00
0FF8007F8003FC00
07F0003F8003FC00
07F0003F8001FC00
07F0003F8001FC00
07F0003F8001FC00
07F0003F8001FC00
07F0003F8001FC00
07F0003F8001FC00
07F0003F8001FC00
07F0003F8001FC00
07F0003F8001FC00
07F0003F8001FC00
07F0003F8001FC00
07F0003F8001FC00
07F0003F8001FC00
07F0003F8001FC00
07F0003F8001FC00
07F0003F8001FC00
07F0003F8001FE00
07F0003F8001FE00
07F8003FC001FE00
0FFC007FC003FE00
3FFF80FFE00FFF80
FFFF83FFFC3FFFE0
7C0383C01C1F01E0
ENDCHAR
STARTCHAR 006E
ENCODING 110
SWIDTH 597 0
DWIDTH 43 0
BBX 40 32 2 -1
BITMAP
003001F800
01F00FFE00
07F07FFF00
1FF1FFFF80
7FF7FFFF80
FFFF81FF80
3FFC007FC0
0FF0003FC0
07F0003FC0
07F0001FC0
07F0001FC0
07F0001FC0
07F0001FC0
07F0001FC0
07F0001FC0
07F0001FC0
07F0001FC0
07F0001FC0
07F0001FC0
07F0001FC0
07F0001FC0
07F0001FC0
07F0001FC0
07F0001FC0
07F0001FC0
07F0001FC0
07F0001FC0
07F0001FE0
0FF8003FE0
3FFE00FFF0
FFFF83FFFF
FFFF83FFFF
ENDCHAR
STARTCHAR 006F
ENCODING 111
SWIDTH 555 0
DWIDTH 40 0
BBX 34 32 3 -1
BITMAP
0007FC0000
003FFF8000
00FFFFE000
03F83FF000
07E007FC00
0FC003FC00
1F8001FE00
3F0000FF00
3F0000FF00
7F00007F80
7E00007F80
7E00003F80
FE00003FC0
FE00003FC0
FE00001FC0
FE00001FC0
FE00001FC0
FE00001FC0
FE00001FC0
FF00001F80
FF00001F80
7F00001F80
7F80003F00
7F80003F00
3FC0003E00
3FE0007E00
1FF000FC00
0FF801F800
07FE07E000
01FFFFC000
00FFFF0000
001FF80000
ENDCHAR
STARTCHAR 0070
ENCODING 112
SWIDTH 569 0
DWIDTH 41 0
BBX 36 50 2 -19
BITMAP
00301FE000
00F0FFF800
03F7FFFE00
0FFFFFFF00
3FFE07FF80
FFF001FF80
FFF0007FC0
3FF0003FC0
0FF0003FE0
07F0001FE0
07F0000FE0
07F0000FF0
07F0000FF0
07F00007F0
07F00007F0
07F00007F0
07F00007F0
07F00007F0
07F00007F0
07F00007E0
07F00007E0
07F0000FE0
07F0000FC0
07F0000FC0
07F0001F80
07F0001F00
07FC007E00
07FF00FC00
07FFFFF800
07FFFFF000
07FFFFC000
07F3FC0000
07F0000000
07F0000000
07F0000000
07F0000000
07F0000000
07F0000000
07F0000000
07F0000000
07F0000000
07F0000000
07F0000000
07F0000000
07F0000000
0FF0000000
0FF0000000
3FFC000000
FFFFC00000
FFFFC00000
ENDCHAR
STARTCHAR 0071
ENCODING 113
SWIDTH 555 0
DWIDTH 40 0
BBX 36 50 3 -20
BITMAP
0003FF0700
001FFFEF00
007FFFFF00
01F80FFF00
03E003FF00
07C001FF00
0F8000FF00
1F8000FF00
1F0000FF00
3F00007F00
7E00007F00
7E00007F00
7E00007F00
FE00007F00
FE00007F00
FE00007F00
FE00007F00
FE00007F00
FE00007F00
FE00007F00
FF00007F00
FF00007F00
7F80007F00
7F80007F00
7FC0007F00
3FE0007F00
3FF000FF00
1FFC07FF00
0FFFFF7F00
07FFFE7F00
01FFF07F00
007F807F00
0000007F00
0000007F00
0000007F00
0000007F00
0000007F00
0000007F00
0000007F00
0000007F00
0000007F00
0000007F00
0000007F00
0000007F00
0000007F00
0000007F00
000000FF80
000003FFC0
00001FFFF0
00001FFFF0
ENDCHAR
STARTCHAR 0072
ENCODING 114
SWIDTH 388 0
DWIDTH 28 0
BBX 25 32 3 -1
BITMAP
00600E00
01E03F00
07E0FF80
1FE1FF80
7FE7FF80
FFEFFF80
FFFE3F80
3FF80F00
1FE00E00
1FE00000
0FE00000
0FE00000
0FE00000
0FE00000
0FE00000
0FE00000
0FE00000
0FE00000
0FE00000
0FE00000
0FE00000
0FE00000
0FE00000
0FE00000
0FE00000
1FE00000
1FE00000
1FE00000
1FF00000
7FF80000
FFFFE000
C007E000
ENDCHAR
STARTCHAR 0073
ENCODING 115
SWIDTH 402 0
DWIDTH 29 0
BBX 23 32 3 -1
BITMAP
007FFC
03FFFC
0FFFFC
1FC1FC
3F807C
3F003C
7F001C
7F001C
7F000C
7F8000
7FC000
3FE000
3FF800
1FFE00
0FFF80
07FFE0
03FFF0
00FFF8
003FFC
000FFC
0003FE
C001FE
E000FE
E000FE
E000FE
F000FE
F800FC
FC01FC
FF03F8
FFFFF0
FFFFC0
03FE00
ENDCHAR
STARTCHAR 0074
ENCODING 116
SWIDTH 347 0
DWIDTH 25 0
BBX 23 37 3 -1
BITMAP
00E000
01C000
03C000
07C000
1FC000
7FFFFE
FFFFFE
FFFFFE
1FFFFC
1FC000
1FC000
1FC000
1FC000
1FC000
1FC000
1FC000
1FC000
1FC000
1FC000
1FC000
1FC000
1FC000
1FC000
1FC000
1FC000
1FC000
1FC000
1FC000
1FC000
1FC000
1FE000
1FF01C
1FFFFC
0FFFF8
0FFFE0
07FF80
01FC00
ENDCHAR
STARTCHAR 0075
ENCODING 117
SWIDTH 597 0
DWIDTH 43 0
BBX 40 32 2 -1
BITMAP
00F00001C0
07F003FFC0
7FF00FFFC0
FFF00FFFC0
FFF000FFC0
1FE0003FC0
0FE0003FC0
0FE0003F80
0FE0003F80
0FE0003F80
0FE0003F80
0FE0003F80
0FE0003F80
0FE0003F80
0FE0003F80
0FE0003F80
0FE0003F80
0FE0003F80
0FE0003F80
0FE0003F80
0FE0003F80
0FE0003F80
0FF0003F80
0FF0003F80
0FF0003F80
0FF8007F80
07FE03FFC0
07FFFFFFFF
03FFFF9FFF
01FFFC1FFC
00FFF01FC0
003F801E00
ENDCHAR
STARTCHAR 0076
ENCODING 118
SWIDTH 458 0
DWIDTH 33 0
BBX 34 32 0 -1
BITMAP
FFFE03FFC0
FFFE03FFC0
7FF0007F80
3FE0003F00
1FE0003E00
1FE0003E00
0FF0003C00
0FF0007800
07F0007800
07F800F000
07F800F000
03FC00E000
03FC01E000
01FC01C000
01FE03C000
01FE038000
00FE038000
00FF070000
007F070000
007F8E0000
003F8E0000
003F9C0000
003FDC0000
001FD80000
001FF80000
000FF00000
000FF00000
000FE00000
0007E00000
0007E00000
0007C00000
0003800000
ENDCHAR
STARTCHAR 0077
ENCODING 119
SWIDTH 708 0
DWIDTH 51 0
BBX 51 32 1 -1
BITMAP
FFFE3FFFC1FFE0
FFFE3FFFC1FFE0
7FF01FFF003F80
3FE007FC001F00
1FE003FC001F00
1FE003FC001E00
0FE003FC001C00
0FF001FC003C00
07F001FE003800
07F000FE003800
07F800FE007000
03F801FF007000
03F801FF00E000
03FC03FF00E000
01FC03FF01C000
01FE073F81C000
00FE073F818000
00FE0E3F838000
00FF0E1FC30000
007F0C1FC70000
007F1C1FC60000
003F9C0FEE0000
003FB80FEC0000
003FF80FFC0000
001FF007FC0000
001FF007F80000
001FE007F80000
000FE007F00000
000FE003F00000
000FC003F00000
0007C003E00000
00078001C00000
ENDCHAR
STARTCHAR 0078
ENCODING 120
SWIDTH 486 0
DWIDTH 35 0
BBX 34 32 0 -1
BITMAP
3FFF8303C0
3FFF83FFC0
1FFE00FF80
07FC007E00
03FC007C00
03FE00F800
01FE00F000
00FF01E000
00FF83C000
007F878000
007FCF0000
003FEE0000
003FFC0000
001FF80000
000FF00000
000FF80000
0007F80000
0007FC0000
000FFE0000
001EFE0000
003C7F0000
00787F8000
00F83F8000
00F03FC000
01E01FE000
03C00FF000
07C00FF000
0F8007F800
1F8007FC00
3FE007FF00
FFF83FFFC0
FFF83FFFC0
ENDCHAR
STARTCHAR 0079
ENCODING 121
SWIDTH 444 0
DWIDTH 32 0
BBX 34 50 0 -19
BITMAP
FFFE03FFC0
FFFE03FFC0
7FF800FF00
3FE0003E00
1FE0003E00
1FE0003C00
0FE0007800
0FF0007800
07F000F000
07F000F000
07F800E000
03F801E000
03F801C000
01FC038000
01FC038000
01FC070000
00FE070000
00FE060000
00FE0E0000
007F0C0000
007F1C0000
003F980000
003FB80000
003FB00000
001FF00000
001FE00000
001FE00000
000FC00000
000FC00000
0007800000
0007800000
0007000000
0007000000
0006000000
000E000000
001C000000
001C000000
0038000000
0078000000
0070000000
00F0000000
01F0000000
01E0000000
03E0000000
07C0000000
1FC0000000
3F80000000
7F80000000
7F00000000
7C00000000
ENDCHAR
STARTCHAR 007A
ENCODING 122
SWIDTH 444 0
DWIDTH 32 0
BBX 30 32 1 -1
BITMAP
0FFFFFFC
0FFFFFFC
1FFFFFF8
1FFC0FF0
1F000FE0
1E001FE0
1C003FC0
38003F80
38007F00
3000FE00
0001FE00
0001FC00
0003F800
0007F000
0007F000
000FE000
001FC000
003F8000
003F8000
007F0000
00FE0000
01FE000C
01FC001C
03F8001C
07F8003C
0FF00078
1FE000F8
3FC003F8
3FDFFFF0
7FFFFFF0
FFFFFFF0
FE000060
ENDCHAR
STARTCHAR 007B
ENCODING 123
SWIDTH 333 0
DWIDTH 24 0
BBX 22 68 1 -17
BITMAP
0000FC
000FFC
001FC0
003F00
007F00
007E00
00FE00
00FE00
00FE00
00FE00
00FE00
00FE00
00FE00
00FE00
00FE00
00FE00
00FE00
00FE00
00FE00
00FE00
00FE00
00FE00
00FE00
00FE00
00FE00
00FE00
00FE00
00FC00
01FC00
01FC00
01F800
03F000
0FE000
FF8000
FF8000
0FE000
03F000
03F800
01FC00
01FC00
00FC00
00FE00
00FE00
00FE00
00FE00
00FE00
00FE00
00FE00
00FE00
00FE00
00FE00
00FE00
00FE00
00FE00
00FE00
00FE00
00FE00
00FE00
00FE00
00FE00
00FE00
007E00
007E00
007F00
003F00
001FC0
0007FC
0001FC
ENDCHAR
STARTCHAR 007C
ENCODING 124
SWIDTH 472 0
DWIDTH 34 0
BBX 5 57 14 -11
BITMAP
F8
F8
F8
F8
F8
F8
F8
F8
F8
F8
F8
F8
F8
F8
F8
F8
F8
F8
F8
F8
F8
F8
F8
F8
F8
F8
F8
F8
F8
F8
F8
F8
F8
F8
F8
F8
F8
F8
F8
F8
F8
F8
F8
F8
F8
F8
F8
F8
F8
F8
F8
F8
F8
F8
F8
F8
F8
ENDCHAR
STARTCHAR 007D
ENCODING 125
SWIDTH 333 0
DWIDTH 24 0
BBX 22 68 1 -17
BITMAP
FC0000
FFC000
0FE000
03F000
03F800
01F800
01F800
01FC00
01FC00
01FC00
01FC00
01FC00
01FC00
01FC00
01FC00
01FC00
01FC00
01FC00
01FC00
01FC00
01FC00
01FC00
01FC00
01FC00
01FC00
01FC00
01FC00
01FC00
00FC00
00FE00
007E00
003F00
001FC0
0007FC
0007FC
001FC0
003F00
007E00
00FE00
00FC00
01FC00
01FC00
01FC00
01FC00
01FC00
01FC00
01FC00
01FC00
01FC00
01FC00
01FC00
01FC00
01FC00
01FC00
01FC00
01FC00
01FC00
01FC00
01FC00
01FC00
01F800
01F800
03F800
03F800
07F000
0FE000
FF8000
FC0000
ENDCHAR
STARTCHAR 007E
ENCODING 126
SWIDTH 638 0
DWIDTH 46 0
BBX 27 8 9 42
BITMAP
01F00020
07FC0060
1FFF00E0
3FFFC1C0
387FFF80
600FFF00
C003FE00
C000F800
ENDCHAR
STARTCHAR 00A0
ENCODING 160
SWIDTH 236 0
DWIDTH 17 0
BBX 0 0 0 0
BITMAP
ENDCHAR
STARTCHAR 00A1
ENCODING 161
SWIDTH 347 0
DWIDTH 25 0
BBX 10 48 8 -17
BITMAP
1E00
3F00
7F80
7F80
7FC0
7F80
7F80
3F00
1E00
0000
0000
0000
0000
0C00
1C00
1C00
1C00
1C00
1C00
1C00
1C00
1C00
1C00
1C00
3C00
3C00
3E00
3E00
3E00
3E00
7E00
7E00
7E00
7E00
7F00
7F00
7F00
FF00
FF00
FF00
FF00
FF00
FF00
FF80
FF80
FF00
FF00
FC00
ENDCHAR
STARTCHAR 00A2
ENCODING 162
SWIDTH 513 0
DWIDTH 37 0
BBX 27 47 6 -1
BITMAP
00030000
00030000
00030000
00030000
00030000
00030000
00030000
0007FC00
003FFF80
00FFFFC0
01FFFFE0
03FFFFE0
07C33FE0
0F830FC0
1F830380
3F030000
3F030000
7E030000
7E030000
7E030000
FE030000
FE030000
FE030000
FE030000
FE030000
FE030000
FF030000
FF030000
FF030000
7F830000
7F830000
7FC300C0
3FF301C0
1FFF0FC0
1FFFFF80
0FFFFF00
07FFFC00
01FFF000
003FC000
00030000
00030000
00030000
00030000
00030000
00030000
00030000
00030000
ENDCHAR
STARTCHAR 00A3
ENCODING 163
SWIDTH 513 0
DWIDTH 37 0
BBX 34 48 3 -1
BITMAP
00007F8000
0003FFE000
000FFFF000
001FFFF800
003FFFFC00
007E07FC00
00F803FC00
01F001FC00
03F001F800
03E000F000
07E0000000
07E0000000
07E0000000
0FE0000000
0FE0000000
0FE0000000
0FF0000000
0FF0000000
0FF0000000
0FF0000000
0FF8000000
07F8000000
07F8000000
07F8000000
03FC000000
FFFFFC0000
FFFFFC0000
FFFFFC0000
01FE000000
00FE000000
00FE000000
00FE000000
007E000000
007E000000
007E000000
003E000200
003C000780
003C000FC0
0038000FC0
007E0007C0
01FFE003C0
0FFFF803C0
1FFFFF0780
3FFFFFFF80
3FFFFFFF00
3F0FFFFE00
3E01FFF800
3C001FE000
ENDCHAR
STARTCHAR 00A4
ENCODING 164
SWIDTH 513 0
DWIDTH 37 0
BBX 28 28 5 9
BITMAP
40000060
E00000F0
F03F81E0
78FFE3C0
3FFFFF80
1FFFFF00
0FFFFE00
1FE07F00
1F803F80
3F000F80
3E000FC0
3E0007C0
7C0007C0
7C0007C0
7C0007C0
7C0007C0
3E0007C0
3E000FC0
3F000F80
1F803F80
1FE07F00
0FFFFE00
1FFFFF00
3FFFFF80
79FFF3C0
F03F81E0
E00000F0
40000060
ENDCHAR
STARTCHAR 00A5
ENCODING 165
SWIDTH 513 0
DWIDTH 37 0
BBX 39 47 -1 -1
BITMAP
FFFF80FFFE
FFFF80FFFE
3FFC001FFC
1FF80007F8
0FF80007F0
07F80007E0
07FC0007C0
03FC000780
03FE000F80
01FE000F00
00FF001E00
00FF001E00
007F001C00
007F803C00
003F803800
003FC07000
001FC07000
0FFFE0FFC0
0FFFE0FFC0
0FFFF1FFC0
0007F1C000
0007FB8000
0003FF0000
0003FF0000
0001FE0000
0FFFFFFFC0
0FFFFFFFC0
0FFFFFFFC0
0000FC0000
0000FE0000
0000FE0000
0000FE0000
0000FE0000
0000FE0000
0000FE0000
0000FE0000
0000FE0000
0000FE0000
0001FE0000
0001FE0000
0001FE0000
0001FE0000
0001FE0000
0003FF0000
001FFF8000
007FFFF000
003FFFF000
ENDCHAR
STARTCHAR 00A6
ENCODING 166
SWIDTH 472 0
DWIDTH 34 0
BBX 5 57 14 -11
BITMAP
F8
F8
F8
F8
F8
F8
F8
F8
F8
F8
F8
F8
F8
F8
F8
F8
F8
F8
F8
F8
F8
F8
F8
F8
00
00
00
00
00
00
00
00
00
00
00
F8
F8
F8
F8
F8
F8
F8
F8
F8
F8
F8
F8
F8
F8
F8
F8
F8
F8
F8
F8
F8
F8
ENDCHAR
STARTCHAR 00A7
ENCODING 167
SWIDTH 513 0
DWIDTH 37 0
BBX 28 65 5 -19
BITMAP
0003FC00
000FFF00
003FFF80
007FFFC0
00FFFFC0
01F03FC0
03C00F80
07800300
0F000000
0F000000
0F000000
1F000000
1F000000
1F800000
1F800000
1FC00000
1FF00000
1FF80000
0FFE0000
0FFF0000
07FFC000
03FFF000
07FFF800
0F7FFE00
1E3FFF00
3E0FFF80
3C03FFC0
7C00FFE0
7C007FE0
FC001FF0
FC000FF0
FE0007F0
FE0007F0
FF0003F0
FFC003F0
7FE003F0
7FF803E0
3FFE03E0
1FFF03C0
0FFFC780
03FFFF00
01FFFE00
007FFC00
001FFE00
0007FF00
0003FF80
0000FF80
00003FC0
00001FC0
00000FC0
00000FC0
000007C0
000007C0
000007C0
00000780
00000780
08000F00
3E001F00
7F807E00
7FFFFC00
7FFFF800
7FFFF000
3FFFC000
1FFF0000
07F80000
ENDCHAR
STARTCHAR 00A8
ENCODING 168
SWIDTH 500 0
DWIDTH 36 0
BBX 20 7 8 36
BITMAP
3801C0
FC07E0
FE07F0
FE07F0
FE07F0
FC07E0
3801C0
ENDCHAR
STARTCHAR 00A9
ENCODING 169
SWIDTH 750 0
DWIDTH 54 0
BBX 48 47 3 -1
BITMAP
00001FF80000
0000FFFF8000
0007FFFFE000
001FE00FF800
003F0000FC00
007C00003E00
00F800001F80
03F0000007C0
03C0000003C0
07C0000001E0
0F8007FFA0F0
1F003FFFE0F8
1E00FE03E078
3E01F801E03C
3C07F000E03C
7C07E000E01E
780FC000601E
781FC000601E
781FC000000F
F01F8000000F
F03F8000000F
F03F8000000F
F03F8000000F
F03F8000000F
F03F8000000F
F03F8000000F
F03FC000000F
F01FC000000F
781FC000001F
780FE000001E
780FE000201E
7C07F000601E
3C03F800E03C
3E01FE03E03C
1E007FFFC078
1F0007FF00F8
0F80000000F0
0780000001E0
03C0000003E0
03F0000007C0
01F800001F80
007C00003F00
003F0000FC00
001FF007F800
0007FFFFE000
0001FFFF8000
00001FF80000
ENDCHAR
STARTCHAR 00AA
ENCODING 170
SWIDTH 319 0
DWIDTH 23 0
BBX 21 19 2 18
BITMAP
01FC00
07FE00
1FFF00
3C1F00
7C0F80
7C0F80
000F80
000F80
000F80
01FF80
1FFF80
7F0F80
F80F80
F80F80
F80F80
FC1F98
FFFFF8
7FCFF0
3F0F80
ENDCHAR
STARTCHAR 00AB
ENCODING 171
SWIDTH 513 0
DWIDTH 37 0
BBX 31 27 3 2
BITMAP
00030006
0007000E
000F001C
001E003C
003C0078
007C00F0
00F803F0
03F007E0
07F00FC0
0FE01FC0
1FC03F80
3F807F00
FF81FF00
FF01FE00
7F80FE00
3F807F00
1FC03F80
07E01FC0
03F007C0
01F003E0
00F801F0
007C00F8
003E0078
001E003C
000F001E
0007800E
00030006
ENDCHAR
STARTCHAR 00AC
ENCODING 172
SWIDTH 513 0
DWIDTH 37 0
BBX 30 18 4 0
BITMAP
FFFFFFFC
FFFFFFFC
FFFFFFFC
000007FC
000007FC
000007FC
000007FC
000007FC
000007FC
000007FC
000007FC
000007FC
000007FC
000007FC
000007FC
000007FC
000007FC
000007FC
ENDCHAR
STARTCHAR 00AD
ENCODING 173
SWIDTH 291 0
DWIDTH 21 0
BBX 16 6 3 13
BITMAP
FFFF
FFFF
FFFF
FFFF
FFFF
FFFF
ENDCHAR
STARTCHAR 00AE
ENCODING 174
SWIDTH 750 0
DWIDTH 54 0
BBX 48 47 3 -1
BITMAP
00001FF80000
0000FFFF8000
0007FFFFE000
001FE00FF800
003F0000FC00
007C00003E00
00F800001F80
03F0000007C0
03C0000003C0
07C0000001E0
0F9FFFF000F0
1F1FFFFC00F8
1E03E0FE0078
3E03E03F003C
3C03E03F803C
7C03E01F801E
7803E01F801E
7803E01F801E
7803E01F800F
F003E01F800F
F003E03F000F
F003E03F000F
F003E0FC000F
F003FFF8000F
F003FFF0000F
F003E1F8000F
F003E0FC000F
F003E0FC000F
7803E07E001F
7803E07F001E
7803E03F001E
7C03E01F801E
3C03E00FC03C
3E07F007E03C
1E1FFF03FC78
1F1FFF00FCF8
0F80000000F0
0780000001E0
03C0000003E0
03F0000007C0
01F800001F80
007C00003F00
003F0000FC00
001FF007F800
0007FFFFE000
0001FFFF8000
00001FF80000
ENDCHAR
STARTCHAR 00AF
ENCODING 175
SWIDTH 500 0
DWIDTH 36 0
BBX 22 5 7 37
BITMAP
FFFFFC
FFFFFC
FFFFFC
FFFFFC
FFFFFC
ENDCHAR
STARTCHAR 00B0
ENCODING 176
SWIDTH 513 0
DWIDTH 37 0
BBX 20 19 9 27
BITMAP
03F800
0FFE00
1FFF80
3E0FC0
7C03C0
7801E0
F001E0
F000F0
F000F0
F000F0
F000F0
F001F0
F801E0
7C03E0
7E0FC0
3FFFC0
1FFF80
0FFE00
03F800
ENDCHAR
STARTCHAR 00B1
ENCODING 177
SWIDTH 513 0
DWIDTH 37 0
BBX 30 38 3 1
BITMAP
00078000
00078000
00078000
00078000
00078000
00078000
00078000
00078000
00078000
00078000
00078000
00078000
00078000
00078000
FFFFFFFC
FFFFFFFC
FFFFFFFC
FFFFFFFC
00078000
00078000
00078000
00078000
00078000
00078000
00078000
00078000
00078000
00078000
00078000
00078000
00078000
00000000
00000000
00000000
FFFFFFFC
FFFFFFFC
FFFFFFFC
FFFFFFFC
ENDCHAR
STARTCHAR 00B2
ENCODING 178
SWIDTH 347 0
DWIDTH 25 0
BBX 21 28 2 18
BITMAP
01FC00
07FF00
0FFF80
1C3FC0
301FC0
700FE0
600FE0
200FE0
000FE0
000FE0
001FC0
001FC0
003F80
003F80
007F00
007E00
00FC00
01F800
01F000
03E018
07C018
0F8038
1F0030
1E0070
3FFFF0
7FFFF0
FFFFE0
FFFFE0
ENDCHAR
STARTCHAR 00B3
ENCODING 179
SWIDTH 347 0
DWIDTH 25 0
BBX 20 28 2 18
BITMAP
00FE00
03FF00
07FF80
1C3FC0
181FC0
301FC0
001FC0
001F80
001F80
003F00
007C00
00FF00
01FFC0
07FFE0
061FE0
000FF0
0007F0
0007F0
0007F0
0007F0
0007F0
0007F0
7007E0
F80FC0
F80F80
7C1F00
3FFE00
0FF000
ENDCHAR
STARTCHAR 00B4
ENCODING 180
SWIDTH 500 0
DWIDTH 36 0
BBX 15 12 13 35
BITMAP
0078
00FE
01FE
03FC
03F8
07F0
0FC0
1F80
1E00
3C00
7800
E000
ENDCHAR
STARTCHAR 00B5
ENCODING 181
SWIDTH 597 0
DWIDTH 43 0
BBX 40 50 2 -19
BITMAP
00F00007C0
0FF00FFFC0
7FF00FFFC0
FFF000FFC0
FFF0003FC0
1FE0003FC0
0FE0003F80
0FE0003F80
0FE0003F80
0FE0003F80
0FE0003F80
0FE0003F80
0FE0003F80
0FE0003F80
0FE0003F80
0FE0003F80
0FE0003F80
0FE0003F80
0FE0003F80
0FE0003F80
0FE0003F80
0FE0003F80
0FF0003F80
0FF0003F80
0FF0003F80
0FF8007F80
0FFE03FFC0
0FFFFFFFFF
0FFFFF3FFF
0FFFFC3FF8
0FFFF03FC0
0F9F003C00
0F80000000
1F80000000
1F80000000
1F80000000
1F80000000
1F80000000
1F80000000
1F80000000
1FC0000000
1FC0000000
1FC0000000
1FC0000000
1FC0000000
1FC0000000
1FC0000000
1FC0000000
1FC0000000
0F00000000
ENDCHAR
STARTCHAR 00B6
ENCODING 182
SWIDTH 708 0
DWIDTH 51 0
BBX 46 67 5 -18
BITMAP
00000000E000
00000000E000
00000000E000
00000000E038
00000000E078
00000000E07C
00000000E07C
00001C00E0F8
000FFFFFFFF0
007FFFFFFF80
00FFFF00E000
03FFFE00E000
07FFFE00E000
0FFFFE00E000
1FFFFE00E000
3FFFFE00E000
3FFFFE00E000
7FFFFE00E000
7FFFFE00E000
7FFFFE00E000
FFFFFE00E000
FFFFFE00E000
FFFFFE00E000
FFFFFE00E000
FFFFFE00E000
FFFFFE00E000
FFFFFE00E000
FFFFFE00E000
FFFFFE00E000
FFFFFE00E000
FFFFFE00E000
FFFFFE00E000
FFFFFE00E000
7FFFFE00E000
7FFFFE00E000
3FFFFE00E000
3FFFFE00E000
1FFFFE00E000
0FFFFE00E000
0FFFFE00E000
07FFFE00E000
01FFFE00E000
00FFFE00E000
003FFF00E000
000FFFFFE000
0000FFFFE000
00000000E000
00000000E000
00000000E000
00000000E000
00000000E000
00000000E000
00000000E000
00000000E000
00000001C000
00000001C000
00000001C000
00000001C000
00000001C000
000000E3C000
000001FFC000
000003FFC000
000003FF8000
000003FF8000
000001FF0000
000001FE0000
000000780000
ENDCHAR
STARTCHAR 00B7
ENCODING 183
SWIDTH 236 0
DWIDTH 17 0
BBX 9 10 4 10
BITMAP
1C00
3E00
7F00
FF80
FF80
FF80
FF80
7F00
3E00
1C00
ENDCHAR
STARTCHAR 00B8
ENCODING 184
SWIDTH 500 0
DWIDTH 36 0
BBX 12 17 14 -16
BITMAP
0180
0380
0700
0600
0E00
1F00
3F80
3FC0
1FE0
07F0
01F0
01E0
60E0
F1C0
FFC0
FF00
7C00
ENDCHAR
STARTCHAR 00B9
ENCODING 185
SWIDTH 347 0
DWIDTH 25 0
BBX 16 28 5 18
BITMAP
00E0
01E0
07E0
3FE0
FFE0
E3E0
03E0
03E0
03E0
03E0
03E0
03E0
03E0
03E0
03E0
03E0
03E0
03E0
03E0
03E0
03E0
03E0
03E0
03E0
03E0
07F0
FFFF
FFFF
ENDCHAR
STARTCHAR 00BA
ENCODING 186
SWIDTH 347 0
DWIDTH 25 0
BBX 22 19 2 18
BITMAP
01FE00
07FF80
1F0FE0
3E07F0
7E03F0
7C01F8
FC01F8
FC01FC
FC00FC
FC00FC
FC00FC
FC00FC
FC00F8
FE00F8
7E01F0
3F01E0
1FC3C0
0FFF80
03FC00
ENDCHAR
STARTCHAR 00BB
ENCODING 187
SWIDTH 513 0
DWIDTH 37 0
BBX 31 27 3 2
BITMAP
60018000
F001C000
7800E000
7C00F000
3E007800
1F003E00
0F803F00
0FC01F80
07E00FC0
03F80FE0
03FC07F0
01FE03F8
00FF01FE
00FF01FE
00FF01FC
01FE03F8
01F807F0
03F00FE0
07E00F80
0FC01F00
1F803E00
1F007C00
3E007800
7C00F000
7801E000
F001C000
60018000
ENDCHAR
STARTCHAR 00BC
ENCODING 188
SWIDTH 791 0
DWIDTH 57 0
BBX 50 47 5 -1
BITMAP
00E00000780000
01E00000700000
07E00000700000
3FE00000E00000
FFE00000C00000
E3E00001C00000
03E00001800000
03E00003800000
03E00003000000
03E00007000000
03E00006000000
03E0000E000000
03E0000C000000
03E0001C000000
03E00018000000
03E00038000000
03E00030000000
03E00070000000
03E00060007800
03E000E000F800
03E000C001F800
03E001C003F800
03E0018003F800
03E0038007F800
07E003000FF800
0FF003001EF800
FFFF06003CF800
FFFF060078F800
00000C0078F800
00000C00F0F800
00001C01E0F800
00001803C0F800
0000380780F800
0000300F00F800
0000701E00F800
0000601E00F800
0000E01FFFFFC0
0000E01FFFFFC0
0001C01FFFFFC0
0001C00000F800
0003800000F800
0003800000F800
0003000000F800
0007000000F800
0007000000F800
000E000000F800
000E000000F800
ENDCHAR
STARTCHAR 00BD
ENCODING 189
SWIDTH 791 0
DWIDTH 57 0
BBX 51 47 4 -1
BITMAP
00E00000780000
01E00000700000
07E00000700000
3FE00000E00000
FFE00000E00000
E3E00001C00000
03E00001800000
03E00003800000
03E00003000000
03E00007000000
03E00006000000
03E0000E000000
03E0000C000000
03E0001C000000
03E00018000000
03E00038000000
03E00030000000
03E00030000000
03E0006007F000
03E000601FFC00
03E000C03FFE00
03E000C070FF00
03E00180C07F00
03E00181C03F80
07E00301803F80
0FF00301803F80
FFFF0700003F80
FFFF0600003F80
00000E00007F80
00000C00007F00
00001C00007F00
0000180000FE00
0000380000FC00
0000300001FC00
0000700003F800
0000700003F000
0000600007E000
0000E0000FC000
0000C0001F8060
0001C0001E00C0
000180003C00C0
000380007801C0
00038000F001C0
00070001FFFF80
00070003FFFF80
000E0003FFFF80
000E0003FFFF80
ENDCHAR
STARTCHAR 00BE
ENCODING 190
SWIDTH 791 0
DWIDTH 57 0
BBX 51 47 4 -1
BITMAP
00FC00000E0000
03FF00001E0000
0FFF80001C0000
1C3FC0001C0000
381FC000380000
301FC000300000
001FC000700000
001F8000600000
001F0000E00000
003E0000C00000
00780001C00000
00FF0001800000
03FF8003800000
0FFFC003000000
0C1FE007000000
000FF007000000
000FF006000000
0007F00E000000
0007F00C001E00
0007F01C003E00
0007F018007E00
0007E03800FE00
7007E03001FE00
F00FC07001FE00
F80F806003FE00
FC3F00E007BE00
7FFC00C00F3E00
0FF001C01E3E00
000001803C3E00
00000380383E00
00000300783E00
00000700F03E00
00000601E03E00
00000E03C03E00
00000E07803E00
00001C07803E00
00001C0FFFFFE0
0000380FFFFFE0
00003807FFFFE0
00003000003E00
00007000003E00
00006000003E00
0000E000003E00
0000E000003E00
0001C000003E00
0001C000003E00
00038000003E00
ENDCHAR
STARTCHAR 00BF
ENCODING 191
SWIDTH 416 0
DWIDTH 30 0
BBX 23 47 3 -16
BITMAP
0001C0
0007F0
0007F0
000FF8
000FF8
000FF8
0007F0
0007F0
0001C0
000000
000000
000000
0000C0
0000C0
0000C0
0000E0
0000E0
0000E0
0001E0
0007E0
001FE0
00FFE0
03FFE0
0FFFE0
1FFF80
3FFF00
7FFC00
7FF000
FFC000
FF0000
FE0000
FC0000
F80000
F80000
780000
780000
380000
3C0000
1C0000
0F0038
0F80FC
07FFFE
03FFFE
01FFFE
00FFFE
003FFC
0007F0
ENDCHAR
STARTCHAR 00C0
ENCODING 192
SWIDTH 666 0
DWIDTH 48 0
BBX 48 63 0 -1
BITMAP
0001E0000000
000FF0000000
000FF8000000
0007FC000000
0001FE000000
0000FF000000
00003F800000
00000FC00000
000003F00000
000000F80000
0000003C0000
000000000000
000000000000
000000000000
000000000000
000000000000
000001F00000
000003F00000
000003F00000
000007F80000
000007F80000
00000FF80000
00000FFC0000
00000FFC0000
00001FFC0000
00001CFE0000
00003CFE0000
000038FE0000
0000387F0000
0000787F0000
0000707F8000
0000F03F8000
0000E03F8000
0001E01FC000
0001C01FC000
0003C01FE000
0003C00FE000
0003800FE000
0007800FF000
00070007F000
000F0007F000
000E0003F800
001E0003F800
001FFFFFFC00
003FFFFFFC00
003FFFFFFC00
00380001FE00
00780001FE00
00780000FF00
00F00000FF00
00F00000FF00
01F000007F80
01E000007F80
03E000007FC0
03E000003FC0
07C000003FE0
07C000003FE0
0FC000003FF0
0FC000001FF0
1FC000003FF8
7FF000007FFE
FFFF0003FFFF
FFFF0007FFFF
ENDCHAR
STARTCHAR 00C1
ENCODING 193
SWIDTH 666 0
DWIDTH 48 0
BBX 48 63 0 -1
BITMAP
00000001E000
00000003F800
00000007FC00
0000000FF800
0000001FE000
0000003F8000
0000007F0000
000000FC0000
000001F00000
000003C00000
000007000000
000000000000
000000000000
000000000000
000000000000
000000000000
000001F00000
000003F00000
000003F00000
000007F80000
000007F80000
00000FF80000
00000FFC0000
00000FFC0000
00001FFC0000
00001CFE0000
00003CFE0000
000038FE0000
0000387F0000
0000787F0000
0000707F8000
0000F03F8000
0000E03F8000
0001E01FC000
0001C01FC000
0003C01FE000
0003C00FE000
0003800FE000
0007800FF000
00070007F000
000F0007F000
000E0003F800
001E0003F800
001FFFFFFC00
003FFFFFFC00
003FFFFFFC00
00380001FE00
00780001FE00
00780000FF00
00F00000FF00
00F00000FF00
01F000007F80
01E000007F80
03E000007FC0
03E000003FC0
07C000003FE0
07C000003FE0
0FC000003FF0
0FC000001FF0
1FC000003FF8
7FF000007FFE
FFFF0003FFFF
FFFF0003FFFF
ENDCHAR
STARTCHAR 00C2
ENCODING 194
SWIDTH 666 0
DWIDTH 48 0
BBX 48 64 0 -1
BITMAP
000001C00000
000003E00000
000007F00000
00000FF80000
00001FFC0000
00001FFC0000
00003F7E0000
00007C1F0000
0000F80F8000
0001E003C000
0003C001E000
00078000F000
000600002000
000000000000
000000000000
000000000000
000000000000
000001F00000
000003F00000
000003F00000
000007F80000
000007F80000
00000FF80000
00000FFC0000
00000FFC0000
00001FFC0000
00001CFE0000
00003CFE0000
000038FE0000
0000387F0000
0000787F0000
0000707F8000
0000F03F8000
0000E03F8000
0001E01FC000
0001C01FC000
0003C01FE000
0003C00FE000
0003800FE000
0007800FF000
00070007F000
000F0007F000
000E0003F800
001E0003F800
001FFFFFFC00
003FFFFFFC00
003FFFFFFC00
00380001FE00
00780001FE00
00780000FF00
00F00000FF00
00F00000FF00
01F000007F80
01E000007F80
03E000007FC0
03E000003FC0
07C000003FE0
07C000003FE0
0FC000003FF0
0FC000001FF0
1FC000003FF8
7FF000007FFE
FFFF0003FFFF
FFFF0003FFFF
ENDCHAR
STARTCHAR 00C3
ENCODING 195
SWIDTH 666 0
DWIDTH 48 0
BBX 48 61 0 -1
BITMAP
00003E000400
0000FFC00E00
0001FFF83C00
0003FFFFF800
0007FFFFF000
000F07FFF000
000C00FFC000
0008001F8000
000000000000
000000000000
000000000000
000000000000
000000000000
000000000000
000001F00000
000003F00000
000003F00000
000007F80000
000007F80000
00000FF80000
00000FFC0000
00000FFC0000
00001FFC0000
00001CFE0000
00003CFE0000
000038FE0000
0000387F0000
0000787F0000
0000707F8000
0000F03F8000
0000E03F8000
0001E01FC000
0001C01FC000
0003C01FE000
0003C00FE000
0003800FE000
0007800FF000
00070007F000
000F0007F000
000E0003F800
001E0003F800
001FFFFFFC00
003FFFFFFC00
003FFFFFFC00
00380001FE00
00780001FE00
00780000FF00
00F00000FF00
00F00000FF00
01F000007F80
01E000007F80
03E000007FC0
03E000003FC0
07C000003FE0
07C000003FE0
0FC000003FF0
0FC000001FF0
1FC000003FF8
7FF000007FFE
FFFF0003FFFF
FFFF0003FFFF
ENDCHAR
STARTCHAR 00C4
ENCODING 196
SWIDTH 666 0
DWIDTH 48 0
BBX 48 60 0 -1
BITMAP
0001C0038000
0003E007C000
0007F00FE000
0007F00FE000
0007F00FE000
0007F00FE000
0003E007C000
0001C0038000
000000000000
000000000000
000000000000
000000000000
000000000000
000001F00000
000003F00000
000003F00000
000007F80000
000007F80000
00000FF80000
00000FFC0000
00000FFC0000
00001FFC0000
00001CFE0000
00003CFE0000
000038FE0000
0000387F0000
0000787F0000
0000707F8000
0000F03F8000
0000E03F8000
0001E01FC000
0001C01FC000
0003C01FE000
0003C00FE000
0003800FE000
0007800FF000
00070007F000
000F0007F000
000E0003F800
001E0003F800
001FFFFFFC00
003FFFFFFC00
003FFFFFFC00
00380001FE00
00780001FE00
00780000FF00
00F00000FF00
00F00000FF00
01F000007F80
01E000007F80
03E000007FC0
03E000003FC0
07C000003FE0
07C000003FE0
0FC000003FF0
0FC000001FF0
1FC000003FF8
7FF000007FFE
FFFF0003FFFF
FFFF0003FFFF
ENDCHAR
STARTCHAR 00C5
ENCODING 197
SWIDTH 666 0
DWIDTH 48 0
BBX 48 64 0 -1
BITMAP
000007E00000
00001FF80000
00003C3C0000
0000781E0000
0000F00F0000
0000F00F0000
0000F00F0000
0000F00F0000
0000F00F0000
0000781E0000
00003C3E0000
00001FF80000
000007E00000
000000000000
000000000000
000000000000
000000000000
000001F00000
000003F00000
000003F00000
000007F80000
000007F80000
00000FF80000
00000FFC0000
00000FFC0000
00001FFC0000
00001CFE0000
00003CFE0000
000038FE0000
0000387F0000
0000787F0000
0000707F8000
0000F03F8000
0000E03F8000
0001E01FC000
0001C01FC000
0003C01FE000
0003C00FE000
0003800FE000
0007800FF000
00070007F000
000F0007F000
000E0003F800
001E0003F800
001FFFFFFC00
003FFFFFFC00
003FFFFFFC00
00380001FE00
00780001FE00
00780000FF00
00F00000FF00
00F00000FF00
01F000007F80
01E000007F80
03E000007FC0
03E000003FC0
07C000003FE0
07C000003FE0
0FC000003FF0
0FC000001FF0
1FC000003FF8
7FF000007FFE
FFFF0003FFFF
FFFF0003FFFF
ENDCHAR
STARTCHAR 00C6
ENCODING 198
SWIDTH 972 0
DWIDTH 70 0
BBX 67 47 1 -1
BITMAP
0000001FFFFFFFFFC0
0000001FFFFFFFFFC0
00000003FFFFFFFFC0
00000001FFE0007F80
00000003FFC0000F80
00000003DFC0000780
00000007DFC0000780
000000079FC0000780
0000000F1FC0000380
0000001E1FC0000380
0000001E1FC0000380
0000003C1FC0000380
000000781FC0000000
000000781FC0000000
000000F01FC0000000
000001E01FC0001800
000003C01FC0001800
000003C01FC0001800
000007801FC0003800
00000F001FC0003800
00000F001FC007F800
00001E001FFFFFF800
00003C001FFFFFF800
00003C001FFFFFF800
000078001FC000F800
0000FFFFFFC0003800
0000FFFFFFC0003800
0001FFFFFFC0001800
0003E0001FC0001800
0007C0001FC0001800
000780001FC0000000
000F80001FC0000000
001F00001FC0000000
001E00001FC0000040
003E00001FC0000060
007C00001FC00000E0
007800001FC00000E0
00F800001FC00001E0
01F000001FC00001E0
03F000003FC00003C0
03E000003FC00007C0
07E000003FE0000FC0
0FE000003FF000FFC0
1FF000007FFFFFFF80
7FFF0003FFFFFFFF80
FFFF000FFFFFFFFF80
FC03000FF80003FF80
ENDCHAR
STARTCHAR 00C7
ENCODING 199
SWIDTH 680 0
DWIDTH 49 0
BBX 42 63 4 -17
BITMAP
00000FFFFDC0
0000FFFFFFC0
0007FFFFFFC0
001FF801FF80
007FC0003F80
00FF00000F80
01FE00000780
03FC00000780
07F800000780
0FF000000380
1FE000000380
1FE000000380
3FC000000380
3FC000000000
7FC000000000
7F8000000000
FF8000000000
FF8000000000
FF8000000000
FF8000000000
FF8000000000
FF8000000000
FF8000000000
FF8000000000
FF8000000000
FF8000000000
FF8000000000
FF8000000000
FF8000000000
FF8000000000
FFC000000000
FFC000000000
7FC000000000
7FE000000000
3FE000000000
3FF000000000
1FF8000001C0
1FF8000001C0
0FFC00000380
07FE00000780
03FF80001F80
01FFE0003F00
00FFFC01FF00
003FFFFFFF00
000FFFFFFF00
0003FFFFF800
00003FFE0000
000000C00000
000001C00000
000001800000
000003C00000
000007F00000
00000FF80000
000007FC0000
000003FC0000
000000FE0000
0000007C0000
0000003C0000
00001C1C0000
00001E380000
00001FF00000
00001FE00000
00000F800000
ENDCHAR
STARTCHAR 00C8
ENCODING 200
SWIDTH 597 0
DWIDTH 43 0
BBX 38 63 3 -1
BITMAP
007C000000
01FE000000
01FF000000
00FF800000
007FC00000
001FE00000
0007F00000
0001F80000
00007C0000
00003E0000
00000F0000
0000000000
0000000000
0000000000
0000000000
0000000000
FFFFFFFFF0
FFFFFFFFF0
0FFFFFFFF0
07FC000FF0
07F80001F0
07F80001F0
07F80000F0
07F80000F0
07F80000F0
07F80000F0
07F8000070
03F8000060
03F8000000
03F8000000
03F8000000
03F8000300
03F8000700
03F8000700
03F8000700
03F8000F00
03F800FF00
03FFFFFF00
03FFFFFF00
03FFFFFF00
03F8001F00
03F8000F00
03F8000700
03F8000700
03F8000700
03F8000300
03F8000000
03F8000000
03F8000000
03F8000008
03F800001C
03F800001C
03F800003C
03F8000038
03FC000078
03FC000078
03FC0000F8
07FC0003F0
07FF807FF0
07FFFFFFF0
1FFFFFFFF0
FFFFFFFFE0
FF00007FE0
ENDCHAR
STARTCHAR 00C9
ENCODING 201
SWIDTH 597 0
DWIDTH 43 0
BBX 38 63 3 -1
BITMAP
0000007800
000000FF00
000001FF00
000003FE00
000007F800
00000FF000
00001FC000
00003F0000
00007C0000
0000F00000
0001C00000
0000000000
0000000000
0000000000
0000000000
0000000000
FFFFFFFFF0
FFFFFFFFF0
0FFFFFFFF0
07FC000FF0
07F80001F0
07F80001F0
07F80000F0
07F80000F0
07F80000F0
07F80000F0
07F8000070
03F8000060
03F8000000
03F8000000
03F8000000
03F8000300
03F8000700
03F8000700
03F8000700
03F8000F00
03F800FF00
03FFFFFF00
03FFFFFF00
03FFFFFF00
03F8001F00
03F8000F00
03F8000700
03F8000700
03F8000700
03F8000300
03F8000000
03F8000000
03F8000000
03F8000008
03F800001C
03F800001C
03F800003C
03F8000038
03FC000078
03FC000078
03FC0000F8
07FC0003F0
07FF807FF0
07FFFFFFF0
1FFFFFFFF0
FFFFFFFFE0
FF00007FE0
ENDCHAR
STARTCHAR 00CA
ENCODING 202
SWIDTH 597 0
DWIDTH 43 0
BBX 38 64 3 -1
BITMAP
0000380000
00007C0000
0000FE0000
0001FE0000
0003FF0000
0007FF8000
000FCFC000
001F83E000
003F01F000
007C00F800
00F8003C00
00E0001E00
00C0000400
0000000000
0000000000
0000000000
0000000000
FFFFFFFFF0
FFFFFFFFF0
0FFFFFFFF0
07FC000FF0
07F80001F0
07F80001F0
07F80000F0
07F80000F0
07F80000F0
07F80000F0
07F8000070
03F8000060
03F8000000
03F8000000
03F8000000
03F8000300
03F8000700
03F8000700
03F8000700
03F8000F00
03F800FF00
03FFFFFF00
03FFFFFF00
03FFFFFF00
03F8001F00
03F8000F00
03F8000700
03F8000700
03F8000700
03F8000300
03F8000000
03F8000000
03F8000000
03F8000008
03F800001C
03F800001C
03F800003C
03F8000038
03FC000078
03FC000078
03FC0000F8
07FC0003F0
07FF807FF0
07FFFFFFF0
1FFFFFFFF0
FFFFFFFFE0
FF00007FE0
ENDCHAR
STARTCHAR 00CB
ENCODING 203
SWIDTH 597 0
DWIDTH 43 0
BBX 38 60 3 -1
BITMAP
0038003800
00FC00FC00
00FC00FC00
00FE00FE00
00FE00FE00
00FC00FC00
00FC00FC00
0038003800
0000000000
0000000000
0000000000
0000000000
0000000000
FFFFFFFFF0
FFFFFFFFF0
0FFFFFFFF0
07FC000FF0
07F80001F0
07F80001F0
07F80000F0
07F80000F0
07F80000F0
07F80000F0
07F8000070
03F8000060
03F8000000
03F8000000
03F8000000
03F8000300
03F8000700
03F8000700
03F8000700
03F8000F00
03F800FF00
03FFFFFF00
03FFFFFF00
03FFFFFF00
03F8001F00
03F8000F00
03F8000700
03F8000700
03F8000700
03F8000300
03F8000000
03F8000000
03F8000000
03F8000008
03F800001C
03F800001C
03F800003C
03F8000038
03FC000078
03FC000078
03FC0000F8
07FC0003F0
07FF807FF0
07FFFFFFF0
1FFFFFFFF0
FFFFFFFFE0
FF00007FE0
ENDCHAR
STARTCHAR 00CC
ENCODING 204
SWIDTH 347 0
DWIDTH 25 0
BBX 21 63 2 -1
BITMAP
1E0000
7F0000
7F8000
7FC000
1FE000
07F000
01F800
00FC00
003E00
000F00
000380
000000
000000
000000
000000
000000
7FFFF8
FFFFF8
07FF80
03FF00
01FE00
01FE00
01FE00
01FE00
01FC00
01FC00
01FC00
01FC00
01FC00
01FC00
01FC00
01FC00
01FC00
01FC00
01FC00
01FC00
01FC00
01FC00
01FC00
01FC00
01FC00
01FC00
01FC00
01FC00
01FC00
01FC00
01FC00
01FC00
01FC00
01FC00
01FC00
01FC00
01FE00
01FE00
01FE00
01FE00
01FE00
01FE00
03FE00
03FF00
0FFF80
FFFFF8
7FFFF8
ENDCHAR
STARTCHAR 00CD
ENCODING 205
SWIDTH 347 0
DWIDTH 25 0
BBX 23 63 1 -1
BITMAP
000070
0001FE
0003FE
0007FC
000FF0
001FC0
003F00
007C00
00F800
01E000
038000
000000
000000
000000
000000
000000
7FFFF8
FFFFF8
07FFC0
03FF80
01FF00
01FF00
01FF00
01FF00
01FF00
01FF00
01FF00
01FF00
01FE00
01FE00
01FE00
01FE00
01FE00
01FE00
01FE00
01FE00
01FE00
01FE00
01FE00
01FE00
01FE00
01FE00
01FE00
01FE00
01FE00
01FE00
01FE00
01FE00
01FE00
01FE00
01FE00
01FE00
01FF00
01FF00
01FF00
01FF00
01FF00
01FF00
03FF00
03FF00
0FFF80
FFFFF8
7FFFF8
ENDCHAR
STARTCHAR 00CE
ENCODING 206
SWIDTH 347 0
DWIDTH 25 0
BBX 23 64 1 -1
BITMAP
003800
007C00
00FE00
00FF00
01FF80
03FFC0
07E7E0
0FC3F0
1F00F8
3E007C
7C003E
F0000E
E00006
000000
000000
000000
000000
3FFFFE
3FFFFE
03FFC0
00FF80
00FF00
007F00
007F00
007F00
007F00
007F00
007E00
007E00
007E00
007E00
007E00
007E00
007E00
007E00
007E00
007E00
007E00
007E00
007E00
007E00
007E00
007E00
007E00
007E00
007E00
007E00
007E00
007E00
007F00
007F00
007F00
007F00
007F00
007F00
007F00
00FF00
00FF00
00FF00
00FF00
01FF80
03FFC0
3FFFFE
3FFFFE
ENDCHAR
STARTCHAR 00CF
ENCODING 207
SWIDTH 347 0
DWIDTH 25 0
BBX 22 60 1 -1
BITMAP
3C0078
7E00FC
7E00FC
FE01FC
FE01FC
7E00FC
7E00FC
3C0078
000000
000000
000000
000000
000000
7FFFFC
FFFFFC
03FFC0
01FF80
00FF00
00FF00
00FF00
00FF00
00FE00
00FE00
00FE00
00FE00
00FE00
00FE00
00FE00
00FE00
00FE00
00FE00
00FE00
00FE00
00FE00
00FE00
00FE00
00FE00
00FE00
00FE00
00FE00
00FE00
00FE00
00FE00
00FE00
00FE00
00FE00
00FE00
00FE00
00FE00
00FF00
00FF00
00FF00
00FF00
00FF00
00FF00
01FF00
01FF80
07FFC0
7FFFFC
3FFFFC
ENDCHAR
STARTCHAR 00D0
ENCODING 208
SWIDTH 791 0
DWIDTH 57 0
BBX 50 47 3 -1
BITMAP
FFFFFFFE000000
7FFFFFFFE00000
0FFFFFFFFC0000
07FF001FFF0000
03FC0003FF8000
03FC0000FFE000
03F800003FF000
03F800001FF800
03F800000FFC00
03F8000007FC00
03F8000003FE00
03F8000003FF00
03F8000001FF00
03F8000001FF00
03F8000000FF80
03F8000000FF80
03F8000000FF80
03F8000000FFC0
03F80000007FC0
03F80000007FC0
03F80000007FC0
FFFFFFE0007FC0
FFFFFFF0007FC0
FFFFFFF0007FC0
03F80000007FC0
03F80000007FC0
03F80000007FC0
03F80000007FC0
03F8000000FF80
03F8000000FF80
03F8000000FF80
03F8000000FF00
03F8000001FF00
03F8000001FF00
03F8000003FE00
03F8000003FE00
03F8000007FC00
03F800000FF800
03F800001FF000
03F800003FE000
03F800007FC000
07FC0000FF8000
07FC0007FF0000
0FFF003FFC0000
3FFFFFFFF00000
FFFFFFFFC00000
FC00FFF8000000
ENDCHAR
STARTCHAR 00D1
ENCODING 209
SWIDTH 777 0
DWIDTH 56 0
BBX 55 61 1 -1
BITMAP
000007C0008000
00001FF801C000
00003FFF078000
00007FFFFF0000
0000FFFFFE0000
0001E0FFFE0000
0001801FF80000
00010003F00000
00000000000000
00000000000000
00000000000000
00000000000000
00000000000000
00000000000000
7FFC00001FFFFE
FFFC00001FFFFE
3FFE000001FFE0
07FF0000007FC0
01FF8000003F80
01FF8000003F00
01FFC000001F00
00FFE000001F00
00FFF000001F00
00FFF800001F00
00FFFC00001F00
00F7FE00001F00
00F3FF00001E00
00F1FF80001E00
00F0FFC0001E00
00F0FFE0001E00
00F07FF0001E00
00F03FF0001E00
00F01FF8001E00
00F00FFC001E00
00F007FE001E00
00F003FF001E00
00F001FF801E00
00F000FFC01E00
00F0007FE01E00
00F0003FF01E00
00F0001FF81E00
00F0000FFC1E00
00F00007FE1E00
01F00007FF1E00
01F00003FF1E00
01F00001FF9E00
01F00000FFDE00
01F000007FFE00
01F000003FFE00
01F000001FFE00
01F000000FFE00
01F0000007FE00
01F0000003FE00
03F0000003FE00
03F0000001FE00
03F0000000FE00
07F80000007E00
0FF80000003E00
3FFE0000001E00
FFFFF000001E00
E003F000000C00
ENDCHAR
STARTCHAR 00D2
ENCODING 210
SWIDTH 791 0
DWIDTH 57 0
BBX 50 63 4 -1
BITMAP
0000F000000000
0003FC00000000
0003FE00000000
0001FE00000000
0000FF00000000
00003F80000000
00000FC0000000
000007E0000000
000001F0000000
0000007C000000
0000001E000000
00000000000000
00000000000000
00000000000000
00000000000000
00000000000000
00000FFE000000
0000FFFFE00000
0007FFFFF80000
001FE01FFE0000
003F8003FF0000
00FE0000FFC000
01FC00007FE000
03F800003FF000
07F000001FF800
0FF000000FF800
1FE0000007FC00
1FC0000007FE00
3FC0000003FE00
3FC0000003FF00
7F80000001FF00
7F80000001FF00
FF80000001FF80
FF80000000FF80
FF80000000FF80
FF80000000FF80
FF80000000FF80
FF80000000FF80
FF80000000FFC0
FF80000000FFC0
FF80000000FFC0
FF800000007F80
FF80000000FF80
FF80000000FF80
FF80000000FF80
FF80000000FF80
FFC0000000FF00
7FC0000000FF00
7FC0000000FF00
7FE0000001FE00
3FE0000001FE00
3FF0000001FC00
1FF0000003FC00
0FF8000003F800
0FFC000007F000
07FE00000FE000
03FF00001FC000
01FF80003F8000
007FE000FF0000
003FFC03FC0000
000FFFFFF00000
0003FFFFC00000
00003FFC000000
ENDCHAR
STARTCHAR 00D3
ENCODING 211
SWIDTH 791 0
DWIDTH 57 0
BBX 50 63 4 -1
BITMAP
00000003800000
0000000FF00000
0000001FF00000
0000003FE00000
0000007FC00000
000000FF000000
000001FC000000
000003F0000000
000007E0000000
00000F80000000
00001E00000000
00000000000000
00000000000000
00000000000000
00000000000000
00000000000000
00000FFE000000
0000FFFFE00000
0007FFFFF80000
001FE01FFE0000
003F8003FF0000
00FE0000FFC000
01FC00007FE000
03F800003FF000
07F000001FF800
0FF000000FF800
1FE0000007FC00
1FC0000007FE00
3FC0000003FE00
3FC0000003FF00
7F80000001FF00
7F80000001FF00
FF80000001FF80
FF80000000FF80
FF80000000FF80
FF80000000FF80
FF80000000FF80
FF80000000FF80
FF80000000FFC0
FF80000000FFC0
FF80000000FFC0
FF800000007F80
FF80000000FF80
FF80000000FF80
FF80000000FF80
FF80000000FF80
FFC0000000FF00
7FC0000000FF00
7FC0000000FF00
7FE0000001FE00
3FE0000001FE00
3FF0000001FC00
1FF0000003FC00
0FF8000003F800
0FFC000007F000
07FE00000FE000
03FF00001FC000
01FF80003F8000
007FE000FF0000
003FFC03FC0000
000FFFFFF00000
0003FFFFC00000
00003FFC000000
ENDCHAR
STARTCHAR 00D4
ENCODING 212
SWIDTH 791 0
DWIDTH 57 0
BBX 50 64 4 -1
BITMAP
000001C0000000
000003E0000000
000007F0000000
000007F8000000
00000FFC000000
00001FFE000000
00003F7F000000
00007C1F800000
0000F80FC00000
0001F003E00000
0003C001F00000
00078000700000
00060000300000
00000000000000
00000000000000
00000000000000
00000000000000
00000FFE000000
0000FFFFE00000
0007FFFFF80000
001FE01FFE0000
003F8003FF0000
00FE0000FFC000
01FC00007FE000
03F800003FF000
07F000001FF800
0FF000000FF800
1FE0000007FC00
1FC0000007FE00
3FC0000003FE00
3FC0000003FF00
7F80000001FF00
7F80000001FF00
FF80000001FF80
FF80000000FF80
FF80000000FF80
FF80000000FF80
FF80000000FF80
FF80000000FF80
FF80000000FFC0
FF80000000FFC0
FF80000000FFC0
FF800000007F80
FF80000000FF80
FF80000000FF80
FF80000000FF80
FF80000000FF80
FFC0000000FF00
7FC0000000FF00
7FC0000000FF00
7FE0000001FE00
3FE0000001FE00
3FF0000001FC00
1FF0000003FC00
0FF8000003F800
0FFC000007F000
07FE00000FE000
03FF00001FC000
01FF80003F8000
007FE000FF0000
003FFC03FC0000
000FFFFFF00000
0003FFFFC00000
00003FFC000000
ENDCHAR
STARTCHAR 00D5
ENCODING 213
SWIDTH 791 0
DWIDTH 57 0
BBX 50 61 4 -1
BITMAP
00007E000C0000
0000FFC01C0000
0003FFF0380000
0007FFFFF80000
0007FFFFF00000
000E07FFE00000
001C00FFC00000
0008001F000000
00000000000000
00000000000000
00000000000000
00000000000000
00000000000000
00000000000000
00000FFE000000
0000FFFFE00000
0007FFFFF80000
001FE01FFE0000
003F8003FF0000
00FE0000FFC000
01FC00007FE000
03F800003FF000
07F000001FF800
0FF000000FF800
1FE0000007FC00
1FC0000007FE00
3FC0000003FE00
3FC0000003FF00
7F80000001FF00
7F80000001FF00
FF80000001FF80
FF80000000FF80
FF80000000FF80
FF80000000FF80
FF80000000FF80
FF80000000FF80
FF80000000FFC0
FF80000000FFC0
FF80000000FFC0
FF800000007F80
FF80000000FF80
FF80000000FF80
FF80000000FF80
FF80000000FF80
FFC0000000FF00
7FC0000000FF00
7FC0000000FF00
7FE0000001FE00
3FE0000001FE00
3FF0000001FC00
1FF0000003FC00
0FF8000003F800
0FFC000007F000
07FE00000FE000
03FF00001FC000
01FF80003F8000
007FE000FF0000
003FFC03FC0000
000FFFFFF00000
0003FFFFC00000
00003FFC000000
ENDCHAR
STARTCHAR 00D6
ENCODING 214
SWIDTH 791 0
DWIDTH 57 0
BBX 50 60 4 -1
BITMAP
0001E001E00000
0003F003F00000
0003F003F00000
0003F003F00000
0003F803F80000
0003F003F00000
0003F003F00000
0001E001E00000
00000000000000
00000000000000
00000000000000
00000000000000
00000000000000
00000FFE000000
0000FFFFE00000
0007FFFFF80000
001FE01FFE0000
003F8003FF0000
00FE0000FFC000
01FC00007FE000
03F800003FF000
07F000001FF800
0FF000000FF800
1FE0000007FC00
1FC0000007FE00
3FC0000003FE00
3FC0000003FF00
7F80000001FF00
7F80000001FF00
FF80000001FF80
FF80000000FF80
FF80000000FF80
FF80000000FF80
FF80000000FF80
FF80000000FF80
FF80000000FFC0
FF80000000FFC0
FF80000000FFC0
FF800000007F80
FF80000000FF80
FF80000000FF80
FF80000000FF80
FF80000000FF80
FFC0000000FF00
7FC0000000FF00
7FC0000000FF00
7FE0000001FE00
3FE0000001FE00
3FF0000001FC00
1FF0000003FC00
0FF8000003F800
0FFC000007F000
07FE00000FE000
03FF00001FC000
01FF80003F8000
007FE000FF0000
003FFC03FC0000
000FFFFFF00000
0003FFFFC00000
00003FFC000000
ENDCHAR
STARTCHAR 00D7
ENCODING 215
SWIDTH 513 0
DWIDTH 37 0
BBX 26 27 6 9
BITMAP
20000100
F0000380
F80007C0
FC000FC0
7E003F80
3F007F00
1F80FE00
0FC1FC00
07E3F800
03F7F000
01FFE000
00FFC000
007F8000
003F0000
007F8000
00FFC000
01F7E000
03E3F000
07C1F800
0F80FC00
1F807E00
3F003F00
7E001F80
FC000F80
F80007C0
F0000380
20000100
ENDCHAR
STARTCHAR 00D8
ENCODING 216
SWIDTH 791 0
DWIDTH 57 0
BBX 50 53 4 -4
BITMAP
00000000001F00
00000000001E00
00000000003E00
00000FFE007C00
0000FFFFE0F800
0007FFFFFDF800
001FE01FFFF000
003F0003FFE000
00FE0000FFE000
01F800003FE000
03F000001FF000
07E000001FF800
0FE000003FFC00
1FC000007BFC00
1FC00000F3FE00
3F800000E1FE00
3F800001C1FF00
7F000003C0FF00
7F00000780FF80
7F00000F00FF80
FF00000E007F80
FF00001C007F80
FF00003C007F80
FF000078007F80
FF0000F0007F80
FF0000E0007FC0
FF0001E0007FC0
FF0003C0007FC0
FF000780003F80
FF000F00007F80
FF000E00007F80
FF001E00007F80
FF803C00007F80
FF807800007F00
7F80F000007F00
7FC0E000007F00
7FC1E00000FE00
3FE3C00000FE00
3FE7800001FC00
1FFF000001FC00
0FFE000003F800
0FFE000003F000
07FE000007E000
03FF00000FC000
01FF80001F8000
01FFE0007F0000
03FFFC03FC0000
03CFFFFFF00000
0781FFFFC00000
0F003FFC000000
1F000000000000
3E000000000000
3C000000000000
ENDCHAR
STARTCHAR 00D9
ENCODING 217
SWIDTH 722 0
DWIDTH 52 0
BBX 51 63 1 -1
BITMAP
00007800000000
0003FC00000000
0003FE00000000
0001FF00000000
0000FF80000000
00003FC0000000
00000FE0000000
000003F0000000
000000F8000000
0000007C000000
0000001E000000
00000000000000
00000000000000
00000000000000
00000000000000
00000000000000
FFFFF8007FFFE0
FFFFF8007FFFE0
1FFFE00007FF00
07FE000001FE00
07FC000001FC00
07FC000000FC00
03FC000000FC00
03FC000000FC00
03FC000000F800
03F8000000F800
03F8000000F800
03F8000000F800
03F8000000F800
03F8000000F800
03F8000000F800
03F8000000F800
03F8000000F800
03F8000000F800
03F8000000F800
03F8000000F800
03F8000000F800
03F8000000F800
03F8000000F800
03F8000000F800
03F8000000F800
03F8000000F800
03F8000000F800
03F8000000F800
03F8000000F800
03F8000000F800
03F8000000F800
03FC000000F800
03FC000000F800
03FC000000F000
01FC000001F000
01FC000001F000
01FE000001F000
01FE000003E000
00FF000007E000
00FF80000FC000
007FE0003F8000
007FFC01FF0000
003FFFFFFE0000
000FFFFFFC0000
0007FFFFF00000
0001FFFFC00000
00001FFE000000
ENDCHAR
STARTCHAR 00DA
ENCODING 218
SWIDTH 722 0
DWIDTH 52 0
BBX 51 63 1 -1
BITMAP
00000000F00000
00000001FC0000
00000003FE0000
00000007FC0000
0000000FF00000
0000001FC00000
0000003F000000
0000007E000000
000000F8000000
000001E0000000
00000380000000
00000000000000
00000000000000
00000000000000
00000000000000
00000000000000
FFFFF8007FFFE0
FFFFF8007FFFE0
1FFFE00007FF00
07FE000001FE00
07FC000001FC00
07FC000000FC00
03FC000000FC00
03FC000000FC00
03FC000000F800
03F8000000F800
03F8000000F800
03F8000000F800
03F8000000F800
03F8000000F800
03F8000000F800
03F8000000F800
03F8000000F800
03F8000000F800
03F8000000F800
03F8000000F800
03F8000000F800
03F8000000F800
03F8000000F800
03F8000000F800
03F8000000F800
03F8000000F800
03F8000000F800
03F8000000F800
03F8000000F800
03F8000000F800
03F8000000F800
03FC000000F800
03FC000000F800
03FC000000F000
01FC000001F000
01FC000001F000
01FE000001F000
01FE000003E000
00FF000007E000
00FF80000FC000
007FE0003F8000
007FFC01FF0000
003FFFFFFE0000
000FFFFFFC0000
0007FFFFF00000
0001FFFFC00000
00001FFE000000
ENDCHAR
STARTCHAR 00DB
ENCODING 219
SWIDTH 722 0
DWIDTH 52 0
BBX 51 64 1 -1
BITMAP
000000E0000000
000001F0000000
000003F8000000
000003FC000000
000007FE000000
00000FFF000000
00001F9F800000
00003F0FC00000
00007C03E00000
0000F801F00000
0001E000F80000
0003C000380000
00018000180000
00000000000000
00000000000000
00000000000000
00000000000000
FFFFF8007FFFE0
FFFFF8007FFFE0
1FFFE00007FF00
07FE000001FE00
07FC000001FC00
07FC000000FC00
03FC000000FC00
03FC000000FC00
03FC000000F800
03F8000000F800
03F8000000F800
03F8000000F800
03F8000000F800
03F8000000F800
03F8000000F800
03F8000000F800
03F8000000F800
03F8000000F800
03F8000000F800
03F8000000F800
03F8000000F800
03F8000000F800
03F8000000F800
03F8000000F800
03F8000000F800
03F8000000F800
03F8000000F800
03F8000000F800
03F8000000F800
03F8000000F800
03F8000000F800
03FC000000F800
03FC000000F800
03FC000000F000
01FC000001F000
01FC000001F000
01FE000001F000
01FE000003E000
00FF000007E000
00FF80000FC000
007FE0003F8000
007FFC01FF0000
003FFFFFFE0000
000FFFFFFC0000
0007FFFFF00000
0001FFFFC00000
00001FFE000000
ENDCHAR
STARTCHAR 00DC
ENCODING 220
SWIDTH 722 0
DWIDTH 52 0
BBX 51 60 1 -1
BITMAP
0000E000700000
0001F000F80000
0003F801FC0000
0003F801FC0000
0003F801FC0000
0003F801FC0000
0001F000F80000
0000E000700000
00000000000000
00000000000000
00000000000000
00000000000000
00000000000000
FFFFF8007FFFE0
FFFFF8007FFFE0
1FFFE00007FF00
07FE000001FE00
07FC000001FC00
07FC000000FC00
03FC000000FC00
03FC000000FC00
03FC000000F800
03F8000000F800
03F8000000F800
03F8000000F800
03F8000000F800
03F8000000F800
03F8000000F800
03F8000000F800
03F8000000F800
03F8000000F800
03F8000000F800
03F8000000F800
03F8000000F800
03F8000000F800
03F8000000F800
03F8000000F800
03F8000000F800
03F8000000F800
03F8000000F800
03F8000000F800
03F8000000F800
03F8000000F800
03F8000000F800
03FC000000F800
03FC000000F800
03FC000000F000
01FC000001F000
01FC000001F000
01FE000001F000
01FE000003E000
00FF000007E000
00FF80000FC000
007FE0003F8000
007FFC01FF0000
003FFFFFFE0000
000FFFFFFC0000
0007FFFFF00000
0001FFFFC00000
00001FFE000000
ENDCHAR
STARTCHAR 00DD
ENCODING 221
SWIDTH 611 0
DWIDTH 44 0
BBX 45 63 0 -1
BITMAP
000000078000
0000000FE000
0000001FF000
0000003FE000
0000007F8000
000000FE0000
000001FC0000
000003F00000
000007C00000
00000F000000
00001C000000
000000000000
000000000000
000000000000
000000000000
000000000000
FFFFC007FFF8
FFFFC007FFF8
7FFC0000FFE0
1FF800003F80
1FF800003F00
0FFC00003E00
07FC00003E00
07FE00007C00
03FE00007800
01FF0000F000
01FF0001E000
00FF8001E000
007F8003C000
007FC0038000
003FC0078000
001FE00F0000
001FF00E0000
000FF01C0000
0007F81C0000
0007F8380000
0003FC700000
0003FE700000
0001FFE00000
0000FFC00000
0000FFC00000
00007F800000
00007F800000
00007F800000
00003F800000
00003F800000
00003F800000
00003F800000
00003F800000
00003F800000
00003F800000
00003F800000
00003F800000
00007F800000
00007F800000
00007F800000
00007F800000
00007F800000
00007F800000
0000FFC00000
0007FFF00000
001FFFFF0000
001FFFFF0000
ENDCHAR
STARTCHAR 00DE
ENCODING 222
SWIDTH 569 0
DWIDTH 41 0
BBX 37 47 2 -1
BITMAP
FFFFF80000
FFFFF80000
0FFF800000
07FE000000
03FE000000
03FE000000
03FC000000
03FC000000
03FFFFC000
03FFFFF800
03FC07FE00
03F801FF80
03F8007FC0
03F8003FE0
03F8003FE0
03F8001FF0
03F8001FF0
03F8000FF0
03F8000FF8
03F8000FF8
03F8000FF8
03F8000FF8
03F8000FF8
03F8000FF8
03F8001FF0
03F8001FF0
03F8001FF0
03F8003FE0
03F8007FE0
03F800FFC0
03F801FF80
03F80FFE00
03FFFFFC00
03FFFFE000
03FFFF0000
03F8000000
03F8000000
03F8000000
03F8000000
07F8000000
07F8000000
07F8000000
07FC000000
0FFC000000
3FFF000000
FFFFF80000
FFFFF80000
ENDCHAR
STARTCHAR 00DF
ENCODING 223
SWIDTH 597 0
DWIDTH 43 0
BBX 38 52 2 -1
BITMAP
00000FF000
00007FFC00
0001FFFF00
0007FFFF00
000FFFFF80
001F80FFC0
003E007FC0
007C003FC0
00FC001FC0
00F8001FC0
01F8001FC0
01F8001FC0
03F8001FC0
03F0001F80
03F0001F80
03F0003F00
07F0003E00
07F0007C00
07F000F800
07F001F000
07F007E000
0FF00FC000
3FF01F8000
7FF03F8000
3FF03F0000
07F03F0000
07F07F8000
07F07F8000
07F07FC000
07F07FE000
07F03FF800
07F03FFC00
07F01FFF00
07F00FFF80
07F007FFE0
07F001FFF0
07F000FFF8
07F0003FF8
07F0001FFC
07F00007FC
07F00003FC
07F00001FC
07F00001FC
07F00001FC
07F00001FC
07F01801FC
07F03C01F8
07F87E03F0
0FF87F87E0
3FFE7FFFC0
FFFF3FFF00
FFFF0FFC00
ENDCHAR
STARTCHAR 00E0
ENCODING 224
SWIDTH 486 0
DWIDTH 35 0
BBX 33 48 3 -1
BITMAP
01E0000000
0FE0000000
0FF0000000
07F8000000
03FC000000
00FC000000
007E000000
001F000000
000F800000
0003800000
0001C00000
0000E00000
0000000000
0000000000
0000000000
0000000000
000FF00000
007FFC0000
01FFFE0000
07FFFF0000
0FFFFF8000
1F80FF8000
3F007F8000
7F007F8000
7F003F8000
7C003F8000
00003F8000
00003F8000
00003F8000
00003F8000
00003F8000
00003F8000
000FFF8000
01FFFF8000
0FF07F8000
3FC03F8000
7F003F8000
FE003F8000
FE003F8000
FE003F8000
FE003F8000
FF007F8080
FF81FFC780
FFFFFFFF00
7FFFFFFF00
7FFFBFFC00
3FFC1FF000
0FE00F8000
ENDCHAR
STARTCHAR 00E1
ENCODING 225
SWIDTH 486 0
DWIDTH 35 0
BBX 33 48 3 -1
BITMAP
00003C0000
00007F8000
0000FF0000
0000FF0000
0001FC0000
0003F80000
0007E00000
0007C00000
000F000000
001E000000
003C000000
0030000000
0000000000
0000000000
0000000000
0000000000
000FF00000
007FFC0000
01FFFE0000
07FFFF0000
0FFFFF8000
1F80FF8000
3F007F8000
7F007F8000
7F003F8000
7C003F8000
00003F8000
00003F8000
00003F8000
00003F8000
00003F8000
00003F8000
000FFF8000
01FFFF8000
0FF07F8000
3FC03F8000
7F003F8000
FE003F8000
FE003F8000
FE003F8000
FE003F8000
FF007F8080
FF81FFC780
FFFFFFFF00
7FFFFFFF00
7FFFBFFC00
3FFC1FF000
0FE00F8000
ENDCHAR
STARTCHAR 00E2
ENCODING 226
SWIDTH 486 0
DWIDTH 35 0
BBX 33 48 3 -1
BITMAP
0006000000
000F000000
001F800000
001F800000
003FC00000
007FE00000
00FFF00000
00F9F00000
01E0780000
03C03C0000
07801E0000
06000E0000
0000000000
0000000000
0000000000
0000000000
000FF00000
007FFC0000
01FFFE0000
07FFFF0000
0FFFFF8000
1F80FF8000
3F007F8000
7F007F8000
7F003F8000
7C003F8000
00003F8000
00003F8000
00003F8000
00003F8000
00003F8000
00003F8000
000FFF8000
01FFFF8000
0FF07F8000
3FC03F8000
7F003F8000
FE003F8000
FE003F8000
FE003F8000
FE003F8000
FF007F8080
FF81FFC780
FFFFFFFF00
7FFFFFFF00
7FFFBFFC00
3FFC1FF000
0FE00F8000
ENDCHAR
STARTCHAR 00E3
ENCODING 227
SWIDTH 486 0
DWIDTH 35 0
BBX 33 46 3 -1
BITMAP
00F8008000
01FC01C000
03FF038000
07FFC78000
0FFFFF0000
0E1FFE0000
1C07FE0000
1803FC0000
0000F00000
0000000000
0000000000
0000000000
0000000000
0000000000
000FF00000
007FFC0000
01FFFE0000
07FFFF0000
0FFFFF8000
1F80FF8000
3F007F8000
7F007F8000
7F003F8000
7C003F8000
00003F8000
00003F8000
00003F8000
00003F8000
00003F8000
00003F8000
000FFF8000
01FFFF8000
0FF07F8000
3FC03F8000
7F003F8000
FE003F8000
FE003F8000
FE003F8000
FE003F8000
FF007F8080
FF81FFC780
FFFFFFFF00
7FFFFFFF00
7FFFBFFC00
3FFC1FF000
0FE00F8000
ENDCHAR
STARTCHAR 00E4
ENCODING 228
SWIDTH 486 0
DWIDTH 35 0
BBX 33 44 3 -1
BITMAP
03800E0000
07C01F0000
0FE03F8000
0FE03F8000
0FE03F8000
07C01F0000
03800E0000
0000000000
0000000000
0000000000
0000000000
0000000000
000FF00000
007FFC0000
01FFFE0000
07FFFF0000
0FFFFF8000
1F80FF8000
3F007F8000
7F007F8000
7F003F8000
7C003F8000
00003F8000
00003F8000
00003F8000
00003F8000
00003F8000
00003F8000
000FFF8000
01FFFF8000
0FF07F8000
3FC03F8000
7F003F8000
FE003F8000
FE003F8000
FE003F8000
FE003F8000
FF007F8080
FF81FFC780
FFFFFFFF00
7FFFFFFF00
7FFFBFFC00
3FFC1FF000
0FE00F8000
ENDCHAR
STARTCHAR 00E5
ENCODING 229
SWIDTH 486 0
DWIDTH 35 0
BBX 33 48 3 -1
BITMAP
001FC00000
007FE00000
00F8F80000
00F0780000
01E03C0000
01E03C0000
01E03C0000
01E03C0000
00F0780000
00F8F80000
007FF00000
001FC00000
0000000000
0000000000
0000000000
0000000000
000FF00000
007FFC0000
01FFFE0000
07FFFF0000
0FFFFF8000
1F80FF8000
3F007F8000
7F007F8000
7F003F8000
7C003F8000
00003F8000
00003F8000
00003F8000
00003F8000
00003F8000
00003F8000
000FFF8000
01FFFF8000
0FF07F8000
3FC03F8000
7F003F8000
FE003F8000
FE003F8000
FE003F8000
FE003F8000
FF007F8080
FF81FFC780
FFFFFFFF00
7FFFFFFF00
7FFFBFFC00
3FFC1FF000
0FE00F8000
ENDCHAR
STARTCHAR 00E6
ENCODING 230
SWIDTH 680 0
DWIDTH 49 0
BBX 45 32 3 -1
BITMAP
000FF007F000
007FFC1FFE00
01FFFE7FFF00
0381FFF87F80
0F007FE03FC0
1F007FC01FC0
3F803FC00FE0
3F803FC007E0
7F003F8007F0
7C003F8007F0
00003F800FF8
00003F803FF8
00003F87FFF8
00003FFFFE00
0001FFFFC000
001FFFF80000
01FFFF800000
0FF87F800000
3FC03F800000
7F003F800000
7F003F800000
FE003FC00000
FE003FC00000
FE003FE00000
FE003FF00010
FE003FF80070
FF007FFE03F0
FF81FFFFFFE0
7FFFE7FFFF80
7FFF81FFFF00
3FFC00FFFC00
0FE0003FE000
ENDCHAR
STARTCHAR 00E7
ENCODING 231
SWIDTH 444 0
DWIDTH 32 0
BBX 27 47 3 -16
BITMAP
0003FC00
001FFF80
007FFFC0
01FFFFE0
03FFFFE0
07E03FC0
0FC00FC0
1F800300
1F000000
3F000000
7E000000
7E000000
7E000000
FE000000
FE000000
FE000000
FE000000
FE000000
FE000000
FF000000
FF000000
FF000000
FF800000
7FC00000
7FC00040
3FF001C0
3FFC07E0
1FFFFF80
0FFFFF00
07FFFC00
01FFF000
007F8000
00038000
00030000
00070000
000F8000
001FC000
001FE000
000FF000
0003F000
0001F000
0000F000
0060E000
0078E000
007FC000
007F8000
003E0000
ENDCHAR
STARTCHAR 00E8
ENCODING 232
SWIDTH 444 0
DWIDTH 32 0
BBX 27 48 3 -1
BITMAP
07800000
1FC00000
1FE00000
0FF00000
07F00000
01F80000
00FC0000
007E0000
001E0000
000F0000
00038000
00018000
00000000
00000000
00000000
00000000
001FC000
007FF800
01FFFC00
03E1FE00
07C07F00
0F807F80
1F003F80
3F001F80
3F001FC0
7E001FC0
7E003FE0
7E00FFE0
FE0FFFC0
FFFFF000
FFFC0000
FF800000
FE000000
FE000000
FF000000
FF000000
FF000000
FF000000
FF800000
7FC00000
7FC00040
3FF001C0
3FFC07C0
1FFFFF80
0FFFFF00
07FFFC00
03FFF000
007F8000
ENDCHAR
STARTCHAR 00E9
ENCODING 233
SWIDTH 444 0
DWIDTH 32 0
BBX 27 48 3 -1
BITMAP
00007800
0000FE00
0001FE00
0003FC00
0003F800
0007E000
000FC000
001F0000
001E0000
003C0000
00700000
00E00000
00000000
00000000
00000000
00000000
001FC000
007FF800
01FFFC00
03E1FE00
07C07F00
0F807F80
1F003F80
3F001F80
3F001FC0
7E001FC0
7E003FE0
7E00FFE0
FE0FFFC0
FFFFF000
FFFC0000
FF800000
FE000000
FE000000
FF000000
FF000000
FF000000
FF000000
FF800000
7FC00000
7FC00040
3FF001C0
3FFC07C0
1FFFFF80
0FFFFF00
07FFFC00
03FFF000
007F8000
ENDCHAR
STARTCHAR 00EA
ENCODING 234
SWIDTH 444 0
DWIDTH 32 0
BBX 27 48 3 -1
BITMAP
00060000
000F0000
001F8000
003F8000
003FC000
007FE000
00FFE000
01F9F000
01E0F800
03C03C00
07801E00
06000E00
00000000
00000000
00000000
00000000
001FC000
007FF800
01FFFC00
03E1FE00
07C07F00
0F807F80
1F003F80
3F001F80
3F001FC0
7E001FC0
7E003FE0
7E00FFE0
FE0FFFC0
FFFFF000
FFFC0000
FF800000
FE000000
FE000000
FF000000
FF000000
FF000000
FF000000
FF800000
7FC00000
7FC00040
3FF001C0
3FFC07C0
1FFFFF80
0FFFFF00
07FFFC00
03FFF000
007F8000
ENDCHAR
STARTCHAR 00EB
ENCODING 235
SWIDTH 444 0
DWIDTH 32 0
BBX 27 44 3 -1
BITMAP
07003800
0F807C00
1FC0FE00
1FC0FE00
1FC0FE00
0F807C00
07003800
00000000
00000000
00000000
00000000
00000000
001FC000
007FF800
01FFFC00
03E1FE00
07C07F00
0F807F80
1F003F80
3F001F80
3F001FC0
7E001FC0
7E003FE0
7E00FFE0
FE0FFFC0
FFFFF000
FFFC0000
FF800000
FE000000
FE000000
FF000000
FF000000
FF000000
FF000000
FF800000
7FC00000
7FC00040
3FF001C0
3FFC07C0
1FFFFF80
0FFFFF00
07FFFC00
03FFF000
007F8000
ENDCHAR
STARTCHAR 00EC
ENCODING 236
SWIDTH 291 0
DWIDTH 21 0
BBX 20 48 0 -1
BITMAP
1E0000
FF0000
FF8000
7F8000
1FC000
0FE000
03F000
01F000
007800
003C00
001E00
000600
000000
000000
000000
000000
000E00
007E00
01FE00
0FFC00
1FFC00
1FFC00
07FC00
01FC00
01FC00
01FC00
01FC00
01FC00
01FC00
01FC00
01FC00
01FC00
01FC00
01FC00
01FC00
01FC00
01FC00
01FC00
01FC00
01FC00
01FC00
01FC00
01FC00
03FE00
07FE00
3FFFC0
3FFFF0
3E0010
ENDCHAR
STARTCHAR 00ED
ENCODING 237
SWIDTH 291 0
DWIDTH 21 0
BBX 19 48 2 -1
BITMAP
000F00
001FE0
001FE0
003FC0
007F00
00FE00
00FC00
01F000
03E000
078000
070000
0C0000
000000
000000
000000
000000
003800
01F800
07F800
3FF800
7FF800
7FF800
1FF800
07F800
07F800
03F800
03F800
03F800
03F800
03F800
03F800
03F800
03F800
03F800
03F800
03F800
03F800
03F800
03F800
07F800
07F800
07F800
07F800
0FF800
1FF800
FFFF00
FFFFC0
F800C0
ENDCHAR
STARTCHAR 00EE
ENCODING 238
SWIDTH 291 0
DWIDTH 21 0
BBX 19 48 1 -1
BITMAP
00C000
01E000
03E000
07F000
07F800
0FF800
1FFC00
1E3E00
3C1E00
780F00
700780
E00380
000000
000000
000000
000000
001C00
00FC00
03FC00
1FF800
3FF800
3FF800
0FF800
07F800
03F800
03F800
03F800
03F800
03F800
03F800
03F800
03F800
03F800
03F800
03F800
03F800
03F800
03F800
03F800
03F800
03F800
03F800
07F800
07F800
0FFC00
7FFF00
7FFFE0
7C0020
ENDCHAR
STARTCHAR 00EF
ENCODING 239
SWIDTH 291 0
DWIDTH 21 0
BBX 20 44 0 -1
BITMAP
3C01E0
7E03F0
7E07F0
FE07F0
7E03F0
7E03F0
3C01E0
000000
000000
000000
000000
000000
000E00
007E00
01FE00
0FFE00
1FFC00
1FFC00
07FC00
01FC00
01FC00
01FC00
01FC00
01FC00
01FC00
01FC00
01FC00
01FC00
01FC00
01FC00
01FC00
01FC00
01FC00
01FC00
01FC00
01FC00
01FC00
01FC00
01FE00
03FE00
07FE00
3FFFC0
3FFFF0
3E0010
ENDCHAR
STARTCHAR 00F0
ENCODING 240
SWIDTH 555 0
DWIDTH 40 0
BBX 34 52 3 -1
BITMAP
0060010000
0078038000
007C078000
003E0F0000
001F1E0000
000FBC0000
0007F80000
0003F00000
0003F00000
0007F80000
000FFC0000
001E7E0000
003C7F0000
00783F0000
00F01F8000
00600FC000
00000FE000
000007E000
000003F000
000003F800
000FF1F800
003FFDFC00
00FFFFFC00
03F81FFE00
07E007FE00
0FC003FF00
1F8001FF00
3F0000FF00
3F0000FF80
7F00007F80
7E00007F80
7E00003FC0
FE00003FC0
FE00003FC0
FE00001FC0
FE00001FC0
FE00001FC0
FE00001FC0
FE00001FC0
FF00001FC0
FF00001F80
7F00001F80
7F80003F00
7F80003F00
3FC0003E00
3FE0007E00
1FF000FC00
0FF801F800
07FE07E000
01FFFFC000
00FFFF0000
001FF80000
ENDCHAR
STARTCHAR 00F1
ENCODING 241
SWIDTH 597 0
DWIDTH 43 0
BBX 40 46 2 -1
BITMAP
0003C00200
000FF00600
001FF80E00
001FFE1C00
003FFFFC00
0078FFF800
00603FF000
00600FE000
000003C000
0000000000
0000000000
0000000000
0000000000
0000000000
003001F800
01F00FFE00
07F07FFF00
1FF1FFFF80
7FF7FFFF80
FFFF81FF80
3FFC007FC0
0FF0003FC0
07F0003FC0
07F0001FC0
07F0001FC0
07F0001FC0
07F0001FC0
07F0001FC0
07F0001FC0
07F0001FC0
07F0001FC0
07F0001FC0
07F0001FC0
07F0001FC0
07F0001FC0
07F0001FC0
07F0001FC0
07F0001FC0
07F0001FC0
07F0001FC0
07F0001FC0
07F0001FE0
0FF8003FE0
3FFE00FFF0
FFFF83FFFF
FFFF83FFFF
ENDCHAR
STARTCHAR 00F2
ENCODING 242
SWIDTH 555 0
DWIDTH 40 0
BBX 34 48 3 -1
BITMAP
0078000000
01FC000000
01FE000000
00FF000000
007F000000
001F800000
000FC00000
0007E00000
0001E00000
0000F00000
0000380000
0000180000
0000000000
0000000000
0000000000
0000000000
0007FC0000
003FFF8000
00FFFFE000
03F83FF000
07E007FC00
0FC003FC00
1F8001FE00
3F0000FF00
3F0000FF00
7F00007F80
7E00007F80
7E00003F80
FE00003FC0
FE00003FC0
FE00001FC0
FE00001FC0
FE00001FC0
FE00001FC0
FE00001FC0
FF00001F80
FF00001F80
7F00001F80
7F80003F00
7F80003F00
3FC0003E00
3FE0007E00
1FF000FC00
0FF801F800
07FE07E000
01FFFFC000
00FFFF0000
001FF80000
ENDCHAR
STARTCHAR 00F3
ENCODING 243
SWIDTH 555 0
DWIDTH 40 0
BBX 34 48 3 -1
BITMAP
0000078000
00000FE000
00001FE000
00003FC000
00003F8000
00007E0000
0000FC0000
0001F00000
0001E00000
0003C00000
0007000000
0006000000
0000000000
0000000000
0000000000
0000000000
0007FC0000
003FFF8000
00FFFFE000
03F83FF000
07E007FC00
0FC003FC00
1F8001FE00
3F0000FF00
3F0000FF00
7F00007F80
7E00007F80
7E00003F80
FE00003FC0
FE00003FC0
FE00001FC0
FE00001FC0
FE00001FC0
FE00001FC0
FE00001FC0
FF00001F80
FF00001F80
7F00001F80
7F80003F00
7F80003F00
3FC0003E00
3FE0007E00
1FF000FC00
0FF801F800
07FE07E000
01FFFFC000
00FFFF0000
001FF80000
ENDCHAR
STARTCHAR 00F4
ENCODING 244
SWIDTH 555 0
DWIDTH 40 0
BBX 34 48 3 -1
BITMAP
0000C00000
0001E00000
0003F00000
0007F00000
000FF80000
000FFC0000
001FFE0000
003E3E0000
007C1F0000
00F8078000
00E003C000
01C001C000
0000000000
0000000000
0000000000
0000000000
0007FC0000
003FFF8000
00FFFFE000
03F81FF000
07E007FC00
0FC003FC00
1FC001FE00
3F8000FF00
3F8000FF00
7F00007F80
7F00007F80
7F00003F80
FF00003FC0
FF00003FC0
FF00001FC0
FF00001FC0
FF00001FC0
FF00001FC0
FF00001FC0
FF00001F80
FF80001F80
7F80001F80
7F80003F00
7FC0003F00
3FE0003E00
3FE0007E00
1FF000FC00
0FFC01F800
07FF07E000
01FFFFC000
00FFFF0000
001FF80000
ENDCHAR
STARTCHAR 00F5
ENCODING 245
SWIDTH 555 0
DWIDTH 40 0
BBX 34 46 3 -1
BITMAP
001E001000
003F803000
007FC07000
00FFF0E000
01FFFFE000
03C7FFC000
0381FF8000
03007F0000
00001E0000
0000000000
0000000000
0000000000
0000000000
0000000000
0007FC0000
003FFF8000
00FFFFE000
03F83FF000
07E007FC00
0FC003FC00
1F8001FE00
3F0000FF00
3F0000FF00
7F00007F80
7E00007F80
7E00003F80
FE00003FC0
FE00003FC0
FE00001FC0
FE00001FC0
FE00001FC0
FE00001FC0
FE00001FC0
FF00001F80
FF00001F80
7F00001F80
7F80003F00
7F80003F00
3FC0003E00
3FE0007E00
1FF000FC00
0FF801F800
07FE07E000
01FFFFC000
00FFFF0000
001FF80000
ENDCHAR
STARTCHAR 00F6
ENCODING 246
SWIDTH 555 0
DWIDTH 40 0
BBX 34 44 3 -1
BITMAP
0070038000
00F807C000
01FC0FE000
01FC0FE000
01FC0FE000
00F807C000
0070038000
0000000000
0000000000
0000000000
0000000000
0000000000
0007FC0000
003FFF8000
00FFFFE000
03F83FF000
07E007FC00
0FC003FC00
1F8001FE00
3F0000FF00
3F0000FF00
7F00007F80
7E00007F80
7E00003F80
FE00003FC0
FE00003FC0
FE00001FC0
FE00001FC0
FE00001FC0
FE00001FC0
FE00001FC0
FF00001F80
FF00001F80
7F00001F80
7F80003F00
7F80003F00
3FC0003E00
3FE0007E00
1FF000FC00
0FF801F800
07FE07E000
01FFFFC000
00FFFF0000
001FF80000
ENDCHAR
STARTCHAR 00F7
ENCODING 247
SWIDTH 513 0
DWIDTH 37 0
BBX 29 28 4 9
BITMAP
00070000
000FC000
000FC000
001FC000
000FC000
000FC000
00070000
00000000
00000000
00000000
00000000
00000000
FFFFFFF8
FFFFFFF8
FFFFFFF8
FFFFFFF8
00000000
00000000
00000000
00000000
00000000
00070000
000FC000
000FC000
001FC000
000FC000
000FC000
00070000
ENDCHAR
STARTCHAR 00F8
ENCODING 248
SWIDTH 555 0
DWIDTH 40 0
BBX 34 37 3 -4
BITMAP
0000000380
0000000780
0007FC0F00
003FFF9E00
00FFFFFC00
03F83FF800
07E00FF800
0FC003FC00
1F8001FE00
3F0003FF00
3F0007FF00
7F000F7F80
7E000E7F80
7E001C3F80
FE003C3FC0
FE00783FC0
FE00701FC0
FE00E01FC0
FE01E01FC0
FE03C01FC0
FE03801FC0
FF07001FC0
FF0F001F80
7F9E001F80
7FBC003F00
7FF8003F00
3FF8003E00
3FF0007E00
1FF000FC00
0FFC01F800
07FF07E000
0FFFFFC000
0E7FFF0000
1C0FF80000
3800000000
7800000000
7000000000
ENDCHAR
STARTCHAR 00F9
ENCODING 249
SWIDTH 597 0
DWIDTH 43 0
BBX 40 48 2 -1
BITMAP
000F000000
007F000000
007F800000
003FC00000
001FE00000
0007E00000
0003F00000
0000F80000
00007C0000
00001C0000
00000E0000
0000030000
0000000000
0000000000
0000000000
0000000000
00F00007C0
07F00FFFC0
7FF00FFFC0
FFF000FFC0
FFF0003FC0
1FE0003FC0
0FE0003F80
0FE0003F80
0FE0003F80
0FE0003F80
0FE0003F80
0FE0003F80
0FE0003F80
0FE0003F80
0FE0003F80
0FE0003F80
0FE0003F80
0FE0003F80
0FE0003F80
0FE0003F80
0FE0003F80
0FE0003F80
0FF0003F80
0FF0003F80
0FF0003F80
0FF8007F80
07FE03FFC0
07FFFFFFFF
03FFFF9FFF
01FFFC1FFC
00FFF01FC0
003F801E00
ENDCHAR
STARTCHAR 00FA
ENCODING 250
SWIDTH 597 0
DWIDTH 43 0
BBX 40 48 2 -1
BITMAP
000001E000
000003FC00
000007F800
000007F800
00000FE000
00001FC000
00003F0000
00003E0000
0000780000
0000F00000
0001C00000
0001800000
0000000000
0000000000
0000000000
0000000000
00F00007C0
07F00FFFC0
7FF00FFFC0
FFF000FFC0
FFF0003FC0
1FE0003FC0
0FE0003F80
0FE0003F80
0FE0003F80
0FE0003F80
0FE0003F80
0FE0003F80
0FE0003F80
0FE0003F80
0FE0003F80
0FE0003F80
0FE0003F80
0FE0003F80
0FE0003F80
0FE0003F80
0FE0003F80
0FE0003F80
0FF0003F80
0FF0003F80
0FF0003F80
0FF8007F80
07FE03FFC0
07FFFFFFFF
03FFFF9FFF
01FFFC1FFC
00FFF01FC0
003F801E00
ENDCHAR
STARTCHAR 00FB
ENCODING 251
SWIDTH 597 0
DWIDTH 43 0
BBX 40 48 2 -1
BITMAP
0000300000
0000780000
0000FC0000
0000FC0000
0001FE0000
0003FF0000
0007FF8000
0007CF8000
000F03C000
001E01E000
003C00F000
0038007000
0000000000
0000000000
0000000000
0000000000
00F00007C0
07F00FFFC0
7FF00FFFC0
FFF000FFC0
FFF0003FC0
1FE0003FC0
0FE0003F80
0FE0003F80
0FE0003F80
0FE0003F80
0FE0003F80
0FE0003F80
0FE0003F80
0FE0003F80
0FE0003F80
0FE0003F80
0FE0003F80
0FE0003F80
0FE0003F80
0FE0003F80
0FE0003F80
0FE0003F80
0FF0003F80
0FF0003F80
0FF0003F80
0FF8007F80
07FE03FFC0
07FFFFFFFF
03FFFF9FFF
01FFFC1FFC
00FFF01FC0
003F801E00
ENDCHAR
STARTCHAR 00FC
ENCODING 252
SWIDTH 597 0
DWIDTH 43 0
BBX 40 44 2 -1
BITMAP
001C00E000
003E01F000
007F03F800
007F03F800
007F03F800
003E01F000
001C00E000
0000000000
0000000000
0000000000
0000000000
0000000000
00F00007C0
07F00FFFC0
7FF00FFFC0
FFF000FFC0
FFF0003FC0
1FE0003FC0
0FE0003F80
0FE0003F80
0FE0003F80
0FE0003F80
0FE0003F80
0FE0003F80
0FE0003F80
0FE0003F80
0FE0003F80
0FE0003F80
0FE0003F80
0FE0003F80
0FE0003F80
0FE0003F80
0FE0003F80
0FE0003F80
0FF0003F80
0FF0003F80
0FF0003F80
0FF8007F80
07FE03FFC0
07FFFFFFFF
03FFFF9FFF
01FFFC1FFC
00FFF01FC0
003F801E00
ENDCHAR
STARTCHAR 00FD
ENCODING 253
SWIDTH 444 0
DWIDTH 32 0
BBX 34 66 0 -19
BITMAP
00000F0000
00001FC000
00003FC000
00007F8000
00007F0000
0000FC0000
0001F80000
0003E00000
0007C00000
0007800000
000E000000
001C000000
0000000000
0000000000
0000000000
0000000000
FFFE03FFC0
FFFE03FFC0
7FF800FF00
3FE0003E00
1FE0003E00
1FE0003C00
0FE0007800
0FF0007800
07F000F000
07F000F000
07F800E000
03F801E000
03F801C000
01FC038000
01FC038000
01FC070000
00FE070000
00FE060000
00FE0E0000
007F0C0000
007F1C0000
003F980000
003FB80000
003FB00000
001FF00000
001FE00000
001FE00000
000FC00000
000FC00000
0007800000
0007800000
0007000000
0007000000
0006000000
000E000000
001C000000
001C000000
0038000000
0078000000
0070000000
00F0000000
01F0000000
01E0000000
03E0000000
07C0000000
1FC0000000
3F80000000
7F80000000
7F00000000
7C00000000
ENDCHAR
STARTCHAR 00FE
ENCODING 254
SWIDTH 569 0
DWIDTH 41 0
BBX 37 70 2 -19
BITMAP
0078000000
03F8000000
3FF0000000
FFF0000000
FFF0000000
1FF0000000
0FF0000000
0FF0000000
07F0000000
07F0000000
07F0000000
07F0000000
07F0000000
07F0000000
07F0000000
07F0000000
07F0000000
07F0000000
07F0000000
07F0000000
07F00FE000
07F0FFFC00
07F7FFFE00
07FFFFFF00
07FE03FF80
07F000FFC0
07F0007FE0
07F0003FE0
07F0001FF0
07F0000FF0
07F0000FF0
07F00007F8
07F00007F8
07F00007F8
07F00003F8
07F00003F8
07F00003F8
07F00003F8
07F00003F0
07F00003F0
07F00003F0
07F00007E0
07F00007E0
07F00007C0
07F0000FC0
07F0001F80
07FC003F00
07FF80FE00
07FFFFFC00
07FFFFF000
07FFFFC000
07F3FE0000
07F0000000
07F0000000
07F0000000
07F0000000
07F0000000
07F0000000
07F0000000
07F0000000
07F0000000
07F0000000
07F0000000
0FF0000000
0FF0000000
0FF0000000
1FF8000000
3FFC000000
FFFFC00000
FFFFC00000
ENDCHAR
STARTCHAR 00FF
ENCODING 255
SWIDTH 444 0
DWIDTH 32 0
BBX 34 62 0 -19
BITMAP
007001C000
01F807E000
01FC07F000
01FC07F000
01FC07F000
01F807E000
007001C000
0000000000
0000000000
0000000000
0000000000
0000000000
FFFE03FFC0
FFFE03FFC0
7FF800FF00
3FE0003E00
1FE0003E00
1FE0003C00
0FE0007800
0FF0007800
07F000F000
07F000F000
07F800E000
03F801E000
03F801C000
01FC038000
01FC038000
01FC070000
00FE070000
00FE060000
00FE0E0000
007F0C0000
007F1C0000
003F980000
003FB80000
003FB00000
001FF00000
001FE00000
001FE00000
000FC00000
000FC00000
0007800000
0007800000
0007000000
0007000000
0006000000
000E000000
001C000000
001C000000
0038000000
0078000000
0070000000
00F0000000
01F0000000
01E0000000
03E0000000
07C0000000
1FC0000000
3F80000000
7F80000000
7F00000000
7C00000000
ENDCHAR
STARTCHAR 0131
ENCODING 305
SWIDTH 291 0
DWIDTH 21 0
BBX 18 32 2 -1
BITMAP
003800
01F800
07F800
3FF800
7FF800
7FF800
1FF800
07F800
07F800
03F800
03F800
03F800
03F800
03F800
03F800
03F800
03F800
03F800
03F800
03F800
03F800
03F800
03F800
07F800
07F800
07F800
07F800
0FF800
1FF800
FFFF00
FFFFC0
F800C0
ENDCHAR
STARTCHAR 0141
ENCODING 321
SWIDTH 555 0
DWIDTH 40 0
BBX 38 47 2 -1
BITMAP
7FFFF80000
7FFFF80000
07FFC00000
03FE000000
03FE000000
01FC000000
01FC000000
01FC000000
01FC000000
01FC000000
01FC002000
01FC006000
01FC01E000
01FC03E000
01FC07C000
01FC1F8000
01FC3E0000
01FCFC0000
01FFF00000
01FFC00000
01FF800000
01FE000000
01FC000000
03FC000000
07FC000000
1FFC000000
3FFC000000
7DFC000000
F9FC000000
E1FC000000
C1FC000000
81FC000000
01FC000000
01FC00000C
01FC00001C
03FC00001C
03FC00001C
03FC00001C
03FC00003C
03FC000078
03FE000078
03FE0001F8
03FF000FF8
07FFFFFFF0
3FFFFFFFF0
FFFFFFFFF0
FFC00000F0
ENDCHAR
STARTCHAR 0142
ENCODING 322
SWIDTH 291 0
DWIDTH 21 0
BBX 20 52 1 -1
BITMAP
003C00
01FC00
0FFC00
7FFC00
7FFC00
0FF800
07F800
03F800
03F800
03F800
03F800
03F800
03F800
03F800
03F800
03F800
03F800
03F820
03F860
03F8E0
03FBE0
03FFC0
03FF00
03FE00
03FC00
03F800
0FF800
1FF800
7FF800
FBF800
F3F800
C3F800
83F800
03F800
03F800
03F800
03F800
03F800
03F800
03F800
03F800
03F800
03F800
03F800
03F800
03FC00
03FC00
03FC00
07FC00
1FFF00
7FFFF0
7FFFF0
ENDCHAR
STARTCHAR 0152
ENCODING 338
SWIDTH 1041 0
DWIDTH 75 0
BBX 69 47 4 -1
BITMAP
00000FFFFFFFFFFFE0
0000FFFFFFFFFFFFE0
0007FFFFFFFFFFFFE0
001FF801FFF8001FE0
003FC0007FF00003E0
00FF00001FF00003E0
01FE00001FF00001E0
03FC00000FF00001E0
07F800000FF00001E0
0FF000000FF00001E0
1FE000000FF00001C0
1FE000000FF00000C0
3FC000000FF0000000
3FC000000FF0000000
7FC000000FF0000000
7F8000000FF0000600
7F8000000FF0000E00
FF8000000FF0000E00
FF8000000FF0000E00
FF8000000FF0001E00
FF8000000FF001FE00
FF8000000FFFFFFE00
FF8000000FFFFFFE00
FF8000000FFFFFFE00
FF8000000FF0003E00
FF8000000FF0001E00
FF8000000FF0000E00
FF8000000FF0000E00
FF8000000FF0000E00
FF8000000FF0000600
FFC000000FF0000000
7FC000000FF0000000
7FC000000FF0000000
7FE000000FF0000000
3FE000000FF0000038
3FF000000FF0000038
1FF000000FF0000078
1FF800000FF0000070
0FFC00000FF00000F0
07FE00001FF00000F0
03FF00001FF00001F0
01FF80001FF00007E0
007FE0003FF8003FE0
003FFE00FFFFFFFFE0
000FFFFFFFFFFFFFE0
0001FFFFFFFFFFFFC0
00001FFF8000007FC0
ENDCHAR
STARTCHAR 0153
ENCODING 339
SWIDTH 819 0
DWIDTH 59 0
BBX 54 32 3 -1
BITMAP
0007FC0007F800
003FFF803FFE00
00FFFFE0FFFF80
03F81FF1F83FC0
07E007FBF01FE0
0FC003FFE00FE0
1F8001FFE00FF0
3F0000FFC007F0
3F0000FFC007F8
7F00007FC007F8
7E00007FC007FC
7E00003FC03FFC
FE00003FC3FFF8
FE00003FFFFC00
FE00003FFF0000
FE00001FE00000
FE00001FC00000
FE00001FC00000
FE00001FC00000
FF00001FC00000
FF00003FE00000
7F00003FE00000
7F80003FF00000
7F80003FF00000
3FC0007FF80008
1FE0007FFC0038
1FF000FFFF01F8
0FF801F3FFFFF0
07FE07E1FFFFC0
01FFFF80FFFF80
00FFFE007FFE00
001FF0000FF000
ENDCHAR
STARTCHAR 0160
ENCODING 352
SWIDTH 555 0
DWIDTH 40 0
BBX 33 65 3 -1
BITMAP
0300003000
0780007800
03C000F000
01F003E000
00F807C000
007C0F8000
003F3F0000
001FFE0000
000FFC0000
0007F80000
0003F80000
0003F00000
0001E00000
0000000000
0000000000
0000000000
0000000000
0000000000
0007FFFE00
003FFFFE00
00FFFFFE00
03FC07FE00
07F000FE00
0FE0007E00
0FC0003E00
1FC0001E00
1F80001E00
3F80000E00
3F80000E00
3F80000600
3F80000000
3FC0000000
3FC0000000
3FE0000000
1FF0000000
1FFC000000
0FFF000000
0FFFC00000
07FFF80000
03FFFE0000
00FFFF8000
003FFFC000
000FFFF000
0003FFF800
0000FFFC00
00003FFE00
00000FFF00
000003FF00
000000FF80
0000007F80
0000007F80
E000003F80
E000003F80
E000003F80
F000003F80
F000003F80
F800003F00
F800007F00
FC00007E00
7E0000FE00
7F8003FC00
7FF00FF800
7FFFFFE000
7FFFFF8000
603FFC0000
ENDCHAR
STARTCHAR 0161
ENCODING 353
SWIDTH 402 0
DWIDTH 29 0
BBX 23 49 3 -1
BITMAP
100018
3C0038
1E00F0
0F01E0
0783E0
03E7C0
03FF80
01FF00
00FF00
00FE00
007C00
003C00
001000
000000
000000
000000
000000
007FFC
03FFFC
0FFFFC
1FC1FC
3F807C
3F003C
7F001C
7F001C
7F000C
7F8000
7FC000
3FE000
3FF800
1FFE00
0FFF80
07FFE0
03FFF0
00FFF8
003FFC
000FFC
0003FE
C001FE
E000FE
E000FE
E000FE
F000FE
F800FC
FC01FC
FF03F8
FFFFF0
FFFFC0
03FE00
ENDCHAR
STARTCHAR 0178
ENCODING 376
SWIDTH 611 0
DWIDTH 44 0
BBX 45 60 0 -1
BITMAP
000700070000
001F801F8000
001F801F8000
001FC01FC000
001FC01FC000
001F801F8000
001F800F8000
000700070000
000000000000
000000000000
000000000000
000000000000
000000000000
FFFFC007FFF8
FFFFC007FFF8
7FFC0000FFE0
1FF800003F80
1FF800003F00
0FFC00003E00
07FC00003E00
07FE00007C00
03FE00007800
01FF0000F000
01FF0001E000
00FF8001E000
007F8003C000
007FC0038000
003FC0078000
001FE00F0000
001FF00E0000
000FF01C0000
0007F81C0000
0007F8380000
0003FC700000
0003FE700000
0001FFE00000
0000FFC00000
0000FFC00000
00007F800000
00007F800000
00007F800000
00003F800000
00003F800000
00003F800000
00003F800000
00003F800000
00003F800000
00003F800000
00003F800000
00003F800000
00007F800000
00007F800000
00007F800000
00007F800000
00007F800000
00007F800000
0000FFC00000
0007FFF00000
001FFFFF0000
001FFFFF0000
ENDCHAR
STARTCHAR 017D
ENCODING 381
SWIDTH 625 0
DWIDTH 45 0
BBX 41 65 2 -1
BITMAP
001800008000
001C0003C000
001F00078000
000F801F0000
0007C03E0000
0003F07C0000
0001F9F80000
0000FFF00000
00007FF00000
00003FE00000
00001FC00000
00000F800000
000007000000
000000000000
000000000000
000000000000
000000000000
000000000000
07FFFFFFFF80
0FFFFFFFFF80
0FFFFFFFFF00
0FFFFFFFFF00
0FFC0003FE00
1FC00003FC00
1F000007F800
1E00000FF800
1E00000FF000
1C00001FE000
3C00003FC000
3800007FC000
3800007F8000
000000FF0000
000001FE0000
000001FE0000
000003FC0000
000007F80000
00000FF00000
00000FF00000
00001FE00000
00003FC00000
00003F800000
00007F800000
0000FF000000
0001FE000000
0001FC000000
0003FC000000
0007F8000000
000FF0000000
000FF0000000
001FE0000000
003FC0000000
007FC0000180
007F80000380
00FF00000380
01FE00000380
03FE00000780
03FC00000F80
07F800000F80
0FF800003F00
1FF00000FF00
3FE000FFFF00
7FFFFFFFFE00
FFFFFFFFFE00
FFFFFFFFFE00
F00000000C00
ENDCHAR
STARTCHAR 017E
ENCODING 382
SWIDTH 444 0
DWIDTH 32 0
BBX 30 49 1 -1
BITMAP
008000C0
01E003C0
00F00780
00780F00
003C1F00
001F3E00
001FFC00
000FF800
0007F800
0007F000
0003E000
0001E000
00008000
00000000
00000000
00000000
00000000
0FFFFFFC
0FFFFFFC
1FFFFFF8
1FFC0FF0
1F000FE0
1E001FE0
1C003FC0
38003F80
38007F00
3000FE00
0001FE00
0001FC00
0003F800
0007F000
0007F000
000FE000
001FC000
003F8000
003F8000
007F0000
00FE0000
01FE000C
01FC001C
03F8001C
07F8003C
0FF00078
1FE000F8
3FC003F8
3FDFFFF0
7FFFFFF0
FFFFFFF0
FE000060
ENDCHAR
STARTCHAR 0192
ENCODING 402
SWIDTH 513 0
DWIDTH 37 0
BBX 41 58 -2 -12
BITMAP
00000001FC00
0000000FFF00
0000001FFF80
0000007C3F80
000000F01F80
000001F00F80
000003E00F80
000007C00700
00000FC00000
00000FC00000
00001F800000
00001F800000
00001F800000
00003F800000
00003F000000
00007F000000
00007F000000
00007F000000
00007F000000
0000FE000000
0000FE000000
0001FFFC0000
001FFFFC0000
003FFFFC0000
0001FC000000
0001FC000000
0001FC000000
0001FC000000
0001FC000000
0001FC000000
0003F8000000
0003F8000000
0003F8000000
0003F8000000
0003F8000000
0007F0000000
0007F0000000
0007F0000000
0007F0000000
0007F0000000
0007E0000000
000FE0000000
000FE0000000
000FE0000000
000FC0000000
000FC0000000
000FC0000000
001F80000000
001F80000000
001F00000000
001F00000000
003E00000000
303E00000000
783C00000000
7C7800000000
FFF000000000
7FC000000000
3F0000000000
ENDCHAR
STARTCHAR 02C6
ENCODING 710
SWIDTH 500 0
DWIDTH 36 0
BBX 18 13 9 34
BITMAP
00C000
01E000
03F000
03F000
07F800
0FFC00
0FFC00
1F3E00
3E1F00
780780
F00380
E001C0
C000C0
ENDCHAR
STARTCHAR 02C7
ENCODING 711
SWIDTH 500 0
DWIDTH 36 0
BBX 18 13 9 35
BITMAP
C000C0
E001C0
F00380
7C0F80
3E1F00
1F3E00
0FFE00
0FFC00
07F800
03F000
03F000
01E000
00C000
ENDCHAR
STARTCHAR 02C9
ENCODING 713
SWIDTH 500 0
DWIDTH 36 0
BBX 22 5 7 37
BITMAP
FFFFFC
FFFFFC
FFFFFC
FFFFFC
FFFFFC
ENDCHAR
STARTCHAR 02D8
ENCODING 728
SWIDTH 500 0
DWIDTH 36 0
BBX 19 11 9 35
BITMAP
C000E0
C000E0
E000C0
E001C0
F003C0
7C0FC0
7FFF80
3FFF00
1FFE00
0FFC00
03F000
ENDCHAR
STARTCHAR 02D9
ENCODING 729
SWIDTH 500 0
DWIDTH 36 0
BBX 8 8 14 36
BITMAP
3C
7E
FF
FF
FF
FF
7E
3C
ENDCHAR
STARTCHAR 02DA
ENCODING 730
SWIDTH 500 0
DWIDTH 36 0
BBX 15 12 11 35
BITMAP
0FC0
3FF0
7878
F03C
F01E
F01E
F01E
F03E
F03C
7878
3FF0
0FC0
ENDCHAR
STARTCHAR 02DB
ENCODING 731
SWIDTH 500 0
DWIDTH 36 0
BBX 12 14 15 -13
BITMAP
0180
0700
0E00
1C00
3C00
7C00
7800
F800
F800
F800
FC00
7E30
3FF0
1FC0
ENDCHAR
STARTCHAR 02DC
ENCODING 732
SWIDTH 500 0
DWIDTH 36 0
BBX 22 9 7 36
BITMAP
078004
0FE00C
1FF01C
3FFC38
7FFFF8
F1FFF0
C07FE0
C01FC0
000780
ENDCHAR
STARTCHAR 02DD
ENCODING 733
SWIDTH 500 0
DWIDTH 36 0
BBX 21 11 11 35
BITMAP
03C0F0
07F1F8
07E3F8
0FC3F0
1F87E0
1F0FC0
3E0F00
3C1E00
781C00
603800
C03000
ENDCHAR
STARTCHAR 0394
ENCODING 916
SWIDTH 611 0
DWIDTH 44 0
BBX 41 48 2 0
BITMAP
000018000000
00001C000000
00003C000000
00003C000000
00003E000000
00007E000000
00007F000000
0000FF000000
0000FF000000
0001FF800000
0001FF800000
0001FFC00000
00039FC00000
00039FE00000
00079FE00000
00070FE00000
00070FF00000
000E07F00000
000E07F80000
001E07F80000
001C03F80000
003C03FC0000
003801FC0000
003801FE0000
007800FE0000
007000FF0000
00F000FF0000
00E0007F0000
00E0007F8000
01C0003F8000
01C0003FC000
03C0003FC000
0380001FC000
0380001FE000
0700000FE000
0700000FF000
0F000007F000
0E000007F000
1E000007F800
1C000003F800
1C000003FC00
38000001FC00
38000001FE00
78000001FE00
70000000FE00
70000000FF00
FFFFFFFFFF00
FFFFFFFFFF80
ENDCHAR
STARTCHAR 03A9
ENCODING 937
SWIDTH 763 0
DWIDTH 55 0
BBX 48 49 4 0
BITMAP
00003FFC0000
0007FFFFC000
001FF00FF000
007F8003FC00
01FE0000FF00
03FC00007F80
07F800003FC0
0FF000001FE0
1FE000000FF0
3FE000000FF8
3FC0000007F8
7FC0000007FC
7FC0000003FC
FF80000003FE
FF80000003FE
FF80000003FE
FF80000003FE
FF80000001FE
FF80000001FF
FF80000001FF
FF80000001FF
FF80000003FF
FF80000003FE
FF80000003FE
FF80000003FE
FF80000003FE
7FC0000003FC
7FC0000007FC
3FC0000007FC
3FE000000FF8
1FE000000FF0
0FF000001FE0
07F800001FE0
03F800003F80
01FE00007F00
007F0001FE00
601FE00FF806
6007F00FC006
6000700C0006
6000300C000C
6000300C000C
7000300C000C
7C00300C003C
7FFFF00FFFFC
7FFFF00FFFFC
7FFFF00FFFFC
7FFFF00FFFFC
7FFFF00FFFFC
3FFFF00FFFFC
ENDCHAR
STARTCHAR 03BC
ENCODING 956
SWIDTH 597 0
DWIDTH 43 0
BBX 40 50 2 -19
BITMAP
00F00007C0
0FF00FFFC0
7FF00FFFC0
FFF000FFC0
FFF0003FC0
1FE0003FC0
0FE0003F80
0FE0003F80
0FE0003F80
0FE0003F80
0FE0003F80
0FE0003F80
0FE0003F80
0FE0003F80
0FE0003F80
0FE0003F80
0FE0003F80
0FE0003F80
0FE0003F80
0FE0003F80
0FE0003F80
0FE0003F80
0FF0003F80
0FF0003F80
0FF0003F80
0FF8007F80
0FFE03FFC0
0FFFFFFFFF
0FFFFF3FFF
0FFFFC3FF8
0FFFF03FC0
0F9F003C00
0F80000000
1F80000000
1F80000000
1F80000000
1F80000000
1F80000000
1F80000000
1F80000000
1FC0000000
1FC0000000
1FC0000000
1FC0000000
1FC0000000
1FC0000000
1FC0000000
1FC0000000
1FC0000000
0F00000000
ENDCHAR
STARTCHAR 03C0
ENCODING 960
SWIDTH 555 0
DWIDTH 40 0
BBX 37 35 1 -1
BITMAP
0000000018
0000000038
01FFFFFFF8
0FFFFFFFF8
1FFFFFFFF0
3FFFFFFFF0
3FFFFFFFC0
783003F000
603003F000
603003F000
403003F000
003003F000
003003F000
003003F000
003007F000
003007F000
003007F000
003007F000
003007F000
003007F000
003007F000
007007F000
007007F000
007007F018
006007F018
C06007F010
C0E007F010
C1E003F010
E3E003F030
FFE003F830
7FC003F820
7FC001FC60
7FC001FFC0
3F8000FF80
1E00003F00
ENDCHAR
STARTCHAR 2010
ENCODING 8208
SWIDTH 291 0
DWIDTH 21 0
BBX 16 6 3 13
BITMAP
FFFF
FFFF
FFFF
FFFF
FFFF
FFFF
ENDCHAR
STARTCHAR 2013
ENCODING 8211
SWIDTH 486 0
DWIDTH 35 0
BBX 29 4 3 14
BITMAP
FFFFFFF8
FFFFFFF8
FFFFFFF8
FFFFFFF8
ENDCHAR
STARTCHAR 2014
ENCODING 8212
SWIDTH 763 0
DWIDTH 55 0
BBX 49 4 3 14
BITMAP
FFFFFFFFFFFF80
FFFFFFFFFFFF80
FFFFFFFFFFFF80
FFFFFFFFFFFF80
ENDCHAR
STARTCHAR 2018
ENCODING 8216
SWIDTH 236 0
DWIDTH 17 0
BBX 12 20 3 28
BITMAP
0070
01F0
07C0
0F00
1E00
3C00
7C00
F800
F800
F800
F800
F800
F800
FE00
FF80
FF80
7FC0
7F80
3F80
0F00
ENDCHAR
STARTCHAR 2019
ENCODING 8217
SWIDTH 250 0
DWIDTH 18 0
BBX 13 20 2 28
BITMAP
0780
0FC0
1FE0
1FF0
1FF0
0FF8
03F8
01F8
00F8
00F8
00F8
00F0
00F0
01F0
03E0
07C0
0F80
1F00
7C00
F000
ENDCHAR
STARTCHAR 201A
ENCODING 8218
SWIDTH 250 0
DWIDTH 18 0
BBX 13 21 2 -13
BITMAP
0780
0FC0
1FE0
1FF0
1FF0
0FF8
07F8
01F8
01F8
00F8
00F8
00F8
00F0
01F0
01E0
03E0
07C0
0F80
1E00
7C00
F000
ENDCHAR
STARTCHAR 201C
ENCODING 8220
SWIDTH 444 0
DWIDTH 32 0
BBX 27 20 3 28
BITMAP
007001E0
01F007C0
07C01F00
0F003E00
1E007800
3C00F000
7C01F000
F803E000
F803E000
F803E000
F803E000
F803E000
F803E000
FE03F800
FF83FE00
FF83FE00
7FC1FF00
7F81FE00
3F80FE00
0F003C00
ENDCHAR
STARTCHAR 201D
ENCODING 8221
SWIDTH 458 0
DWIDTH 33 0
BBX 27 20 3 28
BITMAP
07801E00
0FC03F00
1FE07F80
1FF07FC0
1FF07FC0
0FF83FE0
03F81FE0
01F807E0
00F803E0
00F803E0
00F803E0
00F003C0
01F007C0
01E007C0
03E00F80
07C01F00
0F803E00
3E007C00
F803F000
E003C000
ENDCHAR
STARTCHAR 201E
ENCODING 8222
SWIDTH 458 0
DWIDTH 33 0
BBX 27 21 3 -13
BITMAP
07801E00
0FC03F00
1FE07F80
1FF07FC0
1FF07FC0
0FF83FE0
07F81FE0
01F807E0
01F807E0
00F803E0
00F803E0
00F803E0
00F003C0
01F007C0
01E00780
03E00F80
07C01F00
0F003E00
3E00F800
F803F000
E0038000
ENDCHAR
STARTCHAR 2020
ENCODING 8224
SWIDTH 513 0
DWIDTH 37 0
BBX 31 66 3 -19
BITMAP
00018000
0003C000
0007E000
000FF000
001FF000
000FF000
000FF000
0007E000
0007C000
0007C000
0003C000
0003C000
00038000
00038000
00038000
00038000
00038000
1C038030
3E0380FC
7FC383FE
7FFFFFFE
FFFFFFFE
7FFFFFFE
7FC383FE
3E0380FC
1C038038
00038000
00038000
00038000
0003C000
0007C000
0007C000
0007E000
000FF000
001FF000
000FF000
000FF000
000FE000
0007E000
0007E000
0007E000
0007C000
0007C000
0003C000
0003C000
0003C000
0003C000
0003C000
0003C000
0003C000
0003C000
0003C000
0003C000
0003C000
0003C000
00038000
00038000
00038000
00038000
00038000
00038000
00038000
00038000
00038000
00038000
00018000
ENDCHAR
STARTCHAR 2021
ENCODING 8225
SWIDTH 513 0
DWIDTH 37 0
BBX 33 66 2 -19
BITMAP
0001C00000
0003E00000
0007F00000
000FF00000
000FF80000
000FF80000
0007F00000
0007F00000
0003E00000
0003E00000
0003E00000
0001C00000
0001C00000
0001C00000
0001C00000
0001C00000
3801C00C00
7E01C03E00
FF81C0FF00
FFF9CFFF80
FFFFFFFF80
FFFFFFFF00
7F81C0FE00
3C01C01C00
0001C00000
0001C00000
0001C00000
0001E00000
0003E00000
0003E00000
0007F00000
0007F00000
000FF80000
000FF80000
0007F00000
0007E00000
0003E00000
0003E00000
0001C00000
0001C00000
0001C00000
3801C00C00
7E01C03E00
FFE1C3FF00
FFFFFFFF80
FFFFFFFF80
FFE1C3FF00
7E01C07E00
3801C00C00
0001C00000
0001C00000
0001C00000
0001C00000
0001C00000
0001C00000
0003E00000
0003E00000
0003E00000
0007E00000
0007F00000
000FF00000
000FF80000
000FF00000
0007F00000
0003E00000
0001C00000
ENDCHAR
STARTCHAR 2022
ENCODING 8226
SWIDTH 638 0
DWIDTH 46 0
BBX 19 19 13 14
BITMAP
01F800
07FE00
1FFF00
1FFF80
3FFFC0
7FFFE0
7FFFE0
7FFFE0
FFFFE0
FFFFE0
FFFFE0
7FFFE0
7FFFE0
7FFFE0
3FFFC0
3FFF80
1FFF00
07FE00
01F800
ENDCHAR
STARTCHAR 2026
ENCODING 8230
SWIDTH 722 0
DWIDTH 52 0
BBX 44 10 4 -1
BITMAP
1C000E000380
3E001F0007C0
7F003F800FE0
FF807FC01FF0
FF807FC01FF0
FF807FC01FF0
FF807FC01FF0
7F003F800FE0
3E001F0007C0
1C000E000380
ENDCHAR
STARTCHAR 2030
ENCODING 8240
SWIDTH 1041 0
DWIDTH 75 0
BBX 71 47 2 -1
BITMAP
00FC00003C00000000
07FF00007800000000
0F0FC0007800000000
1E07E000F000000000
3C03E000F000000000
7C03F001E000000000
7801F003C000000000
7801F803C000000000
F800F8078000000000
F800F8070000000000
F800F80F0000000000
F800F80E0000000000
F800F81C0000000000
F800F81C0000000000
F800F8380000000000
FC00F0380000000000
7C00F0700000000000
7E01E0E00000000000
3E01E0E00000000000
3F01C1C00000000000
1F8781800000000000
0FFF03800000000000
03F803000000000000
000007007E00003F00
00000603FF8001FFC0
00000E0787E003C3F0
00000C0F03E00781F0
0000181E01F00F00F8
0000381E01F80F00FC
0000303C00F81E007C
0000703C00F81E007C
0000607C00FC3E007E
0000E07C007C3E003E
0000C07C007C3E003E
0001C07C007C3E003E
0003807C007C3E003E
0003807C007C3E003E
0007007C007C3E003E
0007007E007C3F003E
000E003E00781F003C
000E003E00781F003C
001C003F00F01F8078
003C001F00F00F8078
0038000F81E00FC0F0
0078000FC3C007E1E0
00700003FF0001FF80
00000000FC00007E00
ENDCHAR
STARTCHAR 2039
ENCODING 8249
SWIDTH 291 0
DWIDTH 21 0
BBX 17 27 2 2
BITMAP
000300
000780
000F00
001E00
003E00
007C00
00F800
01F800
07F000
0FE000
1FC000
3FC000
7F8000
FF0000
7F8000
3FC000
0FC000
07E000
03F000
01F800
00FC00
007C00
003E00
001F00
000700
000380
000100
ENDCHAR
STARTCHAR 203A
ENCODING 8250
SWIDTH 291 0
DWIDTH 21 0
BBX 17 27 2 2
BITMAP
600000
700000
780000
3C0000
1E0000
1F8000
0FC000
07E000
03F000
03F800
01FC00
00FF00
007F80
007F80
007F00
00FE00
01FC00
03F800
03F000
07C000
0F8000
1F0000
3E0000
3C0000
780000
F00000
600000
ENDCHAR
STARTCHAR 2044
ENCODING 8260
SWIDTH 97 0
DWIDTH 7 0
BBX 26 46 -10 0
BITMAP
000003C0
00000380
00000700
00000700
00000E00
00000E00
00001C00
00001C00
00003800
00003800
00007000
00007000
0000E000
0000E000
0001C000
0001C000
00038000
00038000
00070000
00070000
000E0000
000E0000
001C0000
001C0000
00380000
00380000
00700000
00700000
00E00000
00E00000
01C00000
01C00000
03800000
03800000
07000000
07000000
0E000000
0E000000
1C000000
1C000000
38000000
38000000
70000000
70000000
E0000000
E0000000
ENDCHAR
STARTCHAR 2122
ENCODING 8482
SWIDTH 833 0
DWIDTH 60 0
BBX 55 22 2 23
BITMAP
7FFFFEFF8001FE
7FFFFE3F8001FC
707C1C1FC001F0
E07C0C0FC003F0
C07C0C0FC003F0
C07C0C0FE007F0
007C000FE007F0
007C000DF00DF0
007C000CF00DF0
007C000CF819F0
007C000C7819F0
007C000C7C39F0
007C001C3C31F0
007C001C3E71F0
007C001C1E61F0
007C001C1EE1F0
007C001C0FC1F0
007C001C0FC1F0
007C001C07C1F0
00FC003C0781F0
03FF81FF8787FC
07FFC1FFC31FFE
ENDCHAR
STARTCHAR 2126
ENCODING 8486
SWIDTH 763 0
DWIDTH 55 0
BBX 48 49 4 0
BITMAP
00003FFC0000
0007FFFFC000
001FF00FF000
007F8003FC00
01FE0000FF00
03FC00007F80
07F800003FC0
0FF000001FE0
1FE000000FF0
3FE000000FF8
3FC0000007F8
7FC0000007FC
7FC0000003FC
FF80000003FE
FF80000003FE
FF80000003FE
FF80000003FE
FF80000001FE
FF80000001FF
FF80000001FF
FF80000001FF
FF80000003FF
FF80000003FE
FF80000003FE
FF80000003FE
FF80000003FE
7FC0000003FC
7FC0000007FC
3FC0000007FC
3FE000000FF8
1FE000000FF0
0FF000001FE0
07F800001FE0
03F800003F80
01FE00007F00
007F0001FE00
601FE00FF806
6007F00FC006
6000700C0006
6000300C000C
6000300C000C
7000300C000C
7C00300C003C
7FFFF00FFFFC
7FFFF00FFFFC
7FFFF00FFFFC
7FFFF00FFFFC
7FFFF00FFFFC
3FFFF00FFFFC
ENDCHAR
STARTCHAR 2202
ENCODING 8706
SWIDTH 500 0
DWIDTH 36 0
BBX 27 47 4 -1
BITMAP
000FE000
003FF800
007F8C00
00FF0600
00FE0700
00FC0700
00F80380
00600380
000003C0
000003C0
000003C0
000003E0
000003E0
000003E0
000003E0
000003E0
000003E0
000003E0
000003E0
003F03E0
01FFC3E0
03F063E0
07C033E0
0F801BE0
1F000BE0
1F000FE0
3E000FE0
3E000FE0
7E000FE0
7C000FC0
7C000FC0
7C000FC0
FC000FC0
FC000F80
FC000F80
78000F80
78000F00
78001F00
7C001E00
7C001E00
3C003C00
3C007800
1E007800
0E00F000
0783E000
03FF8000
00FE0000
ENDCHAR
STARTCHAR 2206
ENCODING 8710
SWIDTH 611 0
DWIDTH 44 0
BBX 41 48 2 0
BITMAP
000018000000
00001C000000
00003C000000
00003C000000
00003E000000
00007E000000
00007F000000
0000FF000000
0000FF000000
0001FF800000
0001FF800000
0001FFC00000
00039FC00000
00039FE00000
00079FE00000
00070FE00000
00070FF00000
000E07F00000
000E07F80000
001E07F80000
001C03F80000
003C03FC0000
003801FC0000
003801FE0000
007800FE0000
007000FF0000
00F000FF0000
00E0007F0000
00E0007F8000
01C0003F8000
01C0003FC000
03C0003FC000
0380001FC000
0380001FE000
0700000FE000
0700000FF000
0F000007F000
0E000007F000
1E000007F800
1C000003F800
1C000003FC00
38000001FC00
38000001FE00
78000001FE00
70000000FE00
70000000FF00
FFFFFFFFFF00
FFFFFFFFFF80
ENDCHAR
STARTCHAR 220F
ENCODING 8719
SWIDTH 819 0
DWIDTH 59 0
BBX 55 70 2 -16
BITMAP
FFFFFFFFFFFFFE
FFFFFFFFFFFFFE
03F80000003F80
03F80000003F80
03F80000003F80
03F80000003F80
03F80000003F80
03F80000003F80
03F80000003F80
03F80000003F80
03F80000003F80
03F80000003F80
03F80000003F80
03F80000003F80
03F80000003F80
03F80000003F80
03F80000003F80
03F80000003F80
03F80000003F80
03F80000003F80
03F80000003F80
03F80000003F80
03F80000003F80
03F80000003F80
03F80000003F80
03F80000003F80
03F80000003F80
03F80000003F80
03F80000003F80
03F80000003F80
03F80000003F80
03F80000003F80
03F80000003F80
03F80000003F80
03F80000003F80
03F80000003F80
03F80000003F80
03F80000003F80
03F80000003F80
03F80000003F80
03F80000003F80
03F80000003F80
03F80000003F80
03F80000003F80
03F80000003F80
03F80000003F80
03F80000003F80
03F80000003F80
03F80000003F80
03F80000003F80
03F80000003F80
03F80000003F80
03F80000003F80
03F80000003F80
03F80000003F80
03F80000003F80
03F80000003F80
03F80000003F80
03F80000003F80
03F80000003F80
03F80000003F80
03F80000003F80
03F80000003F80
03F80000003F80
03F80000003F80
03F80000003F80
03F80000003F80
03F80000003F80
FFFFE0000FFFFE
FFFFE0000FFFFE
ENDCHAR
STARTCHAR 2211
ENCODING 8721
SWIDTH 708 0
DWIDTH 51 0
BBX 44 70 3 -16
BITMAP
7FFFFFFFFF00
3FFFFFFFFF00
1FE0001FFF80
1FF00003FF80
0FF80000FF80
07F800003F80
03FC00001F80
03FE00000F80
01FF00000F80
00FF000007C0
00FF800003C0
007FC00003C0
003FC00003C0
003FE00001C0
001FF00001C0
000FF00000C0
0007F80000E0
0007FC000000
0003FE000000
0001FE000000
0001FF000000
0000FF800000
00007F800000
00003FC00000
00003FE00000
00001FF00000
00000FF00000
00000FF80000
000007FC0000
000003FC0000
000001FE0000
000001FF0000
000000FF8000
0000007F8000
0000007FC000
0000003FC000
0000001F8000
0000000F0000
0000001E0000
0000003C0000
000000780000
000000F00000
000001F00000
000001E00000
000003C00000
000007800000
00000F000000
00001E000000
00003C000000
000078000000
0000F0000000
0001F0000000
0001E0000000
0003C0000030
000780000070
000F00000070
001E000000F0
003C000000E0
0078000001E0
00F0000003E0
00F0000007E0
01E000000FE0
03C000003FC0
07800001FFC0
0FFFFFFFFFC0
1FFFFFFFFFC0
3FFFFFFFFFC0
7FFFFFFFFF80
FFFFFFFFFF80
FFFFFFFFFF80
ENDCHAR
STARTCHAR 2212
ENCODING 8722
SWIDTH 513 0
DWIDTH 37 0
BBX 31 4 3 21
BITMAP
FFFFFFFE
FFFFFFFE
FFFFFFFE
FFFFFFFE
ENDCHAR
STARTCHAR 2219
ENCODING 8729
SWIDTH 236 0
DWIDTH 17 0
BBX 9 10 4 10
BITMAP
1C00
3E00
7F00
FF80
FF80
FF80
FF80
7F00
3E00
1C00
ENDCHAR
STARTCHAR 221A
ENCODING 8730
SWIDTH 555 0
DWIDTH 40 0
BBX 44 59 -1 -1
BITMAP
000000000FF0
000000000FF0
000000000FF0
000000001E00
000000001E00
000000003E00
000000003C00
000000003C00
000000007C00
000000007800
000000007800
00000000F800
00000000F000
00000001F000
00000001E000
00000001E000
00000003E000
00000003C000
00000003C000
00000007C000
000000078000
0000000F8000
0000000F0000
0000000F0000
00E0001F0000
07F0001E0000
3FF0001E0000
FFF0003E0000
FFF8003C0000
63F8007C0000
03F800780000
03FC00780000
01FC00F80000
01FE00F00000
01FE00F00000
00FE01F00000
00FF01E00000
007F01E00000
007F03C00000
007F83C00000
003F87C00000
003FC7800000
003FC7800000
001FCF800000
001FEF000000
000FEF000000
000FFE000000
000FFE000000
0007FE000000
0007FC000000
0007FC000000
0003FC000000
0003F8000000
0003F8000000
0001F0000000
0001F0000000
0000F0000000
0000E0000000
0000E0000000
ENDCHAR
STARTCHAR 221E
ENCODING 8734
SWIDTH 708 0
DWIDTH 51 0
BBX 44 27 4 8
BITMAP
01F80007F000
07FE001FFC00
0FFF803FFE00
1FFFC07FFF00
3FFFC0FE0780
3E07E1FC01C0
7800F1F800C0
700073F000E0
E0003FE00060
E0001FC00060
C0001FC00030
C0000F800030
C0001F000030
C0001F000030
C0003E000030
C0003E000070
C0007E000070
C0007F000060
6000FD8000E0
6001FDC001E0
7003F8E003C0
3807F0FC0FC0
1E0FF07FFF80
1FFFE03FFF80
0FFFC01FFF00
03FF000FFE00
00FC0003F800
ENDCHAR
STARTCHAR 222B
ENCODING 8747
SWIDTH 277 0
DWIDTH 20 0
BBX 32 68 -6 -13
BITMAP
000001F8
000007FE
00000FFF
00001CFF
0000387F
0000707F
0000703F
0000F01E
0000F000
0001F000
0001E000
0001E000
0003E000
0003E000
0003E000
0003E000
0003E000
0003E000
0007E000
0007E000
0007E000
0007E000
0007E000
0007E000
0007E000
0007E000
0007E000
0007E000
0007E000
0007E000
0007E000
000FE000
000FE000
000FE000
000FC000
000FC000
000FC000
000FC000
000FC000
000FC000
000FC000
000FC000
000FC000
000FC000
000FC000
000FC000
000FC000
000FC000
000F8000
000F8000
000F8000
000F8000
000F8000
000F8000
000F8000
000F0000
000F0000
001F0000
001F0000
001E0000
701E0000
F81C0000
FC3C0000
FE380000
FE700000
FFE00000
7FC00000
1F000000
ENDCHAR
STARTCHAR 2248
ENCODING 8776
SWIDTH 555 0
DWIDTH 40 0
BBX 37 18 1 8
BITMAP
0000000008
00FF000018
07FFF00078
1FFFFE03F8
7FFFFFFFF8
FF01FFFFE0
FC001FFF80
F00001FC00
C000000000
8000000018
00FF000038
07FFF000F8
3FFFFF03F8
7FFFFFFFF8
FF01FFFFE0
F8001FFF80
E00001FC00
8000000000
ENDCHAR
STARTCHAR 2260
ENCODING 8800
SWIDTH 555 0
DWIDTH 40 0
BBX 33 30 3 2
BITMAP
0000000C00
0000001E00
0000003F00
0000007E00
000000FC00
000001F800
000003F000
000007E000
FFFFFFFF80
FFFFFFFF80
FFFFFFFF80
FFFFFFFF80
0000FC0000
0000F80000
0001F00000
0003E00000
0007C00000
000F800000
FFFFFFFF80
FFFFFFFF80
FFFFFFFF80
FFFFFFFF80
01F0000000
03E0000000
07C0000000
1F80000000
3F00000000
3E00000000
1C00000000
0800000000
ENDCHAR
STARTCHAR 2264
ENCODING 8804
SWIDTH 555 0
DWIDTH 40 0
BBX 33 34 3 0
BITMAP
0000000080
0000000F80
0000007F80
000003FF80
00001FFF00
0001FFF800
000FFFC000
007FFE0000
03FFE00000
1FFF000000
FFF8000000
FFC0000000
FE00000000
FFC0000000
FFFC000000
1FFF800000
01FFF00000
003FFE0000
0007FFC000
0000FFFC00
00001FFF80
000001FF80
0000003F80
0000000780
0000000080
0000000000
0000000000
0000000000
0000000000
0000000000
FFFFFFFF80
FFFFFFFF80
FFFFFFFF80
FFFFFFFF80
ENDCHAR
STARTCHAR 2265
ENCODING 8805
SWIDTH 555 0
DWIDTH 40 0
BBX 33 34 3 0
BITMAP
C000000000
F800000000
FF00000000
FFF0000000
7FFE000000
07FFC00000
00FFF80000
001FFF8000
0003FFF000
00003FFE00
000007FF80
000000FF80
0000003F80
000001FF80
00000FFF80
00007FFC00
0003FFE000
003FFF0000
01FFF80000
0FFF800000
7FFC000000
FFE0000000
FF00000000
F800000000
8000000000
0000000000
0000000000
0000000000
0000000000
0000000000
FFFFFFFF80
FFFFFFFF80
FFFFFFFF80
FFFFFFFF80
ENDCHAR
STARTCHAR 22F2
ENCODING 8946
SWIDTH 555 0
DWIDTH 40 0
BBX 37 18 1 8
BITMAP
0000000008
00FF000018
07FFF00078
1FFFFE03F8
7FFFFFFFF8
FF01FFFFE0
FC001FFF80
F00001FC00
C000000000
8000000018
00FF000038
07FFF000F8
3FFFFF03F8
7FFFFFFFF8
FF01FFFFE0
F8001FFF80
E00001FC00
8000000000
ENDCHAR
STARTCHAR 25CA
ENCODING 9674
SWIDTH 500 0
DWIDTH 36 0
BBX 35 73 0 -16
BITMAP
0000400000
0000600000
0000E00000
0000F00000
0001F00000
0001F80000
0003F80000
0003FC0000
0007FC0000
0007BE0000
000F9E0000
000F1F0000
001F0F0000
001E0F8000
003E078000
003C07C000
007C03C000
007803E000
007801E000
00F801E000
00F000F000
01F000F000
01E000F800
03E0007800
03C0007C00
07C0003C00
0780003E00
0F80001E00
0F00001F00
1F00000F00
1E00000F80
3E00000780
3C000007C0
7C000003C0
78000003E0
78000001E0
F8000001E0
78000003E0
7C000003C0
3C000007C0
3E00000780
1E00000F80
1F00000F00
0F00000F00
0F00001F00
0780001E00
0780003E00
07C0003C00
03C0007C00
03E0007800
01E000F800
01F000F000
00F001F000
00F801E000
007803E000
007C03C000
003C07C000
003E078000
001E078000
001E0F8000
000F0F0000
000F1F0000
000F9E0000
0007BE0000
0007FC0000
0003FC0000
0003F80000
0001F80000
0001F00000
0000F00000
0000E00000
0000600000
0000400000
ENDCHAR
STARTCHAR F000
ENCODING 61440
SWIDTH 791 0
DWIDTH 57 0
BBX 49 59 4 -1
BITMAP
00000000180000
00000000F80000
00000001F80000
00000003F80000
00000007F80000
0000000FF00000
0000001FF00000
0000001FF00000
0000003FE00000
0000003FC00000
0000007F800000
0000007F000000
0000007C000000
00038040380000
003FF803FF8000
00FFFF1FFFE000
03FFFFFFFFF800
07FFFFFFFFFC00
0FFFFFFFFFFE00
1FFFFFFFFFFE00
1FFFFFFFFFF800
3FFFFFFFFFF000
3FFFFFFFFFF000
7FFFFFFFFFE000
7FFFFFFFFFC000
7FFFFFFFFFC000
7FFFFFFFFF8000
FFFFFFFFFF8000
FFFFFFFFFF8000
FFFFFFFFFF8000
FFFFFFFFFF8000
FFFFFFFFFF8000
FFFFFFFFFF8000
FFFFFFFFFF8000
FFFFFFFFFF8000
FFFFFFFFFF8000
FFFFFFFFFFC000
7FFFFFFFFFC000
7FFFFFFFFFE000
7FFFFFFFFFF000
7FFFFFFFFFF000
3FFFFFFFFFFC00
3FFFFFFFFFFE00
3FFFFFFFFFFF80
1FFFFFFFFFFF00
1FFFFFFFFFFF00
0FFFFFFFFFFE00
0FFFFFFFFFFE00
07FFFFFFFFFC00
07FFFFFFFFFC00
03FFFFFFFFF800
01FFFFFFFFF000
01FFFFFFFFF000
00FFFFFFFFE000
007FFFFFFFC000
003FFFFFFF8000
001FFE0FFF0000
000FF803FE0000
0003E000F80000
ENDCHAR
STARTCHAR F001
ENCODING 61441
SWIDTH 597 0
DWIDTH 43 0
BBX 39 52 2 -1
BITMAP
00001FF000
0000FFFC00
0003FFFF00
0007FFFF80
001FFFFF80
003F81FF80
007E007F80
007C003F00
00F8001E00
01F8000000
01F8000000
03F0000000
03F0000000
03F0000000
03F0000000
07F0000000
07F0000000
07F0000000
07F0000000
07F0000000
07F00007C0
0FFFFFFFC0
7FFFFFFFC0
7FFFFFFFC0
7FF0FFFFC0
07F0007F80
07F0003F80
07F0003F80
07F0003F80
07F0003F80
07F0003F80
07F0003F80
07F0003F80
07F0003F80
07F0003F80
07F0003F80
07F0003F80
07F0003F80
07F0003F80
07F0003F80
07F0003F80
07F0003F80
07F0003F80
07F0003F80
07F0003F80
07F0003F80
07F0003F80
07F8007FC0
0FF800FFC0
3FFF07FFF0
FFFFC7FFFE
E001C7C002
ENDCHAR
STARTCHAR F002
ENCODING 61442
SWIDTH 597 0
DWIDTH 43 0
BBX 40 52 2 -1
BITMAP
00000FC0C0
00007FFBC0
0001FFFFC0
0007FFFFC0
000FFFFFC0
001F01FFC0
003C00FFC0
007C007FC0
00F8003FC0
01F8003FC0
01F8003F80
03F0003F80
03F0003F80
03F0003F80
03F0003F80
03F0003F80
03F0003F80
03F0003F80
07F0003F80
07F0003F80
1FFFFC3F80
7FFFFC3F80
7FFFFC3F80
07F0003F80
07F0003F80
07F0003F80
07F0003F80
07F0003F80
07F0003F80
07F0003F80
07F0003F80
07F0003F80
07F0003F80
07F0003F80
07F0003F80
07F0003F80
07F0003F80
07F0003F80
07F0003F80
07F0003F80
07F0003F80
07F0003F80
07F0003F80
07F0003F80
07F0003F80
07F0003F80
07F0003F80
07F8007FC0
0FF8007FC0
3FFC01FFF8
FFFFC7FFFF
FFFFC7FFFF
ENDCHAR
ENDFONT
